<?xml version="1.0" encoding="UTF-8"?>
<svg width="367px" height="255px" viewBox="0 0 367 255" version="1.1" xmlns="http://www.w3.org/2000/svg" xmlns:xlink="http://www.w3.org/1999/xlink">
    <!-- Generator: Sketch 53 (72520) - https://sketchapp.com -->
    <title>Group 48</title>
    <desc>Created with Sketch.</desc>
    <defs>
        <linearGradient x1="50%" y1="0%" x2="50%" y2="100%" id="linearGradient-1">
            <stop stop-color="#97DAFC" offset="17.6757812%"></stop>
            <stop stop-color="#FFFFFF" offset="100%"></stop>
        </linearGradient>
        <linearGradient x1="100%" y1="31.4717797%" x2="0%" y2="31.4717797%" id="linearGradient-2">
            <stop stop-color="#2BA177" offset="0%"></stop>
            <stop stop-color="#00994B" offset="100%"></stop>
        </linearGradient>
        <linearGradient x1="100%" y1="100%" x1102="0%" y2="100%" id="linearGradient-3">
            <stop stop-color="#3FC589" offset="0%"></stop>
            <stop stop-color="#47AE7B" offset="100%"></stop>
        </linearGradient>
        <linearGradient x1="100%" y1="100%" x2="0%" y2="100%" id="linearGradient-4">
            <stop stop-color="#91FBAB" offset="0%"></stop>
            <stop stop-color="#47AE7B" offset="100%"></stop>
        </linearGradient>
    </defs>
    <g id="Group-48" stroke="none" stroke-width="1" fill="none" fill-rule="evenodd">
        <g id="Group-47">
            <g transform="translate(0.000000, -0.000000)">
                <rect id="Rectangle-Copy-91" fill="#FFFFFF" x="0" y="0" width="367" height="255"></rect>
                <rect id="Rectangle-Copy-91" fill-opacity="0.4" fill="url(#linearGradient-1)" opacity="0.798967634" x="0" y="0" width="367" height="255"></rect>
                <path d="M199.815759,47.1225671 C206.047545,47.4666867 211,52.9002213 211,59.5526316 C211,66.2284243 206.012669,71.6767578 199.75,71.9861359 L199.75,72 L153.625,72 L153.625,71.958788 C145.451565,71.357853 139,64.2598722 139,55.5921053 C139,46.5302752 146.051515,39.1842105 154.75,39.1842105 C154.931552,39.1842105 155.112386,39.1874107 155.292454,39.1937598 C159.909368,33.0048093 167.270289,29 175.5625,29 C187.015636,29 196.69216,36.6399419 199.815759,47.1225671 L199.815759,47.1225671 Z" id="Path" fill="#FCFBFC"></path>
                <path d="M16.8772673,210.007044 C56.0286654,197.294091 91.0758639,190.291743 122.018863,189 C243.637331,183.922928 277.471937,222 306.482633,222 C335.493328,222 335.887355,202.032391 345.125846,206.347963 C350.347925,208.78735 355.972643,219.130795 362,237.378296 L-9.09494702e-13,255 L16.8772673,210.007044 Z" id="Path-2-Copy-5" fill="url(#linearGradient-2)" opacity="0.600000024"></path>
                <path d="M1.93267624e-12,194.566271 C25.2987072,194.783546 43.2737319,194.980078 53.9250742,195.155865 C83.0193659,195.636032 148.398438,207.113281 226.074219,227.908203 C277.858073,241.771484 324.714444,250.724214 366.643331,254.766391 L1.93267624e-12,255 L1.93267624e-12,194.566271 Z" id="Path-2-Copy-6" fill="url(#linearGradient-3)"></path>
                <path d="M38.9140768,194.566271 C59.8454007,195.011923 75.8260909,195.571218 86.8561472,196.244156 C126.418267,198.657819 165.900189,206.527293 238.561902,221.766965 C287.003045,231.926746 329.815744,243.004424 367,255 L38.9140768,255 L38.9140768,194.566271 Z" id="Path-2-Copy-7" fill="url(#linearGradient-4)" transform="translate(202.957038, 224.783136) scale(-1, 1) translate(-202.957038, -224.783136) "></path>
                <g id="Group-45" transform="translate(283.000000, 72.000000)" fill="#FCFBFC">
                    <path d="M40.8771752,22.8120224 L40.8771752,22.8157895 L7.82754418,22.8157895 L7.82754418,22.7906957 C3.44904576,22.4525154 0,18.7382402 0,14.2060576 C0,9.53268013 3.66729533,5.72896572 8.23939542,5.59972017 C10.7273559,2.20754438 14.777608,0 19.3514287,0 C24.5758185,0 29.1171048,2.88019782 31.4272945,7.11616165 C31.8698844,6.96788878 32.3420216,6.8877855 32.8321992,6.8877855 C35.1059048,6.8877855 36.9914554,8.61128796 37.3404134,10.8672771 C38.304496,10.254817 39.4417936,9.90119166 40.6597434,9.90119166 C44.1421869,9.90119166 46.9652651,12.7922229 46.9652651,16.3584906 C46.9652651,19.8502349 44.2589404,22.6946683 40.8771752,22.8120224 L40.8771752,22.8120224 Z" id="Path"></path>
                </g>
            </g>
        </g>
    </g>
</svg>