<svg width="16" height="16" viewBox="0 0 16 16" fill="none" xmlns="http://www.w3.org/2000/svg">
<path fill-rule="evenodd" clip-rule="evenodd" d="M7.99976 5.99994C8.35176 5.99994 8.68243 6.09061 8.99176 6.27194C9.3011 6.45328 9.54643 6.69861 9.72776 7.00794C9.9091 7.31728 9.99976 7.64794 9.99976 7.99994C9.99976 8.35195 9.9091 8.68261 9.72776 8.99194C9.54643 9.30128 9.3011 9.54661 8.99176 9.72794C8.68243 9.90928 8.35176 9.99994 7.99976 9.99994C7.64776 9.99994 7.3171 9.90928 7.00776 9.72794C6.69843 9.54661 6.4531 9.30128 6.27176 8.99194C6.09043 8.68261 5.99976 8.35195 5.99976 7.99994C5.99976 7.64794 6.09043 7.31728 6.27176 7.00794C6.4531 6.69861 6.69843 6.45328 7.00776 6.27194C7.3171 6.09061 7.64776 5.99994 7.99976 5.99994ZM7.99976 11.3439C8.60776 11.3439 9.16776 11.1946 9.67976 10.8959C10.1918 10.5973 10.5971 10.1919 10.8958 9.67994C11.1944 9.16794 11.3438 8.60795 11.3438 7.99994C11.3438 7.39194 11.1944 6.83195 10.8958 6.31994C10.5971 5.80794 10.1918 5.40261 9.67976 5.10394C9.16776 4.80528 8.60776 4.65594 7.99976 4.65594C7.39176 4.65594 6.83176 4.80528 6.31976 5.10394C5.80776 5.40261 5.40243 5.80794 5.10376 6.31994C4.80509 6.83195 4.65576 7.39194 4.65576 7.99994C4.65576 8.60795 4.80509 9.16794 5.10376 9.67994C5.40243 10.1919 5.80776 10.5973 6.31976 10.8959C6.83176 11.1946 7.39176 11.3439 7.99976 11.3439ZM7.99976 2.99194C9.09843 2.99194 10.1438 3.20527 11.1358 3.63194C12.0958 4.04795 12.9411 4.63461 13.6718 5.39194C14.4024 6.14928 14.9598 7.01861 15.3438 7.99994C14.9598 8.98128 14.4024 9.84794 13.6718 10.5999C12.9411 11.3519 12.0958 11.9359 11.1358 12.3519C10.1438 12.7786 9.09843 12.9919 7.99976 12.9919C6.90109 12.9919 5.85577 12.7786 4.86376 12.3519C3.90376 11.9359 3.05843 11.3519 2.32776 10.5999C1.59709 9.84794 1.03976 8.98128 0.655762 7.99994C1.03976 7.01861 1.59709 6.14928 2.32776 5.39194C3.05843 4.63461 3.90376 4.04795 4.86376 3.63194C5.85577 3.20527 6.90109 2.99194 7.99976 2.99194Z" fill="#636C78"/>
</svg>
