<svg width="16" height="16" viewBox="0 0 16 16" fill="none" xmlns="http://www.w3.org/2000/svg">
<path fill-rule="evenodd" clip-rule="evenodd" d="M3.5773 9.24401C3.76139 8.92515 3.65214 8.51742 3.33328 8.33332C3.01442 8.14923 2.60669 8.25848 2.4226 8.57734L1.75593 9.73204C1.57184 10.0509 1.68109 10.4586 1.99995 10.6427C2.31881 10.8268 2.72654 10.7176 2.91063 10.3987L3.5773 9.24401ZM6.88878 9.66666C7.20764 9.85075 7.3169 10.2585 7.1328 10.5773L6.46613 11.732C6.28204 12.0509 5.87431 12.1602 5.55545 11.9761C5.23659 11.792 5.12734 11.3842 5.31143 11.0654L5.9781 9.91067C6.16219 9.59181 6.56992 9.48256 6.88878 9.66666ZM9.11103 9.66666C8.79217 9.85075 8.68292 10.2585 8.86701 10.5773L9.53368 11.732C9.71777 12.0509 10.1255 12.1602 10.4444 11.9761C10.7632 11.792 10.8725 11.3842 10.6884 11.0654L10.0217 9.91067C9.83762 9.59181 9.42989 9.48256 9.11103 9.66666ZM12.6665 8.33332C12.3477 8.51742 12.2384 8.92515 12.4225 9.24401L13.0892 10.3987C13.2733 10.7176 13.681 10.8268 13.9999 10.6427C14.3187 10.4586 14.428 10.0509 14.2439 9.73204L13.5772 8.57734C13.3931 8.25848 12.9854 8.14923 12.6665 8.33332Z" fill="#636C78"/>
<path d="M1.3335 6C1.3335 6 3.69946 10.0291 7.89197 10.0291C12.0002 10 14.6668 6 14.6668 6" stroke="#636C78" stroke-width="1.33333" stroke-linecap="round" stroke-linejoin="round"/>
</svg>
