<svg width="20" height="20" viewBox="0 0 20 20" fill="none" xmlns="http://www.w3.org/2000/svg">
<rect x="3.33337" y="16.6665" width="1.66667" height="13.3333" rx="0.833333" transform="rotate(-90 3.33337 16.6665)" fill="#636C78"/>
<path d="M7.5 3.61111C7.5 2.99746 7.99746 2.5 8.61111 2.5L11.3889 2.5C12.0025 2.5 12.5 2.99746 12.5 3.61111L12.5 12.2222C12.5 12.8359 12.0025 13.3333 11.3889 13.3333L8.61111 13.3333C7.99746 13.3333 7.5 12.8359 7.5 12.2222L7.5 3.61111Z" fill="white"/>
<path fill-rule="evenodd" clip-rule="evenodd" d="M8.94444 3.94444L8.94444 11.8889L11.0556 11.8889L11.0556 3.94444L8.94444 3.94444ZM8.61111 2.5C7.99746 2.5 7.5 2.99746 7.5 3.61111L7.5 12.2222C7.5 12.8359 7.99746 13.3333 8.61111 13.3333L11.3889 13.3333C12.0025 13.3333 12.5 12.8359 12.5 12.2222L12.5 3.61111C12.5 2.99746 12.0025 2.5 11.3889 2.5L8.61111 2.5Z" fill="black"/>
</svg>
