<svg width="20" height="20" viewBox="0 0 20 20" fill="none" xmlns="http://www.w3.org/2000/svg">
<rect width="1.66667" height="13.3333" rx="0.833333" transform="matrix(-1 0 0 1 16.6666 3.3335)" fill="#636C78"/>
<path d="M3.5 7.5C2.94771 7.5 2.5 7.94772 2.5 8.5L2.5 11.5C2.5 12.0523 2.94772 12.5 3.5 12.5L12.3333 12.5C12.8856 12.5 13.3333 12.0523 13.3333 11.5L13.3333 8.5C13.3333 7.94771 12.8856 7.5 12.3333 7.5L3.5 7.5Z" fill="white"/>
<path fill-rule="evenodd" clip-rule="evenodd" d="M3.8 8.8L12.0333 8.8L12.0333 11.2L3.8 11.2L3.8 8.8ZM2.5 8.5C2.5 7.94772 2.94771 7.5 3.5 7.5L12.3333 7.5C12.8856 7.5 13.3333 7.94771 13.3333 8.5L13.3333 11.5C13.3333 12.0523 12.8856 12.5 12.3333 12.5L3.5 12.5C2.94772 12.5 2.5 12.0523 2.5 11.5L2.5 8.5Z" fill="black"/>
</svg>
