<svg width="20" height="20" viewBox="0 0 20 20" fill="none" xmlns="http://www.w3.org/2000/svg">
<path fill-rule="evenodd" clip-rule="evenodd" d="M16.6666 9.99984C16.6666 9.5396 16.2935 9.1665 15.8333 9.1665L12.5 9.1665L12.5 10.8332L15.8333 10.8332C16.2935 10.8332 16.6666 10.4601 16.6666 9.99984ZM7.5 10.8332L7.5 9.1665L4.16663 9.1665C3.70639 9.1665 3.33329 9.5396 3.33329 9.99984C3.33329 10.4601 3.70639 10.8332 4.16663 10.8332L7.5 10.8332Z" fill="#636C78"/>
<path fill-rule="evenodd" clip-rule="evenodd" d="M11.2 15.3665L11.2 4.63317L8.8 4.63317L8.8 15.3665L11.2 15.3665ZM11.5 16.6665C12.0523 16.6665 12.5 16.2188 12.5 15.6665L12.5 4.33317C12.5 3.78088 12.0523 3.33317 11.5 3.33317L8.5 3.33317C7.94772 3.33317 7.5 3.78088 7.5 4.33317L7.5 15.6665C7.5 16.2188 7.94772 16.6665 8.5 16.6665L11.5 16.6665Z" fill="black"/>
</svg>
