<svg width="20" height="20" viewBox="0 0 20 20" fill="none" xmlns="http://www.w3.org/2000/svg">
<rect x="16.6666" y="3.3335" width="1.66667" height="13.3333" rx="0.833333" transform="rotate(90 16.6666 3.3335)" fill="#636C78"/>
<path d="M12.5 16.5C12.5 17.0523 12.0523 17.5 11.5 17.5L8.5 17.5C7.94772 17.5 7.5 17.0523 7.5 16.5L7.5 7.66666C7.5 7.11438 7.94772 6.66667 8.5 6.66667L11.5 6.66667C12.0523 6.66667 12.5 7.11438 12.5 7.66667L12.5 16.5Z" fill="white"/>
<path fill-rule="evenodd" clip-rule="evenodd" d="M11.2 16.2L11.2 7.96667L8.8 7.96667L8.8 16.2L11.2 16.2ZM11.5 17.5C12.0523 17.5 12.5 17.0523 12.5 16.5L12.5 7.66667C12.5 7.11438 12.0523 6.66667 11.5 6.66667L8.5 6.66667C7.94772 6.66667 7.5 7.11438 7.5 7.66666L7.5 16.5C7.5 17.0523 7.94772 17.5 8.5 17.5L11.5 17.5Z" fill="black"/>
</svg>
