<svg width="20" height="20" viewBox="0 0 20 20" fill="none" xmlns="http://www.w3.org/2000/svg">
<path fill-rule="evenodd" clip-rule="evenodd" d="M9.99996 3.3335C9.53972 3.3335 9.16663 3.70659 9.16663 4.16683V7.5L10.8333 7.5V4.16683C10.8333 3.70659 10.4602 3.3335 9.99996 3.3335ZM10.8333 12.5H9.16663V15.8335C9.16663 16.2937 9.53972 16.6668 9.99996 16.6668C10.4602 16.6668 10.8333 16.2937 10.8333 15.8335V12.5Z" fill="#636C78"/>
<path fill-rule="evenodd" clip-rule="evenodd" d="M15.3666 8.8L4.63329 8.8L4.63329 11.2L15.3666 11.2L15.3666 8.8ZM16.6666 8.5C16.6666 7.94772 16.2189 7.5 15.6666 7.5L4.33329 7.5C3.78101 7.5 3.33329 7.94771 3.33329 8.5L3.33329 11.5C3.33329 12.0523 3.78101 12.5 4.33329 12.5L15.6666 12.5C16.2189 12.5 16.6666 12.0523 16.6666 11.5L16.6666 8.5Z" fill="black"/>
</svg>
