<svg t="1648680018472" class="icon" viewBox="0 0 1024 1024" version="1.1" xmlns="http://www.w3.org/2000/svg" p-id="2175" width="200" height="200"><path d="M512 469.333333a149.333333 149.333333 0 1 0 0-298.666666 149.333333 149.333333 0 0 0 0 298.666666z m64-149.333333a64 64 0 1 1-128 0 64 64 0 0 1 128 0zM559.701333 506.026667a191.530667 191.530667 0 0 0 77.568-40.533334l269.909334 317.525334a42.666667 42.666667 0 0 1-65.024 55.296l-282.453334-332.288zM386.730667 465.493333a191.488 191.488 0 0 0 77.568 40.533334l-282.453334 332.288a42.666667 42.666667 0 1 1-65.024-55.296l269.909334-317.525334z" p-id="2176"></path></svg>