<svg t="1648680153071" class="icon" viewBox="0 0 1024 1024" version="1.1" xmlns="http://www.w3.org/2000/svg" p-id="2305" width="200" height="200"><path d="M691.2 389.162667a192.341333 192.341333 0 0 1-48.341333 71.338666C752.213333 519.68 832 650.837333 832 810.666667a42.666667 42.666667 0 1 0 85.333333 0c0-181.12-90.197333-343.936-226.133333-421.504z m-310.058667 71.338666a192.298667 192.298667 0 0 1-48.298666-71.338666C196.864 466.773333 106.666667 629.546667 106.666667 810.666667a42.666667 42.666667 0 1 0 85.333333 0c0-159.829333 79.744-290.986667 189.141333-350.165334zM638.250667 341.333333a128.768 128.768 0 0 0 0-42.666666H853.333333v42.666666h-215.082666zM385.706667 341.333333H128V298.666667h257.749333a128.853333 128.853333 0 0 0 0 42.666666z" p-id="2306"></path><path d="M661.333333 320a149.333333 149.333333 0 1 1-298.666666 0 149.333333 149.333333 0 0 1 298.666666 0zM512 384a64 64 0 1 0 0-128 64 64 0 0 0 0 128z" p-id="2307"></path><path d="M810.666667 256m42.666666 0l42.666667 0q42.666667 0 42.666667 42.666667l0 42.666666q0 42.666667-42.666667 42.666667l-42.666667 0q-42.666667 0-42.666666-42.666667l0-42.666666q0-42.666667 42.666666-42.666667Z" p-id="2308"></path><path d="M85.333333 256m42.666667 0l42.666667 0q42.666667 0 42.666666 42.666667l0 42.666666q0 42.666667-42.666666 42.666667l-42.666667 0q-42.666667 0-42.666667-42.666667l0-42.666666q0-42.666667 42.666667-42.666667Z" p-id="2309"></path></svg>