<svg t="1648680171096" class="icon" viewBox="0 0 1024 1024" version="1.1" xmlns="http://www.w3.org/2000/svg" p-id="2438" width="200" height="200"><path d="M278.826667 341.333333a149.333333 149.333333 0 0 0 295.68 0H810.666667a42.666667 42.666667 0 0 0 42.666666 42.666667h42.666667a42.666667 42.666667 0 0 0 42.666667-42.666667V298.666667a42.666667 42.666667 0 0 0-42.666667-42.666667h-42.666667a42.666667 42.666667 0 0 0-42.666666 42.666667h-236.16a149.333333 149.333333 0 0 0-295.68 0H213.333333a42.666667 42.666667 0 0 0-42.666666-42.666667H128a42.666667 42.666667 0 0 0-42.666667 42.666667v42.666666a42.666667 42.666667 0 0 0 42.666667 42.666667h42.666667a42.666667 42.666667 0 0 0 42.666666-42.666667h65.493334zM362.666667 320a64 64 0 1 1 128 0 64 64 0 0 1-128 0z" p-id="2439"></path><path d="M294.442667 459.221333c-27.733333 22.741333-50.602667 56.576-68.48 98.773334-34.261333 80.682667-43.946667 179.498667-34.389334 246.613333a42.666667 42.666667 0 0 1-84.48 12.074667c-11.733333-82.176-0.128-196.693333 40.277334-292.010667 22.101333-52.053333 54.698667-102.144 99.626666-136.789333 10.325333 27.306667 26.709333 51.626667 47.445334 71.338666zM561.152 457.002667a192.085333 192.085333 0 0 0 46.634667-73.088C783.36 453.717333 917.333333 605.44 917.333333 810.666667a42.666667 42.666667 0 1 1-85.333333 0c0-166.826667-113.92-297.258667-270.848-353.664z" p-id="2440"></path></svg>