<svg t="1648680181301" class="icon" viewBox="0 0 1024 1024" version="1.1" xmlns="http://www.w3.org/2000/svg" p-id="2569" width="200" height="200"><path d="M321.493333 341.333333a149.333333 149.333333 0 0 0 283.434667 41.344l222.72 128.554667a42.666667 42.666667 0 0 0 19.968 47.616l36.949333 21.333333a42.666667 42.666667 0 0 0 58.282667-15.616l21.333333-36.949333A42.666667 42.666667 0 0 0 948.565333 469.333333l-36.949333-21.333333a42.666667 42.666667 0 0 0-58.282667 15.616l-5.717333 9.898667L618.666667 341.333333l-2.090667 3.584A149.333333 149.333333 0 0 0 321.493333 298.666667H213.333333a42.666667 42.666667 0 0 0-42.666666-42.666667H128a42.666667 42.666667 0 0 0-42.666667 42.666667v42.666666a42.666667 42.666667 0 0 0 42.666667 42.666667h42.666667a42.666667 42.666667 0 0 0 42.666666-42.666667h108.16zM469.333333 384a64 64 0 1 1 0-128 64 64 0 0 1 0 128z m-159.957333 42.24a192.981333 192.981333 0 0 0 62.037333 58.965333 670.72 670.72 0 0 0-76.586666 82.517334c-32.938667 41.813333-61.525333 87.466667-80.426667 130.432-19.370667 43.989333-26.538667 80.64-22.826667 106.496a42.666667 42.666667 0 1 1-84.48 12.032c-6.954667-48.810667 7.210667-102.826667 29.184-152.874667 22.4-50.986667 55.168-102.698667 91.562667-148.906667A762.624 762.624 0 0 1 309.333333 426.325333z m254.848 60.714667a192.938667 192.938667 0 0 0 64.085333-59.306667 837.973333 837.973333 0 0 1 198.698667 201.301333 770.986667 770.986667 0 0 1 68.096 118.272 559.36 559.36 0 0 1 18.901333 46.549334l0.981334 2.986666 0.298666 0.853334 0.085334 0.298666 0.042666 0.128v0.042667L874.666667 810.666667l40.789333-12.544a42.666667 42.666667 0 0 1-81.578667 25.130666l-0.042666-0.256-0.597334-1.706666a473.173333 473.173333 0 0 0-15.658666-38.442667 686.08 686.08 0 0 0-60.586667-105.130667 753.109333 753.109333 0 0 0-192.768-190.762666z" p-id="2570"></path></svg>