<svg width="20" height="20" viewBox="0 0 20 20" fill="none" xmlns="http://www.w3.org/2000/svg">
<g clip-path="url(#clip0)">
<rect x="16.6666" y="2.5" width="1.66667" height="13.3333" rx="0.833333" transform="rotate(90 16.6666 2.5)" fill="#636C78"/>
<rect x="16.6666" y="15.8335" width="1.66666" height="13.3333" rx="0.833332" transform="rotate(90 16.6666 15.8335)" fill="#636C78"/>
<path fill-rule="evenodd" clip-rule="evenodd" d="M13.7 8.8L6.3 8.8L6.3 11.2L13.7 11.2L13.7 8.8ZM15 8.5C15 7.94772 14.5523 7.5 14 7.5L6 7.5C5.44772 7.5 5 7.94771 5 8.5L5 11.5C5 12.0523 5.44772 12.5 6 12.5L14 12.5C14.5523 12.5 15 12.0523 15 11.5L15 8.5Z" fill="black"/>
</g>
<defs>
<clipPath id="clip0">
<rect width="20" height="20" fill="white" transform="translate(20) rotate(90)"/>
</clipPath>
</defs>
</svg>
