<svg width="24" height="24" viewBox="0 0 24 24" xmlns="http://www.w3.org/2000/svg">
<path d="M10.1176 12.0357L11.1175 12.0524L11.1345 11.0357H10.1176V12.0357ZM15.0588 7.71429L14.1294 7.34529L13.5859 8.71429H15.0588V7.71429ZM16.9305 3L17.8599 3.369L18.4034 2H16.9305V3ZM19.3949 8.51559L18.5969 7.91299L19.3949 8.51559ZM9.97816 20.3864L10.978 20.4031L9.97816 20.3864ZM10.3377 20.5102L11.1358 21.1128L10.3377 20.5102ZM6.18538 11.3965L5.22495 11.1179L6.18538 11.3965ZM8.57848 3.1443L7.61805 2.86577L8.57848 3.1443ZM7.61805 2.86577L5.22495 11.1179L7.14581 11.675L9.53891 3.42282L7.61805 2.86577ZM6.6656 13.0357H10.1176V11.0357H6.6656V13.0357ZM9.11779 12.019L8.9783 20.3697L10.978 20.4031L11.1175 12.0524L9.11779 12.019ZM11.1358 21.1128L20.193 9.11819L18.5969 7.91299L9.5397 19.9076L11.1358 21.1128ZM18.9959 6.71429H15.0588V8.71429H18.9959V6.71429ZM15.9883 8.08329L17.8599 3.369L16.0011 2.631L14.1294 7.34529L15.9883 8.08329ZM12.7754 2H8.77056V4H12.7754V2ZM16.9305 2H12.7754V4H16.9305V2ZM20.193 9.11819C20.9392 8.12997 20.2342 6.71429 18.9959 6.71429V8.71429C18.5831 8.71429 18.3482 8.24239 18.5969 7.91299L20.193 9.11819ZM8.9783 20.3697C8.95891 21.5309 10.4359 22.0397 11.1358 21.1128L9.5397 19.9076C10.0063 19.2897 10.991 19.6289 10.978 20.4031L8.9783 20.3697ZM5.22495 11.1179C4.9467 12.0774 5.66656 13.0357 6.6656 13.0357V11.0357C6.99861 11.0357 7.23856 11.3551 7.14581 11.675L5.22495 11.1179ZM9.53891 3.42282C9.43975 3.76474 9.12657 4 8.77056 4V2C8.23655 2 7.76678 2.35289 7.61805 2.86577L9.53891 3.42282Z"/>
</svg>
