<svg class="icon" viewBox="0 0 1024 1024" xmlns="http://www.w3.org/2000/svg" width="200" height="200"><defs><style/></defs><path d="M896 128a42.667 42.667 0 0 1 42.667 42.667v682.666A42.667 42.667 0 0 1 896 896H128a42.667 42.667 0 0 1-42.667-42.667V170.667A42.667 42.667 0 0 1 128 128zm-42.667 256H170.667v426.667h682.666V384z" fill="#777D84"/><path d="M405.333 384l-.042 181.29h213.205V384h64v181.29h170.837v64H682.496v181.377h-64V629.29H405.291l.042 181.376h-64l-.042-181.376H170.667v-64H341.29l.043-181.29h64z" fill="#BFC2C6"/></svg>