<svg width="28" height="28"><path d="M11 16c1.83 0 3.575.262 5.166.737.719.214 1.63.6 2.736 1.16A2 2 0 0 1 20 19.682V23H2v-3.318a2 2 0 0 1 1.097-1.785c1.106-.56 2.018-.946 2.737-1.16A18.106 18.106 0 0 1 11 16zm9.054.25c.728.12 1.434.284 2.112.487.719.214 1.63.6 2.736 1.16A2 2 0 0 1 26 19.682V23h-4.001L22 19.681a4 4 0 0 0-1.946-3.433zM11 18a16.11 16.11 0 0 0-4.594.653c-.53.158-1.238.452-2.11.88l-.296.15V21h13.999L18 19.682c-1.009-.51-1.818-.853-2.406-1.029A16.11 16.11 0 0 0 11 18zm0-12a4 4 0 0 1 3.477 2.02c.01.022.023.043.034.065a4.016 4.016 0 0 1 .4 2.76c-.006.02-.01.042-.015.064-.082.355-.212.69-.38 1.001l-.033.057c-.02.037-.041.073-.063.11l-.045.07A4 4 0 1 1 11 6zm6 0a4 4 0 1 1-1.125 7.84C16.583 12.667 17 11.305 17 10c0-1.43-.5-2.742-1.333-3.772A3.996 3.996 0 0 1 17 6zm-6 2a2 2 0 1 0 0 4 2 2 0 0 0 0-4z" fill="#646B76" fill-rule="evenodd"/></svg>