<svg xmlns="http://www.w3.org/2000/svg" xmlns:xlink="http://www.w3.org/1999/xlink" width="28px" height="28px" viewBox="0 0 28 28" version="1.1">
    <g stroke="none" stroke-width="1" fill-rule="evenodd">
        <g transform="translate(-18.000000, -581.000000)" fill-rule="nonzero">
            <g id="nav_left" transform="translate(0.000000, 57.000000)">
                <g id="icons">
                    <g transform="translate(0.000000, 452.000000)" id="Icon/Menu/Shared-Library---Surface">
                        <g transform="translate(18.000000, 72.000000)">
                            <path d="M9.58363137,3.3230818 L23.5069379,4.78648029 C24.6054565,4.90193924 25.4023837,5.88606245 25.2869248,6.98458101 L23.6144694,22.8969313 C23.4990104,23.9954499 22.5148872,24.7923771 21.4163686,24.6769182 L7.4930621,23.2135197 C6.39454355,23.0980608 5.59761628,22.1139375 5.71307524,21.015419 L7.38553065,5.10306867 C7.5009896,4.00455012 8.48511281,3.20762285 9.58363137,3.3230818 Z M9.37457444,5.31212559 L7.70211903,21.2244759 L21.6254256,22.6878744 L23.297881,6.77552408 L9.37457444,5.31212559 Z M6.11045534,2.9988583 C5.72571383,3.54069079 5.47089831,4.18603405 5.39648686,4.89401174 L5.385,4.9998583 L4.5,5 L4.5,13.4208583 L3.72403144,20.8063621 C3.68645221,21.1639046 3.69719992,21.5153878 3.7510096,21.8543102 C3.01752184,21.5585932 2.5,20.8397334 2.5,20 L2.5,5 C2.5,3.8954305 3.3954305,3 4.5,3 L6.11045534,2.9988583 Z M17.0997803,13.0555109 L19.088824,13.2645679 L18.4616533,19.2316992 L16.4726095,19.0226423 L17.0997803,13.0555109 Z M12.5452846,8.55478105 L14.5343284,8.76383797 L13.4890438,18.7090569 L11.5,18.5 L12.5452846,8.55478105 Z" id="形状结合"/>
                        </g>
                    </g>
                </g>
            </g>
        </g>
    </g>
</svg>