<svg width="28" height="28"><g fill="none" fill-rule="evenodd"><path d="M11 16c1.83 0 3.575.262 5.166.737.719.214 1.63.6 2.736 1.16A2 2 0 0 1 20 19.682V23H2v-3.318a2 2 0 0 1 1.097-1.785c1.106-.56 2.018-.946 2.737-1.16A18.106 18.106 0 0 1 11 16zm0-10a4 4 0 1 1 0 8 4 4 0 0 1 0-8z" fill="#2354F4"/><path d="M22.166 16.737c.719.214 1.63.6 2.736 1.16A2 2 0 0 1 26 19.682V23h-4.001L22 19.681a4 4 0 0 0-1.946-3.433c.728.122 1.434.285 2.112.488zM17 6a4 4 0 1 1-1.334 7.772A5.976 5.976 0 0 0 16.999 10c0-1.43-.5-2.742-1.333-3.772A3.996 3.996 0 0 1 17 6z" fill="#4AB3FF"/></g></svg>