<svg width="24" height="24" viewBox="0 0 24 24" xmlns="http://www.w3.org/2000/svg">
<path fill-rule="evenodd" clip-rule="evenodd" d="M8.75819 13.0523C8.45264 13.4342 8.72457 14 9.2137 14H11V20.5008H13V14H14.7863C15.2754 14 15.5474 13.4342 15.2418 13.0523L12.4555 9.56938C12.222 9.27748 11.778 9.27748 11.5445 9.56938L8.75819 13.0523Z" />
<path d="M16.3853 8.886L16.5522 10.2864L17.9274 10.5995C19.6871 11 21 12.578 21 14.4583C21 16.5912 19.3124 18.3307 17.2008 18.4136L17.0241 18.4167H16V20.4167H17.0417L17.2554 20.4129C20.4471 20.3004 23 17.6775 23 14.4583C23 11.6244 21.0216 9.2526 18.3713 8.64934C17.9921 5.46726 15.2842 3 12 3C8.71584 3 6.00794 5.46726 5.62946 8.64874C2.97844 9.2526 1 11.6244 1 14.4583C1 17.749 3.66764 20.4167 6.95833 20.4167H8V18.4167H6.95833C4.77221 18.4167 3 16.6445 3 14.4583C3 12.5782 4.31277 10.9999 6.07365 10.5988L7.44884 10.2855L7.61546 8.885C7.87563 6.69795 9.74072 5 12 5C14.2591 5 16.1246 6.69782 16.3853 8.886Z"/>
</svg>
