<svg width="24" height="24" viewBox="0 0 24 24"  xmlns="http://www.w3.org/2000/svg">
<path d="M3.49669 15.0007L9.99985 3.94531L13.5977 10.0617C14.2036 9.75768 14.8682 9.55328 15.57 9.46993L11.7237 2.93127C10.9504 1.61666 9.04929 1.61666 8.27598 2.93127L1.77282 13.9867C0.988544 15.3199 1.94986 17.0007 3.49669 17.0007L10.4938 17.0007C10.358 16.4994 10.2856 15.9721 10.2856 15.4277C10.2856 15.2842 10.2906 15.1417 10.3005 15.0007L3.49669 15.0007Z"/>
<path fill-rule="evenodd" clip-rule="evenodd" d="M11.9999 15.5C11.9999 17.9862 14.0137 20 16.4999 20C18.986 20 20.9999 17.9862 20.9999 15.5C20.9999 13.0138 18.986 11 16.4999 11C14.0137 11 11.9999 13.0138 11.9999 15.5ZM9.99988 15.5C9.99988 19.0907 12.9091 22 16.4999 22C20.0906 22 22.9999 19.0907 22.9999 15.5C22.9999 11.9093 20.0906 9 16.4999 9C12.9091 9 9.99988 11.9093 9.99988 15.5Z"/>
</svg>
