<svg class="icon" viewBox="0 0 1843 1024" xmlns="http://www.w3.org/2000/svg" width="359.961" height="200"><defs><style/></defs><path d="M525.107 0H1331.2c282.778 0 512 229.222 512 512s-229.222 512-512 512H0V525.107c0-182.63 18.995-248.832 54.733-315.545a372.224 372.224 0 0 1 154.829-154.83C276.275 18.945 342.477 0 525.107 0z" fill="#FFF"/><path d="M576.307 51.2H1331.2a460.8 460.8 0 0 1 0 921.6H51.2V576.307c0-182.63 18.995-248.832 54.733-315.545a372.224 372.224 0 0 1 154.829-154.83C327.475 70.145 393.677 51.2 576.307 51.2z" fill="#E54937"/><path d="M790.528 533.094v51.61c-17.203 38.093-46.08 71.885-86.016 100.762 36.557 15.616 78.336 29.286 126.003 41.113l20.839 4.967-35.021 53.452c-68.199-17.203-125.338-38.707-170.803-63.283-45.876 22.938-100.506 41.984-163.84 57.14l-24.167 5.529-31.334-55.91c62.669-11.06 116.736-25.805 160.973-44.237-32.768-25.088-57.754-53.658-74.548-84.685l-5.939-11.776h-38.707v-54.682h322.56zm-167.731-326.86c4.608 10.598 9.216 22.22 13.824 34.918l4.608 13.005h188.006v60.211h-388.3v149.3c-2.919 124.774-30.465 225.945-82.689 303.615l-9.472 13.415-49.152-43.623c36.864-49.152 60.826-113.05 71.27-190.464-17.51 14.285-35.327 27.853-54.066 41.063l-19.047 13.004-18.432-62.054a707.328 707.328 0 0 0 79.002-49.562l18.073-13.721.615-11.674v-39.321l-50.995 22.118a774.86 774.86 0 0 0-41.575-103.731l-7.577-14.848 54.067-22.733c12.902 26.266 24.78 53.555 35.584 81.92l10.496 28.672V254.157h199.68a413.645 413.645 0 0 0-12.493-25.395l-6.554-11.47 65.127-11.058zm802.406 271.564v239.616c0 36.864-18.38 56.986-54.579 59.392l-7.475.205h-45.466l-15.974-56.525 43.008 3.072c11.264 0 17.92-5.17 19.353-15.104l.308-4.556V684.85h-176.333v94.618h-60.211v-301.67h297.37zm-116.121-265.42v34.406h135.168v51.61h-135.168v27.033h114.278v50.381h-114.278v25.805h152.985v52.838h-372.94v-20.89l-32.564 7.988a979.712 979.712 0 0 0-20.07-69.53l-7.578-22.016V778.24h-62.669V214.22h62.67v115.508l37.478-12.288c8.345 20.173 16.332 42.291 23.91 66.048l5.58 18.125h149.3v-25.805h-116.122v-50.38h116.122v-27.034h-137.011v-51.61h137.011v-34.406h63.898zM723.558 587.776H567.501c18.432 25.19 44.851 47.923 78.029 67.584 33.177-19.66 59.596-42.394 78.028-67.584zm640.82 20.275h-176.333v28.877h176.333v-28.877zm0-78.643h-176.333v30.72h176.333v-30.72zM746.906 343.245v90.317c0 11.264 4.71 17.92 14.54 19.353l4.506.307h62.669v54.682h-79.258c-39.168 0-59.955-18.38-62.464-54.067l-.205-7.373v-49.152H586.547l-.358 11.315c-3.226 46.541-28.98 83.61-76.903 111.309l-10.598 5.786-41.78-46.695c43.009-16.077 66.202-39.065 69.12-68.045l.308-6.297v-61.44h220.57zm159.744-9.83l47.923 3.686a930.304 930.304 0 0 1-19.661 174.49l-47.923-13.517c11.673-52.224 18.432-106.906 19.66-164.66z" fill="#FFF"/></svg>