<svg width="24" height="24" viewBox="0 0 24 24" xmlns="http://www.w3.org/2000/svg">
<path fill-rule="evenodd" clip-rule="evenodd" d="M15.2743 3.88282C15.6238 4.31044 15.5605 4.94043 15.1329 5.28994L4.13288 14.2806C3.70526 14.6301 3.07527 14.5668 2.72576 14.1391C2.37625 13.7115 2.43957 13.0815 2.86719 12.732L13.8672 3.74138C14.2948 3.39187 14.9248 3.4552 15.2743 3.88282Z" />
<path fill-rule="evenodd" clip-rule="evenodd" d="M21.2812 10.8841C21.626 11.3155 21.5558 11.9448 21.1243 12.2895L11.1243 20.2812C10.6929 20.626 10.0636 20.5558 9.71885 20.1243C9.37406 19.6929 9.4443 19.0636 9.87574 18.7189L19.8757 10.7272C20.3072 10.3824 20.9364 10.4526 21.2812 10.8841Z" />
<path fill-rule="evenodd" clip-rule="evenodd" d="M21.2785 16.4798C21.6233 16.9112 21.5531 17.5405 21.1217 17.8853L18.1236 20.2812C17.6922 20.626 17.0629 20.5558 16.7181 20.1243C16.3733 19.6929 16.4436 19.0636 16.875 18.7189L19.8731 16.3229C20.3045 15.9781 20.9337 16.0484 21.2785 16.4798Z" />
<path fill-rule="evenodd" clip-rule="evenodd" d="M8.04939 3.87574C8.39418 4.30718 8.32394 4.93643 7.8925 5.28122L4.12434 8.29262C3.6929 8.63741 3.06364 8.56717 2.71885 8.13573C2.37406 7.70429 2.4443 7.07504 2.87574 6.73024L6.6439 3.71885C7.07534 3.37406 7.7046 3.4443 8.04939 3.87574Z" />
<path fill-rule="evenodd" clip-rule="evenodd" d="M21.2723 4.87929C21.6232 5.3058 21.5619 5.93599 21.1353 6.28686L4.13535 20.2723C3.70885 20.6232 3.07866 20.5619 2.72778 20.1353C2.37691 19.7088 2.43822 19.0787 2.86472 18.7278L19.8647 4.74235C20.2912 4.39148 20.9214 4.45279 21.2723 4.87929Z" />
</svg>
