<svg width="18" height="18" viewBox="0 0 18 18" xmlns="http://www.w3.org/2000/svg">
<path fill-rule="evenodd" clip-rule="evenodd" d="M6.62878 4.64711C5.80035 6.08199 6.29198 7.91676 7.72685 8.74519C9.16173 9.57362 10.9965 9.08199 11.8249 7.64711C12.6534 6.21224 12.1617 4.37746 10.7269 3.54904C9.29198 2.72061 7.45721 3.21224 6.62878 4.64711ZM5.32974 3.89711C4.0871 6.04943 4.82454 8.80159 6.97685 10.0442C9.12917 11.2869 11.8813 10.5494 13.124 8.39711C14.3666 6.2448 13.6292 3.49264 11.4769 2.25C9.32454 1.00736 6.57238 1.7448 5.32974 3.89711Z" />
<path d="M9.36131 10.6457C9.04574 11.9114 9.58733 13.2836 10.7733 13.9683C12.2082 14.7967 14.043 14.3051 14.8714 12.8702C15.6998 11.4354 15.2082 9.60058 13.7733 8.77216C13.5487 8.6425 13.3144 8.54518 13.0756 8.47875C13.0919 8.45176 13.1081 8.42456 13.124 8.39711C13.3674 7.97541 13.5348 7.53066 13.6305 7.07877C13.9355 7.17555 14.2348 7.30654 14.5233 7.47312C16.6756 8.71576 17.4131 11.4679 16.1704 13.6202C14.9278 15.7725 12.1756 16.51 10.0233 15.2673C8.29269 14.2682 7.47683 12.2931 7.86956 10.4385C8.35914 10.5939 8.86339 10.6611 9.36131 10.6457Z" />
<path d="M5.37029 8.4681C5.10959 8.03406 4.92479 7.56011 4.82176 7.06816C3.80661 7.40135 2.90573 8.09519 2.32947 9.0933C1.08683 11.2456 1.82426 13.9978 3.97658 15.2404C5.70718 16.2396 7.82557 15.9586 9.23526 14.6913C8.85595 14.3449 8.54565 13.9418 8.31001 13.5029C7.37169 14.409 5.91254 14.6261 4.72658 13.9414C3.2917 13.113 2.80008 11.2782 3.6285 9.8433C4.0278 9.15171 4.66088 8.67924 5.37029 8.4681Z" />
</svg>
