<svg width="18" height="18" viewBox="0 0 18 18" xmlns="http://www.w3.org/2000/svg">
<path fill-rule="evenodd" clip-rule="evenodd" d="M6.375 11.0625C8.96383 11.0625 11.0625 8.96383 11.0625 6.375C11.0625 3.78617 8.96383 1.6875 6.375 1.6875C3.78617 1.6875 1.6875 3.78617 1.6875 6.375C1.6875 8.96383 3.78617 11.0625 6.375 11.0625ZM12.75 6.375C12.75 9.89581 9.89581 12.75 6.375 12.75C2.85418 12.75 0 9.89581 0 6.375C0 2.85418 2.85418 0 6.375 0C9.89581 0 12.75 2.85418 12.75 6.375Z" />
<path fill-rule="evenodd" clip-rule="evenodd" d="M11.6723 16.1255C12.121 16.1214 12.5582 16.05 12.9724 15.9198L13.4889 16.9335C12.8611 17.1545 12.1874 17.2661 11.4944 17.249L11.6723 16.1255ZM16.2535 14.8246C15.8653 15.3853 15.3796 15.8678 14.825 16.2515L14.3085 15.2378C14.6609 14.9762 14.9753 14.6633 15.2395 14.308L16.2535 14.8246ZM16.9342 13.488L15.9202 12.9713C15.9848 12.7641 16.0353 12.5497 16.0702 12.329C16.1052 12.1082 16.1235 11.8886 16.126 11.6715L17.2501 11.4935C17.2575 11.8263 17.2354 12.1644 17.1814 12.5049C17.1275 12.8453 17.0441 13.1737 16.9342 13.488ZM17.0158 10.0118L15.8916 10.1899C15.7501 9.77027 15.5477 9.37549 15.2934 9.01778L16.0979 8.21322C16.5069 8.74953 16.8198 9.35853 17.0158 10.0118ZM15.038 7.15181L14.2334 7.95644C13.8798 7.70467 13.4861 7.50178 13.0607 7.35924L13.2387 6.23547C13.9031 6.4334 14.5093 6.74771 15.038 7.15181ZM6.2356 13.238L7.3596 13.06C7.50114 13.4796 7.70349 13.8744 7.95777 14.2321L7.15335 15.0365C6.74439 14.5002 6.4316 13.8913 6.2356 13.238ZM10.1908 15.8909L10.0128 17.0144C9.34835 16.8165 8.74204 16.5021 8.21323 16.0979L9.01769 15.2935C9.37141 15.5453 9.76521 15.7483 10.1908 15.8909Z" />
</svg>
