<svg width="28" height="28"><path d="M14 4c2.026 0 3.245.931 5.208.931 1.964 0 5.362-1.312 6.417.531 1.054 1.843-.475 3.034-.475 4.507 0 1.493.742 2.844.742 4.031.004 1.187-.738 2.538-.738 4.03 0 1.474 1.53 2.665.475 4.508-1.054 1.843-4.453.53-6.416.53-1.813 0-2.99.794-4.753.916L14 24c-2.025 0-3.249-.931-5.213-.931-1.963 0-5.362 1.312-6.416-.531-1.055-1.843.475-3.034.475-4.507 0-1.493-.742-2.844-.742-4.031H5v7h18V7H5v6.999L2.11 14c0-1.187.741-2.538.741-4.03 0-1.474-1.529-2.665-.475-4.508 1.055-1.843 4.453-.53 6.417-.53C10.757 4.931 11.976 4 14 4zm4 7v6h-8v-6h8z"/></svg>