<svg width="20" height="20" xmlns="http://www.w3.org/2000/svg"><g fill-rule="evenodd"><path d="M3.641 15.384C3.498 18.042 1.3 18.683.655 18.867c-.645.184 9.442.8 8.974-3.545l-3.514-3.259s-2.33.663-2.474 3.32zm7.11-.83c-.253.26-.755.183-1.122-.173L7.2 12.063c-.367-.356-.543-.79-.207-1.115.336-.326.636-.26 1.121.174l2.429 2.317c.46.44.46.856.207 1.116zm8.295-13.266c-.536-.5-1.123-.28-1.584.074-.83.646-5.87 5.532-8.238 7.978-.754.775-.723 1.084.566 2.357 1.191 1.177 1.618 1.285 2.321.592.992-.993 5.216-6.886 6.78-9.13.525-.755.69-1.371.155-1.871z" fill-rule="nonzero"/><path d="M12.42 15.864h5v1.25h-5z"/><path d="M14.295 18.989v-5h1.25v5z"/></g></svg>