<svg width="28" height="28" xmlns="http://www.w3.org/2000/svg" xmlns:xlink="http://www.w3.org/1999/xlink"><defs><path id="prefix__a" d="M0 0h28v28H0z"/></defs><g fill="none" fill-rule="evenodd"><mask id="prefix__b" fill="#fff"><use xlink:href="#prefix__a"/></mask><path d="M14 3a6.5 6.5 0 016.264 8.243A6.502 6.502 0 0118.5 24a6.478 6.478 0 01-4.5-1.81 6.5 6.5 0 11-6.262-10.949A6.5 6.5 0 0114 3zM9.5 13l-.191.004a4.5 4.5 0 103.413 7.639l.054-.06a6.481 6.481 0 01-.06-.113l-.007-.014a6.518 6.518 0 01-.431-1.07l-.018-.06-.008-.026a6.451 6.451 0 01-.066-.25l-.013-.055a5.974 5.974 0 01-.05-.227l-.013-.071a6.422 6.422 0 01-.103-.885l.018.266a6.552 6.552 0 01-.015-.212l-.003-.054-.001-.037a6.613 6.613 0 01.202-1.91 6.226 6.226 0 01.315-.923c.057-.134.12-.267.186-.397l.013-.027.052-.102-.053-.059a4.486 4.486 0 00-2.732-1.33l-.243-.02L9.5 13zm9.918.093a6.512 6.512 0 01-.053.077l-.072.104a6.52 6.52 0 01-.208.276l-.071.087c-.033.04-.066.08-.1.118l-.057.065a6.895 6.895 0 01-.52.523l-.077.067c-.099.086-.2.169-.303.248l-.053.04a6.7 6.7 0 01-.777.502l-.056.03c-.226.122-.46.23-.701.324l-.02.008a5.148 5.148 0 01-.206.076l-.063.02c-.07.025-.142.048-.214.07l-.02.005c-.169.05-.34.094-.515.13l-.039.008c-.065.013-.13.026-.196.037l-.089.014a5.507 5.507 0 01-.5.058l.265-.025a6.523 6.523 0 01-.205.02l-.06.005-.027.002-.149.01-.074.003-.024.067a4.46 4.46 0 00-.084.279l.035-.122a4.465 4.465 0 00-.066.25l.031-.128c-.02.075-.038.15-.054.227l.023-.1a4.48 4.48 0 00-.052.255l.03-.155a4.48 4.48 0 00-.047.257l.017-.102a4.514 4.514 0 00-.054.43l-.005.076-.002.057L14 17.5a4.562 4.562 0 00.034.556l-.01-.092c.007.077.017.154.029.23l-.019-.138c.01.077.021.154.034.23l-.015-.092a4.467 4.467 0 00.223.861l-.039-.109c.024.072.05.143.079.214l-.04-.105c.025.068.052.136.08.202l-.04-.097c.029.073.06.145.092.216l-.052-.119c.03.071.062.142.096.211l-.044-.092c.021.046.043.092.066.137l-.022-.045a4.487 4.487 0 00.211.385l-.08-.137a4.5 4.5 0 104.865-6.616zM14 5a4.5 4.5 0 00-4.303 5.82l.062.185c.185.008.362.022.537.043l.106.015c.24.033.475.08.707.138l.05.014c.073.018.145.039.217.06l.027.01c.067.02.134.04.2.063l.086.03c.145.052.288.11.429.171l.071.033c.048.02.096.043.143.066l.1.05c.049.024.098.05.146.076l.083.045a6.265 6.265 0 011.072.748 6.272 6.272 0 01.376.349l-.065-.064a6.521 6.521 0 01.773.909l.102.145a4.5 4.5 0 00.205-.048l-.036.01c.069-.018.137-.036.205-.057l-.169.047c.071-.018.141-.038.21-.06l-.04.013c.065-.02.13-.04.196-.063l-.155.05c.08-.024.157-.05.235-.08l-.08.03c.062-.022.124-.046.186-.07l-.106.04c.065-.024.13-.05.193-.076l-.087.036c.064-.026.128-.053.19-.082l-.103.046c.08-.035.159-.07.236-.11l-.132.064a4.5 4.5 0 00.153-.073l-.021.01c.061-.03.121-.062.18-.095l-.159.085a4.5 4.5 0 00.188-.1l-.029.015a4.5 4.5 0 002.316-3.726L18.5 9.5A4.5 4.5 0 0014 5z" fill="#646B76" fill-rule="nonzero" mask="url(#prefix__b)"/></g></svg>