<svg width="28" height="28" xmlns="http://www.w3.org/2000/svg"><path d="M17.836 3.94l.061.067 6.094 7.972a8.145 8.145 0 0 1-1.415 11.336 8.17 8.17 0 0 1-11.154-.942l.002.002A6.165 6.165 0 0 1 2 17.148a6.15 6.15 0 0 1 1.095-3.502l.17-.234L7.77 7.52a.5.5 0 0 1 .734-.067l.06.067 2.927 3.828-.48.631a8.164 8.164 0 0 0-.199.27l.198-.27 6.094-7.972a.5.5 0 0 1 .733-.066zM17.5 6.78l-4.902 6.414a6.147 6.147 0 0 0-1.265 3.733c0 3.395 2.76 6.156 6.167 6.156a6.17 6.17 0 0 0 3.833-1.335 6.145 6.145 0 0 0 1.217-8.352l-.148-.202L17.5 6.78zm-9.334 3.513l-3.312 4.334A4.152 4.152 0 0 0 4 17.148a4.165 4.165 0 0 0 6.277 3.585l-.055-.105a8.143 8.143 0 0 1 .067-7.527l.01-.018-2.133-2.79z" fill="#33383E" fill-rule="nonzero"/></svg>