<svg width="24" height="23" viewBox="0 0 24 23" xmlns="http://www.w3.org/2000/svg">
<path fill-rule="evenodd" clip-rule="evenodd" d="M12 2.15863L5.16303 5.96348L12 9.38197L18.837 5.96348L12 2.15863ZM4 15.3893V7.61803L11 11.118V19.2849L4 15.3893ZM13 19.2849L20 15.3893V7.61803L13 11.118V19.2849ZM21.528 5.17224L12.439 0.114099C12.1656 -0.038033 11.8344 -0.038033 11.561 0.114099L2.47196 5.17224C2.18086 5.33424 2 5.64374 2 5.9799V16.0201C2 16.3563 2.18086 16.6658 2.47196 16.8278L11.561 21.8859C11.8344 22.038 12.1656 22.038 12.439 21.8859L21.528 16.8278C21.8191 16.6658 22 16.3563 22 16.0201V5.9799C22 5.64374 21.8191 5.33424 21.528 5.17224Z"/>
</svg>
