<svg class="icon" viewBox="0 0 1843 1024" xmlns="http://www.w3.org/2000/svg" width="359.961" height="200"><defs><style/></defs><path d="M525.107 0H1331.2c282.778 0 512 229.222 512 512s-229.222 512-512 512H0V525.107c0-182.63 18.995-248.832 54.733-315.545a372.224 372.224 0 0 1 154.829-154.83C276.275 18.945 342.477 0 525.107 0z" fill="#FFF"/><path d="M576.307 51.2H1331.2a460.8 460.8 0 0 1 0 921.6H51.2V576.307c0-182.63 18.995-248.832 54.733-315.545a372.224 372.224 0 0 1 154.829-154.83C327.475 70.145 393.677 51.2 576.307 51.2z" fill="#E54937"/></svg>