<svg width="20" height="20" viewBox="0 0 20 20" fill="none" xmlns="http://www.w3.org/2000/svg">
<rect x="5" y="5.83331" width="10" height="1.66667" fill="black"/>
<rect x="5" y="9.16669" width="5.83333" height="1.66667" fill="black"/>
<path fill-rule="evenodd" clip-rule="evenodd" d="M2.50002 14.1667L7.5 14.1667L8.75002 14.1667H11.25L12.5 14.1667L17.5 14.1667C17.9603 14.1667 18.3334 13.7936 18.3334 13.3333V3.33333C18.3334 2.8731 17.9603 2.5 17.5 2.5H2.50002C2.03978 2.5 1.66669 2.8731 1.66669 3.33333V13.3333C1.66669 13.7936 2.03978 14.1667 2.50002 14.1667ZM12.5 15.8333L11.25 15.8333H8.75002L7.5 15.8333L6.66669 15.8333V17.5H13.3334V15.8333L12.5 15.8333ZM3.33335 12.5V4.16667H16.6667V12.5H3.33335Z" fill="black"/>
</svg>
