<svg width="20" height="20" viewBox="0 0 20 20" fill="none" xmlns="http://www.w3.org/2000/svg">
<path fill-rule="evenodd" clip-rule="evenodd" d="M8.33337 5.83331L11.6667 8.33331L8.33337 10.8333V5.83331Z" fill="black"/>
<path fill-rule="evenodd" clip-rule="evenodd" d="M2.49996 14.1667L7.49994 14.1667L8.74996 14.1667H11.25L12.4999 14.1667L17.5 14.1667C17.9602 14.1667 18.3333 13.7936 18.3333 13.3333V3.33333C18.3333 2.8731 17.9602 2.5 17.5 2.5H2.49996C2.03972 2.5 1.66663 2.8731 1.66663 3.33333V13.3333C1.66663 13.7936 2.03972 14.1667 2.49996 14.1667ZM12.4999 15.8333L11.25 15.8333H8.74996L7.49994 15.8333L6.66663 15.8333V17.5H13.3333V15.8333L12.4999 15.8333ZM3.33329 12.5V4.16667H16.6666V12.5H3.33329Z" fill="black"/>
</svg>
