<svg width="18" height="18" xmlns="http://www.w3.org/2000/svg" xmlns:xlink="http://www.w3.org/1999/xlink"><defs><path id="prefix__a" d="M0 0h24v24H0z"/></defs><g transform="translate(-3 -3)" fill="none" fill-rule="evenodd"><mask id="prefix__b" fill="#fff"><use xlink:href="#prefix__a"/></mask><g mask="url(#prefix__b)"><path d="M0 0h24v24H0z"/><path d="M14.98 9.94L5.92 19H5v-.92l9.06-9.06.92.92zM17.66 3c-.25 0-.51.1-.7.29l-1.83 1.83 3.75 3.75 1.83-1.83a.996.996 0 000-1.41l-2.34-2.34c-.2-.2-.45-.29-.71-.29zm-3.6 3.19L3 17.25V21h3.75L17.81 9.94l-3.75-3.75z" fill="#000" fill-rule="nonzero"/><path fill="#000" d="M11 19h10v2H9z"/></g></g></svg>