<svg width="28" height="28" xmlns="http://www.w3.org/2000/svg"><path d="M6.222 14.707l1.413 1.414-2.413 2.415a3 3 0 0 0 4.114 4.363l.128-.12 2.414-2.416 1.415 1.415-2.414 2.414a5 5 0 1 1-7.071-7.07l2.414-2.415zm10.9-10.9a5 5 0 0 1 7.07 7.072l-2.414 2.414-1.415-1.415 2.415-2.414a3 3 0 0 0-4.114-4.363l-.128.12-2.416 2.414-1.413-1.413 2.414-2.414zM14 6.93L21.071 14 14 21.071 6.929 14 14 6.929zm-.707 9.364a1 1 0 1 0 1.414 1.414 1 1 0 0 0-1.414-1.414zm3-3a1 1 0 1 0 1.414 1.414 1 1 0 0 0-1.414-1.414zm-6 0a1 1 0 1 0 1.414 1.414 1 1 0 0 0-1.414-1.414zm3-3a1 1 0 1 0 1.414 1.414 1 1 0 0 0-1.414-1.414z" fill="#33383E" fill-rule="nonzero"/></svg>