<?xml version="1.0" encoding="utf-8"?>
<!-- Generator: Adobe Illustrator 21.0.0, SVG Export Plug-In . SVG Version: 6.00 Build 0)  -->
<svg version="1.1" id="图层_1" xmlns="http://www.w3.org/2000/svg" xmlns:xlink="http://www.w3.org/1999/xlink" x="0px" y="0px"
	 viewBox="0 0 24 24" style="enable-background:new 0 0 24 24;" xml:space="preserve">
<style type="text/css">
	.st0{fill-rule:evenodd;clip-rule:evenodd;}
</style>
<path class="st0" d="M15,19.8c0-1.8,0-3.7,0-5.5c0.5,0,1,0,1.5,0c0.1,0,0.2-0.1,0.2-0.2c0-0.3,0.1-0.7,0.1-1c0-0.3,0-0.5,0.1-0.8
	c0-0.2,0-0.3-0.2-0.3c-0.5,0-0.9,0-1.4,0c-0.1,0-0.2,0-0.3,0c0-0.5,0-0.9,0-1.4c0,0,0-0.1,0-0.1c0.1-0.3,0.3-0.4,0.6-0.4
	c0.3,0,0.7,0,1,0c0.2,0,0.2,0,0.2-0.2c0-0.6,0-1.2,0-1.8c0-0.2,0-0.2-0.2-0.2c-0.3,0-0.6,0-1,0c-0.5,0-0.9,0-1.4,0.1
	c-0.1,0-0.2,0-0.4,0.1c-0.2,0.1-0.4,0.1-0.6,0.3c-0.3,0.2-0.5,0.4-0.7,0.7c-0.2,0.3-0.3,0.6-0.3,0.9c-0.1,0.3,0,0.7,0,1
	c0,0.3,0,0.7,0,1c-0.4,0-0.8,0-1.1,0c0,0-0.1,0-0.1,0.1c-0.1,0.1,0,0.2,0,0.4c0,0.6,0,1.1,0,1.7c0,0,0.1,0.1,0.1,0.1
	c0.3,0,0.6,0,0.9,0c0.2,0,0.3,0,0.3,0.3c0,1.9,0,3.8,0,5.7c0,0,0,0,0,0.1c-0.1,0-0.2,0-0.3,0c-4.6,0-8.4-3.8-8.4-8.4S7.4,3.6,12,3.6
	s8.4,3.8,8.4,8.4C20.4,15.6,18.2,18.6,15,19.8z"/>
</svg>
