<svg width="28" height="28" xmlns="http://www.w3.org/2000/svg"><path d="M3.694 6.38l.953-.273c9.859-2.775 15.265-3.038 16.655-.224.841 1.703-.205 3.425-2.604 5.58l-.236.21c-.457.402-.954.814-1.534 1.273l-.682.534-2.212 1.696c-.4.31-.714.562-.988.79l-.292.248-.185.163.272-.016c.46-.033.965-.095 1.733-.209l2.724-.424c1.004-.15 1.597-.217 2.221-.25 1.578-.08 2.541.133 2.894 1.205.328.996-.128 1.905-1.076 2.927-.24.259-.509.52-.83.812l-.42.37.058-.005c.763-.09 1.707-.234 2.827-.43l.829-.15a1.1 1.1 0 1 1 .398 2.164l-1.064.192c-3.828.673-5.522.752-6.233.032-.512-.517-.441-1.13-.126-1.643.107-.173.245-.34.427-.526l.26-.252 1.52-1.34c.299-.27.539-.502.74-.72.074-.079.14-.153.197-.222l.181-.226h-.213l-.256.01-.383.025a25.08 25.08 0 0 0-1.668.209l-2.668.416c-1.005.15-1.598.217-2.222.249-1.578.081-2.54-.132-2.894-1.204-.304-.924.15-1.61 1.32-2.648l.372-.323c.284-.24.597-.494.987-.799l2.494-1.915a46.524 46.524 0 0 0 1.822-1.476l.218-.19c1.81-1.59 2.537-2.722 2.32-3.163-.672-1.359-5.84-1.021-15.024 1.636a1.1 1.1 0 1 1-.612-2.114z"/></svg>