<svg xmlns="http://www.w3.org/2000/svg" xmlns:xlink="http://www.w3.org/1999/xlink" width="20px" height="20px" viewBox="0 0 20 20" version="1.1">
    <g stroke="none" stroke-width="1" fill-rule="evenodd">
        <g transform="translate(-335.000000, -187.000000)">
            <g transform="translate(89.000000, 186.000000)">
                <g transform="translate(246.000000, 1.000000)">
                    <path d="M15.4774931,2.5 L4.52250694,2.5 C4.28857043,2.5 4.06203754,2.58201622 3.88232254,2.73177872 L3.80237288,2.80604168 C3.4522286,3.16850126 3.42429251,3.74419263 3.75428566,4.1401844 L7.5,8.63583333 L7.5,15.5150283 L12.5,18.0150283 L12.5,8.635 L16.2457143,4.1401844 C16.3954768,3.9604694 16.4774931,3.73393651 16.4774931,3.5 C16.4774931,2.94771525 16.0297778,2.5 15.4774931,2.5 Z M5.94583333,4.16666667 L14.0533333,4.16666667 L10.8333333,8.03162505 L10.8333333,15.3183333 L9.16666667,14.485 L9.16666667,8.03162505 L5.94583333,4.16666667 Z" id="路径-26" fill-rule="nonzero"/>
                </g>
            </g>
        </g>
    </g>
</svg>