<svg width="18" height="18" viewBox="0 0 18 18" xmlns="http://www.w3.org/2000/svg">
<path fill-rule="evenodd" clip-rule="evenodd" d="M10.875 15.75L14.625 15.75C15.0392 15.75 15.375 15.4142 15.375 15L15.375 3C15.375 2.58579 15.0392 2.25 14.625 2.25L10.875 2.25C10.4608 2.25 10.125 2.58579 10.125 3L10.125 15C10.125 15.4142 10.4608 15.75 10.875 15.75ZM11.625 14.25L11.625 3.75L13.875 3.75L13.875 14.25L11.625 14.25Z" />
<path fill-rule="evenodd" clip-rule="evenodd" d="M3.375 15.75L7.125 15.75C7.53921 15.75 7.875 15.4142 7.875 15L7.875 3C7.875 2.58579 7.53921 2.25 7.125 2.25L3.375 2.25C2.96079 2.25 2.625 2.58579 2.625 3L2.625 15C2.625 15.4142 2.96079 15.75 3.375 15.75ZM4.125 14.25L4.125 3.75L6.375 3.75L6.375 14.25L4.125 14.25Z" />
</svg>
