<svg width="18" height="18" viewBox="0 0 18 18" xmlns="http://www.w3.org/2000/svg">
<g clip-path="url(#clip0)">
<path fill-rule="evenodd" clip-rule="evenodd" d="M15.75 7.125L15.75 3.375C15.75 2.96079 15.4142 2.625 15 2.625L3 2.625C2.58578 2.625 2.25 2.96079 2.25 3.375L2.25 7.125C2.25 7.53921 2.58578 7.875 3 7.875L15 7.875C15.4142 7.875 15.75 7.53921 15.75 7.125ZM14.25 6.375L3.75 6.375L3.75 4.125L14.25 4.125L14.25 6.375Z" />
<path fill-rule="evenodd" clip-rule="evenodd" d="M15.75 14.625L15.75 10.875C15.75 10.4608 15.4142 10.125 15 10.125L3 10.125C2.58578 10.125 2.25 10.4608 2.25 10.875L2.25 14.625C2.25 15.0392 2.58578 15.375 3 15.375L15 15.375C15.4142 15.375 15.75 15.0392 15.75 14.625ZM14.25 13.875L3.75 13.875L3.75 11.625L14.25 11.625L14.25 13.875Z" />
</g>
<defs>
<clipPath id="clip0">
<rect width="18" height="18" transform="translate(18) rotate(90)"/>
</clipPath>
</defs>
</svg>
