<svg width="18" height="18" viewBox="0 0 18 18" xmlns="http://www.w3.org/2000/svg">
<path d="M15.75 8.25L15.75 9.75L14.25 9.75L14.25 8.25L15.75 8.25Z" />
<path fill-rule="evenodd" clip-rule="evenodd" d="M13.7838 2.09296C13.9611 1.84476 13.7837 1.5 13.4787 1.5L4.52131 1.5C4.21629 1.5 4.03887 1.84476 4.21615 2.09296L8.69485 8.36314C8.84441 8.57252 9.15559 8.57252 9.30515 8.36314L13.7838 2.09296ZM11.2928 3L9.00075 6.20925L6.708 3L11.2928 3Z" />
<path d="M4.51891 16.5003L13.4763 16.5003C13.5545 16.5003 13.6307 16.4759 13.6943 16.4305C13.8628 16.3101 13.9018 16.0759 13.7815 15.9074L9.30276 9.63721C9.27871 9.60354 9.24924 9.57408 9.21557 9.55002C9.04704 9.42965 8.81284 9.46868 8.69246 9.63721L4.21376 15.9074C4.16833 15.971 4.14391 16.0472 4.14391 16.1253C4.14391 16.3325 4.31181 16.5003 4.51891 16.5003Z" />
<path d="M12.75 9.75L12.75 8.25L11.25 8.25L11.25 9.75L12.75 9.75Z" />
<path d="M6.75 8.25L6.75 9.75L5.25 9.75L5.25 8.25L6.75 8.25Z" />
<path d="M3.75 9.75L3.75 8.25L2.25 8.25L2.25 9.75L3.75 9.75Z" />
</svg>
