<svg width="18" height="18" viewBox="0 0 18 18" xmlns="http://www.w3.org/2000/svg">
<path d="M8.25 2.25H9.75V3.75H8.25V2.25Z" />
<path fill-rule="evenodd" clip-rule="evenodd" d="M2.09296 4.21615C1.84476 4.03887 1.5 4.21629 1.5 4.5213V13.4787C1.5 13.7837 1.84476 13.9611 2.09296 13.7838L8.36314 9.30515C8.57252 9.15559 8.57252 8.84441 8.36314 8.69485L2.09296 4.21615ZM3 6.70725L6.20925 8.99925L3 11.292V6.70725Z" />
<path d="M16.5003 13.4811V4.5237C16.5003 4.44554 16.4759 4.36933 16.4305 4.30573C16.3101 4.1372 16.0759 4.09817 15.9074 4.21855L9.63721 8.69724C9.60354 8.72129 9.57408 8.75075 9.55002 8.78443C9.42965 8.95296 9.46868 9.18716 9.63721 9.30754L15.9074 13.7862C15.971 13.8317 16.0472 13.8561 16.1253 13.8561C16.3325 13.8561 16.5003 13.6882 16.5003 13.4811Z" />
<path d="M9.75 5.25H8.25V6.75H9.75V5.25Z" />
<path d="M8.25 11.25H9.75V12.75H8.25V11.25Z" />
<path d="M9.75 14.25H8.25V15.75H9.75V14.25Z" />
</svg>
