<svg width="28" height="28" xmlns="http://www.w3.org/2000/svg" xmlns:xlink="http://www.w3.org/1999/xlink"><defs><path id="prefix__a" d="M0 0h28v28H0z"/></defs><g fill="none" fill-rule="evenodd"><mask id="prefix__b" fill="#fff"><use xlink:href="#prefix__a"/></mask><path d="M24 5H4v18h20V5z" stroke="#636C75" stroke-width="2" mask="url(#prefix__b)"/><path d="M9.98 10h1.452l2.98 7.793h-1.365l-.71-1.953H9.075l-.71 1.953H7L9.98 10zm-.524 4.792h2.5l-1.223-3.417h-.044l-1.233 3.417zm8.175-2.795c.83 0 1.452.208 1.845.623.35.36.524.884.524 1.571v3.602h-1.157v-.742a2.204 2.204 0 01-.808.644c-.36.164-.786.251-1.277.251-.59 0-1.048-.153-1.386-.447a1.466 1.466 0 01-.524-1.157c0-.633.24-1.125.742-1.463.459-.327 1.103-.502 1.932-.524l1.234-.033v-.218c0-.742-.404-1.102-1.212-1.102-.35 0-.622.054-.83.185a.98.98 0 00-.469.655l-1.233-.098c.12-.622.425-1.08.917-1.364.414-.262.982-.383 1.702-.383zm1.125 3.22l-1.146.033c-.994.022-1.485.371-1.485 1.048 0 .197.077.36.251.491.175.131.393.208.666.208.48 0 .884-.142 1.212-.415.327-.284.502-.644.502-1.08v-.285z" stroke="#636C75" stroke-width=".5" fill="#636C75" fill-rule="nonzero" mask="url(#prefix__b)"/></g></svg>