<svg class="icon" viewBox="0 0 1024 1024" xmlns="http://www.w3.org/2000/svg" width="200" height="200"><defs><style/></defs><path d="M908.323 512a358.4 358.4 0 0 0-5.632-62.464 13.824 13.824 0 0 1 4.608-12.288l75.776-68.096c15.872-14.336 18.432-29.184 11.776-40.96l-83.456-144.384a27.648 27.648 0 0 0-33.28-12.8l-102.4 34.304a13.312 13.312 0 0 1-12.8 0 409.6 409.6 0 0 0-107.52-62.464 12.8 12.8 0 0 1-8.704-9.728L622.627 22.528A28.16 28.16 0 0 0 594.98 0H429.091a28.16 28.16 0 0 0-27.648 22.528L378.915 130.56a12.8 12.8 0 0 1-8.704 9.728 409.6 409.6 0 0 0-107.52 64.512 13.312 13.312 0 0 1-12.8 0l-102.4-34.304a27.648 27.648 0 0 0-33.28 12.8L29.22 328.192a29.696 29.696 0 0 0 5.632 35.84l81.92 73.216a13.824 13.824 0 0 1 4.608 12.288 349.184 349.184 0 0 0 0 124.928 13.824 13.824 0 0 1-4.608 12.288l-75.776 68.096c-15.872 14.336-18.432 29.184-11.776 40.96l83.456 144.384a27.648 27.648 0 0 0 33.28 12.8l102.4-34.304a13.312 13.312 0 0 1 12.8 0 409.6 409.6 0 0 0 107.52 62.464 12.8 12.8 0 0 1 8.704 9.728l22.528 108.032a28.16 28.16 0 0 0 27.648 22.528h165.888a28.16 28.16 0 0 0 27.648-22.528L643.62 890.88a12.8 12.8 0 0 1 8.704-9.728A409.6 409.6 0 0 0 761.38 819.2a13.312 13.312 0 0 1 12.8 0l102.4 34.304a27.648 27.648 0 0 0 33.28-12.8l83.456-144.384a29.696 29.696 0 0 0-5.632-35.84l-81.92-73.216a13.824 13.824 0 0 1-4.608-12.288A358.4 358.4 0 0 0 908.323 512zM512.035 739.328A227.328 227.328 0 1 1 738.34 512a226.816 226.816 0 0 1-226.304 227.328z"/></svg>