<svg width="24" height="24" viewBox="0 0 24 24" xmlns="http://www.w3.org/2000/svg">
<path d="M3.49718 15.0007L10.0003 3.94531L13.5982 10.0617C14.2041 9.75768 14.8687 9.55328 15.5705 9.46993L11.7242 2.93127C10.9509 1.61666 9.04978 1.61666 8.27647 2.93127L1.77331 13.9867C0.989032 15.3199 1.95034 17.0007 3.49718 17.0007L10.4942 17.0007C10.3585 16.4994 10.2861 15.9721 10.2861 15.4277C10.2861 15.2842 10.2911 15.1417 10.301 15.0007L3.49718 15.0007Z" />
<path fill-rule="evenodd" clip-rule="evenodd" d="M12.0004 15.5C12.0004 17.9862 14.0142 20 16.5004 20C18.9865 20 21.0004 17.9862 21.0004 15.5C21.0004 13.0138 18.9865 11 16.5004 11C14.0142 11 12.0004 13.0138 12.0004 15.5ZM10.0004 15.5C10.0004 19.0907 12.9096 22 16.5004 22C20.0911 22 23.0004 19.0907 23.0004 15.5C23.0004 11.9093 20.0911 9 16.5004 9C12.9096 9 10.0004 11.9093 10.0004 15.5Z" />
</svg>
