<svg width="24" height="24" xmlns="http://www.w3.org/2000/svg"><path d="M13 18.595V20.5h-2v-1.905h2zm9-12.351v11.375a.474.474 0 0 1-.271.423.521.521 0 0 1-.519-.035l-8.36-5.688a.47.47 0 0 1-.21-.388.47.47 0 0 1 .21-.387l8.36-5.687a.516.516 0 0 1 .697.11.46.46 0 0 1 .093.277zm-19.907-.28a.52.52 0 0 1 .698-.11l8.36 5.687a.47.47 0 0 1 .21.388.47.47 0 0 1-.21.387l-8.36 5.687a.521.521 0 0 1-.52.036.474.474 0 0 1-.271-.423V6.241a.46.46 0 0 1 .093-.276zM13 14.787v1.904h-2v-1.904h2zM4 9.017v5.822l4.279-2.911L4 9.018zm9-1.85V9.07h-2V7.167h2zm0-1.905h-2V3.357h2v1.905z" fill="#636C78" fill-rule="nonzero"/></svg>
