<svg xmlns="http://www.w3.org/2000/svg" viewBox="0 0 61 64"><g data-name="图层 2"><path d="M50.68 50.26a8.9 8.9 0 0 0-1.27.24 9.8 9.8 0 0 0-1.2.37 10 10 0 0 0-1.28.6A3.17 3.17 0 0 1 47 50a4.64 4.64 0 0 1 1.87-2.88 9.28 9.28 0 0 1 8.27-.87A6.2 6.2 0 0 1 60.28 49a7.55 7.55 0 0 1 .4 5.39 11.5 11.5 0 0 1-2.47 5 11.87 11.87 0 0 1-5 3.44A19.33 19.33 0 0 1 45.94 64a30.7 30.7 0 0 1-9.42-1.88 16.23 16.23 0 0 1-5.67-3.18 14.46 14.46 0 0 1-3.1-3.9 11.06 11.06 0 0 1-1.24-3.78 11.76 11.76 0 0 1-.06-2.78 8.74 8.74 0 0 1 .83-2.48c.47-1 .94-1.92 1.44-2.81.58-1.06 1.22-2.16 1.93-3.28.36-.58.67-1.14.94-1.67a10.72 10.72 0 0 0 .53-1.47 2.6 2.6 0 0 0 0-1.41 7.13 7.13 0 0 0-1.67-2.68 8.33 8.33 0 0 0-1.94-1.4 7 7 0 0 0-2.33-.56 15.84 15.84 0 0 1-3.07-.4 15 15 0 0 1-2.37-.88A3.3 3.3 0 0 1 19 27.76a4.06 4.06 0 0 1-.5-2.34 11.22 11.22 0 0 1 .5-2.36c.24-.78.5-1.53.77-2.24a5.5 5.5 0 0 0 .4-1.88 3.1 3.1 0 0 0-2.27-3 14.63 14.63 0 0 0-4.41-.6 4.29 4.29 0 0 0-2.07.57c-.4.29-.6.56-.6.8v.1a16 16 0 0 0 .23 2.4 5.72 5.72 0 0 1-.22 2.79 6.2 6.2 0 0 1-.91 1.5c-.34.42-.66.86-1 1.31l-.9 1.5c-.24.43-.34.7-.3.84a.87.87 0 0 0 .64.37 3.27 3.27 0 0 1 .77.23 1 1 0 0 1 .44.64 1.34 1.34 0 0 0 .5.77 3.06 3.06 0 0 1 .8 1.14.94.94 0 0 1 0 .47c0 .35 0 .78.07 1.28s.09.86.16 1.37a11.2 11.2 0 0 0 .3 1.51 6.8 6.8 0 0 0 .94 2.44 2.17 2.17 0 0 0 1.3.87 5.35 5.35 0 0 0 1.83 0 22.7 22.7 0 0 1 2.61-.13c.75.05 1.53.07 2.33.07a4.2 4.2 0 0 1 2.14.53 4 4 0 0 1 1.47 1.47 12.82 12.82 0 0 1 .87 1.88 20.42 20.42 0 0 1 .4 2.34 24.38 24.38 0 0 1 .2 3.08c0 .89-.05 1.86-.14 2.91a12.68 12.68 0 0 1-.66 3.11 9.34 9.34 0 0 1-3.36 4.69 11.87 11.87 0 0 1-4.74 2 14 14 0 0 1-5.07.14A16.07 16.07 0 0 1 7.22 59a10.35 10.35 0 0 1-3.17-2.27 5.64 5.64 0 0 1-1.5-2.68 6 6 0 0 1 0-2.11A12.57 12.57 0 0 1 3 50a13.64 13.64 0 0 1 .8-1.84 15 15 0 0 0 .8-1.67 7.76 7.76 0 0 0 .74-2.24 5 5 0 0 0 0-1.64 3.62 3.62 0 0 0-.53-1.34l-1.28-1.4-1.13-1.48a7.73 7.73 0 0 1-1-1.71A12.57 12.57 0 0 1 0 31.59v-2.44a8.61 8.61 0 0 1 .5-2.71 10.55 10.55 0 0 1 2-2.84A48.85 48.85 0 0 0 6 19a14.37 14.37 0 0 0 .7-1.67 15.36 15.36 0 0 0 .47-1.6 12.21 12.21 0 0 0 .23-1.28 6.17 6.17 0 0 0 .07-.74c0-.44 0-.93-.07-1.47l-.13-1.67c0-.27 0-.72-.07-1.34a7.64 7.64 0 0 1 .17-2.08 8.91 8.91 0 0 1 .83-2.3 6.15 6.15 0 0 1 1.88-2.11 6.08 6.08 0 0 1 2.37-1 15.92 15.92 0 0 1 2.55-.4 22.2 22.2 0 0 1 3 .06 17.57 17.57 0 0 1 2.64-.73c.8-.18 1.73-.32 2.8-.47a26.62 26.62 0 0 1 3.34-.2 27.22 27.22 0 0 1 9.74 1.77 21.22 21.22 0 0 1 6.48 4 17.44 17.44 0 0 1 3.87 5.15 27.2 27.2 0 0 1 1.94 5.16 21.72 21.72 0 0 1 .7 4c.07 1.1.1 1.66.1 1.71a3.71 3.71 0 0 0 .8 2.07 19.53 19.53 0 0 0 1.71 1.92c.63.64 1.3 1.3 2 2a10.94 10.94 0 0 1 3.3 6.76 7.43 7.43 0 0 1-.53 3.52A7.61 7.61 0 0 1 55 40.71a15 15 0 0 1-4.71 3c-.68.27-1.12.45-1.3.54a10.94 10.94 0 0 0-3.37 2.21 6.34 6.34 0 0 0-1.57 2.41 4.54 4.54 0 0 0-.17 2.34 3.91 3.91 0 0 0 1 1.94 3.79 3.79 0 0 0 1.2 1 7 7 0 0 0 1.5.6A6.62 6.62 0 0 0 49 55a3.55 3.55 0 0 0 1.17-.1 3.26 3.26 0 0 0 2.6-2.61 1.77 1.77 0 0 0-.37-1.47 2 2 0 0 0-1.76-.54z" fill-rule="evenodd" data-name="图层 20"/></g></svg>