<svg xmlns="http://www.w3.org/2000/svg" viewBox="-1.5 0 64 64"><path d="M61 40.47c0 17.5-11.24 20-13.33 20.89-21.57 9-37.32-8-34.46-5.45a95.5 95.5 0 0 1-12-13.45 3.41 3.41 0 0 1-.3-5 3.73 3.73 0 0 1 5.09-1s4.75 3.53 5.06 3.71c3.59 2.25 5.87-3.1 3.95-7.09a145.4 145.4 0 0 1-8.94-19.61C5.2 11.32 5.9 9 7.59 8.32a3.94 3.94 0 0 1 5.27 1.55l9.66 17.31 2.76-.72-6-21.68A3.86 3.86 0 0 1 22 .12a4 4 0 0 1 4.79 2.72l6 21.68 4.26-1.1-.6-18.6A3.8 3.8 0 0 1 40.18.94h.06a3.9 3.9 0 0 1 4 3.73l.9 18.49c1.21.49 3.27 1.25 4 2.1l.47-12.75a3.88 3.88 0 0 1 4.22-3.2c2 .28 2.83 1.38 3.5 4.5 0 0 3.64 14.15 3.64 26.66" class="cls-1"/></svg>