<svg width="28" height="28" xmlns="http://www.w3.org/2000/svg"><g fill="none" fill-rule="evenodd"><path d="M16.2 21L9 25v-4.223A9 9 0 0 1 11 3h6a9 9 0 0 1 0 18h-.8z" fill="#A8BFE4"/><path d="M14 7.5c.845 0 1.534.221 2.054.689.52.455.78 1.079.78 1.872 0 .65-.169 1.183-.481 1.599-.117.13-.494.481-1.118 1.027a1.846 1.846 0 0 0-.52.637c-.13.26-.195.546-.195.858v.182h-1.495v-.182c0-.494.078-.923.26-1.274.169-.351.676-.897 1.521-1.651l.156-.182a1.44 1.44 0 0 0 .351-.923c0-.429-.13-.767-.364-1.014-.247-.247-.598-.364-1.04-.364-.559 0-.962.169-1.222.52-.221.299-.325.728-.325 1.287H10.88c0-.962.273-1.716.845-2.262.559-.546 1.313-.819 2.275-.819zm-.34 8c.285 0 .532.09.727.273a.96.96 0 0 1 .286.702.99.99 0 0 1-.286.715 1.056 1.056 0 0 1-.728.273.96.96 0 0 1-.702-.286c-.208-.182-.299-.416-.299-.702s.091-.52.3-.702a.95.95 0 0 1 .701-.273z" fill="#FFF" fill-rule="nonzero"/></g></svg>