<svg xmlns="http://www.w3.org/2000/svg" viewBox="0 0 64 58"><g data-name="图层 2"><path d="M28.92 30.73h3.33v-1.85a6.34 6.34 0 0 1 .49-2.71 10 10 0 0 1 2.07-2.48l1-1a11.68 11.68 0 0 0 2.24-2.63 5.28 5.28 0 0 0 .59-2.55 5 5 0 0 0-2-4.17 8.83 8.83 0 0 0-5.48-1.54 20.33 20.33 0 0 0-5.86.94v2.81a14 14 0 0 1 5.51-1.24 5.13 5.13 0 0 1 3.19.89 2.83 2.83 0 0 1 1.17 2.38c0 1.29-.88 2.94-2.66 5l-1.06 1.23a9 9 0 0 0-2.49 6.05zm0 6.65h3.33v-3.32h-3.33zM24 0h16a23.88 23.88 0 1 1 0 47.75L24 57.92a.54.54 0 0 1-.73-.16.57.57 0 0 1-.09-.33l.82-9.68A23.88 23.88 0 1 1 24 0z" fill-rule="evenodd" data-name="图层 21"/></g></svg>