<svg class="icon" viewBox="0 0 1024 1024" xmlns="http://www.w3.org/2000/svg" width="200" height="200"><defs><style/></defs><path d="M512 85.333c235.648 0 426.667 191.019 426.667 426.667S747.648 938.667 512 938.667 85.333 747.648 85.333 512 276.352 85.333 512 85.333zm0 85.334a341.333 341.333 0 1 0 0 682.666 341.333 341.333 0 0 0 0-682.666zm42.667 489.045v85.333h-85.334v-85.333h85.334zm-47.958-361.045c44.374 0 81.238 10.837 110.592 32.512 29.355 21.632 44.032 53.76 44.032 96.256 0 26.112-6.4 48-19.114 65.92-7.424 10.794-21.76 24.661-42.838 41.514l-20.906 16.512a64.597 64.597 0 0 0-22.614 31.574c-2.346 7.637-3.584 19.498-3.84 35.541h-79.786c1.194-33.92 4.352-57.344 9.386-70.23 5.078-12.97 18.219-27.86 39.339-44.714l21.461-17.152c7.083-5.419 12.715-11.307 17.067-17.75 7.765-11.05 11.733-23.167 11.733-36.394 0-15.232-4.394-29.141-13.098-41.643-8.704-12.544-24.619-18.816-47.787-18.816-22.699 0-38.827 7.68-48.299 23.168a90.624 90.624 0 0 0-14.25 48.128h-85.12c2.346-57.173 21.888-97.706 58.624-121.6 23.168-15.189 51.626-22.826 85.418-22.826z"/></svg>