<svg width="24" height="24" viewBox="0 0 24 24" xmlns="http://www.w3.org/2000/svg">
<path fill-rule="evenodd" clip-rule="evenodd" d="M12 21C16.4183 21 20 17.4183 20 13C20 8.58172 16.4183 5 12 5C7.58172 5 4 8.58172 4 13C4 17.4183 7.58172 21 12 21ZM12 23C17.5228 23 22 18.5228 22 13C22 7.47715 17.5228 3 12 3C6.47715 3 2 7.47715 2 13C2 18.5228 6.47715 23 12 23Z" />
<path d="M9.27101 21L10.6043 15H13.3957L14.729 21H16.7778L15.174 13.7831C15.0723 13.3255 14.6665 13 14.1978 13H9.80217C9.33347 13 8.92766 13.3255 8.82598 13.7831L7.22222 21H9.27101Z" />
<path d="M11.5192 7.68267C11.6574 7.19915 12.3426 7.19915 12.4808 7.68267L14 13H10L11.5192 7.68267Z" />
</svg>
