<svg width="18" height="18" viewBox="0 0 18 18" xmlns="http://www.w3.org/2000/svg">
<path fill-rule="evenodd" clip-rule="evenodd" d="M6.375 11.25C9.06739 11.25 11.25 9.06739 11.25 6.375C11.25 3.68261 9.06739 1.5 6.375 1.5C3.68261 1.5 1.5 3.68261 1.5 6.375C1.5 9.06739 3.68261 11.25 6.375 11.25ZM12.75 6.375C12.75 9.89581 9.89581 12.75 6.375 12.75C2.85418 12.75 0 9.89581 0 6.375C0 2.85418 2.85418 0 6.375 0C9.89581 0 12.75 2.85418 12.75 6.375Z" />
<path fill-rule="evenodd" clip-rule="evenodd" d="M10.672 15.1253C11.1207 15.1212 11.5579 15.0499 11.9721 14.9197L12.4887 15.9334C11.8609 16.1544 11.1871 16.266 10.4941 16.2489L10.672 15.1253ZM15.2533 13.8245C14.8651 14.3852 14.3794 14.8677 13.8247 15.2514L13.3082 14.2377C13.6606 13.9761 13.975 13.6632 14.2393 13.3078L15.2533 13.8245ZM15.934 12.4878L14.92 11.9711C14.9847 11.7639 15.0351 11.5495 15.0701 11.3288C15.1051 11.108 15.1233 10.8884 15.1259 10.6713L16.2499 10.4933C16.2573 10.8261 16.2351 11.1643 16.1812 11.5048C16.1273 11.8452 16.0439 12.1736 15.934 12.4878ZM16.0155 9.01163L14.8915 9.18966C14.7499 8.77005 14.5475 8.37528 14.2932 8.01759L15.0977 7.2131C15.5067 7.74938 15.8195 8.35835 16.0155 9.01163ZM14.0377 6.15165L13.2332 6.9562C12.8796 6.70443 12.4859 6.50154 12.0605 6.35901L12.2384 5.23535C12.9028 5.43326 13.509 5.74757 14.0377 6.15165ZM5.23534 12.2378L6.35943 12.0598C6.50097 12.4794 6.70331 12.8741 6.95757 13.2318L6.15307 14.0363C5.74412 13.5 5.43133 12.8911 5.23534 12.2378ZM9.19046 14.8906L9.0125 16.0143C8.34806 15.8163 7.74178 15.502 7.21299 15.0978L8.01753 14.2933C8.37121 14.5451 8.76497 14.7481 9.19046 14.8906Z" />
</svg>
