<?xml version="1.0" encoding="UTF-8"?>
<svg width="24px" height="24px" viewBox="0 0 24 24" version="1.1" xmlns="http://www.w3.org/2000/svg" xmlns:xlink="http://www.w3.org/1999/xlink">
    <g id="annotable" stroke="none" stroke-width="1" fill-rule="evenodd">
        <g transform="translate(3.000000, 3.000000)" fill-rule="nonzero">
            <path d="M9,-2.84217094e-14 C13.9705627,-2.84217094e-14 18,4.02943725 18,9 C18,13.9705627 13.9705627,18 9,18 C4.02943725,18 -1.42108547e-13,13.9705627 -1.42108547e-13,9 C-1.42108547e-13,4.02943725 4.02943725,-2.84217094e-14 9,-2.84217094e-14 Z M10.489,10.88 L7.51,10.88 L7.24140836,12.038644 L6.43202074,15.5139615 C7.22711296,15.8276625 8.09343069,16 9,16 C9.90656931,16 10.772887,15.8276625 11.5679793,15.5139615 L10.7519397,12.0101012 L10.489,10.88 Z M9,2 C5.13400675,2 2,5.13400675 2,9 C2,11.253782 3.06512742,13.2587902 4.71946755,14.5391098 L5.73798705,10.0935256 C5.79002632,9.86626208 5.99222734,9.70512821 6.2253728,9.70512821 L6.2253728,9.70512821 L6.62,9.705 L8.53183541,4.60741326 C8.62879547,4.3488531 8.91700156,4.21785033 9.17556172,4.31481039 C9.31077339,4.36551477 9.41746021,4.47220159 9.46816459,4.60741326 L11.379,9.705 L11.7746272,9.70512821 C11.9786295,9.70512821 12.1589399,9.82849633 12.2356922,10.0115872 L12.2620129,10.0935256 L13.2805324,14.5391098 C14.9348726,13.2587902 16,11.253782 16,9 C16,5.13400675 12.8659932,2 9,2 Z"></path>
        </g>
    </g>
</svg>