<?xml version="1.0" encoding="UTF-8"?>
<svg width="24px" height="24px" viewBox="0 0 24 24" version="1.1" xmlns="http://www.w3.org/2000/svg" xmlns:xlink="http://www.w3.org/1999/xlink">
    <g id="crop" stroke="none" stroke-width="1" fill-rule="evenodd">
        <g transform="translate(3.000000, 3.000000)" fill-rule="nonzero">
            <path d="M5.5,0 L5.5,3.5 L12.5,3.5 C13.5543618,3.5 14.4181651,4.31587779 14.4945143,5.35073766 L14.5,5.5 L14.5,12.5 L18,12.5 L18,14.5 L14.5,14.5 L14.5,18 L12.5,18 L12.5,14.5 L5.5,14.5 C4.4456382,14.5 3.58183488,13.6841222 3.50548574,12.6492623 L3.5,12.5 L3.5,5.5 L0,5.5 L0,3.5 L3.5,3.5 L3.5,0 L5.5,0 Z M5.5,5.5 L5.5,12.5 L12.5,12.5 L12.5,5.5 L5.5,5.5 Z"></path>
        </g>
    </g>
</svg>