<svg width="18" height="18" viewBox="0 0 18 18" xmlns="http://www.w3.org/2000/svg">
<path fill-rule="evenodd" clip-rule="evenodd" d="M9 15.4C12.5346 15.4 15.4 12.5346 15.4 9C15.4 5.46538 12.5346 2.6 9 2.6C5.46538 2.6 2.6 5.46538 2.6 9C2.6 12.5346 5.46538 15.4 9 15.4ZM9 17C13.4183 17 17 13.4183 17 9C17 4.58172 13.4183 1 9 1C4.58172 1 1 4.58172 1 9C1 13.4183 4.58172 17 9 17Z" />
<path d="M6.81676 15.3999L7.88341 10.6H10.1165L11.1831 15.3999H12.8221L11.5391 9.62646C11.4578 9.26043 11.1332 9 10.7582 9H7.24167C6.86671 9 6.54206 9.26043 6.46072 9.62646L5.17773 15.3999H6.81676Z" />
<path d="M8.51914 5.08257C8.65729 4.59905 9.34252 4.59905 9.48066 5.08257L10.5999 8.9999H7.3999L8.51914 5.08257Z" />
</svg>
