<svg width="28" height="28" xmlns="http://www.w3.org/2000/svg" xmlns:xlink="http://www.w3.org/1999/xlink"><defs><path id="a" d="M0 0h66v751H0z"/><path d="M1 0h19a1 1 0 0 1 1 1v19a1 1 0 0 1-1 1H1a1 1 0 0 1-1-1V1a1 1 0 0 1 1-1zm8.333 8.167v8.166h2.334V8.167h4.666V5.833H4.667v2.334h4.666z" id="c"/><path id="d" d="M0 0h28v28H0z"/><path id="f" d="M0 0h28v28H0z"/><path id="h" d="M0 0h28v28H0z"/><path id="j" d="M0 0h28v28H0z"/><path id="l" d="M0 0h28v28H0z"/><path id="n" d="M0 0h66v751H0z"/><path id="p" d="M0 0h28v28H0z"/><path id="r" d="M0 0h28v28H0z"/></defs><g fill="none" fill-rule="evenodd"><path d="M-19-150h1440v808H-19z" fill="#EBEDF0"/><g transform="translate(-19 -93)"><mask id="b" fill="#fff"><use xlink:href="#a"/></mask><use fill="#FFF" xlink:href="#a"/><g mask="url(#b)"><g transform="translate(0 20)"><text font-family="PingFangSC-Regular, PingFang SC" font-size="12" fill="#939BA6"><tspan x="21" y="45">文本</tspan></text><use fill="#7F8792" xlink:href="#c" transform="translate(22.5 3.5)"/><rect fill="#2354F4" y="4" width="4" height="40" rx="1"/></g><g transform="translate(0 236)"><text font-family="PingFangSC-Regular, PingFang SC" font-size="12" fill="#939BA6"><tspan x="21" y="48">尺寸</tspan></text><g transform="translate(19 3)"><mask id="e" fill="#fff"><use xlink:href="#d"/></mask><path fill="#7F8792" mask="url(#e)" d="M5.833 3.5h2.333v21H5.833zM19.833 3.5h2.333v21h-2.333z"/><path fill="#7F8792" mask="url(#e)" d="M3.5 5.833h21v2.333h-21zM3.5 19.833h21v2.333h-21zM9.333 10.5h9.333v7H9.333z"/></g><rect width="4" height="52" rx="1"/></g><g transform="translate(0 90)"><text font-family="PingFangSC-Regular, PingFang SC" font-size="12" fill="#939BA6"><tspan x="21" y="48">图片</tspan></text><g transform="translate(19 3)"><mask id="g" fill="#fff"><use xlink:href="#f"/></mask><path d="M9.533 16.228l-3.06 3.967A.5.5 0 0 0 6.87 21h14.28a.5.5 0 0 0 .401-.8l-4.245-5.674a.5.5 0 0 0-.795-.007l-3.658 4.717-2.54-3.024a.5.5 0 0 0-.78.016zM23.5 24.5h-19a1 1 0 0 1-1-1v-19a1 1 0 0 1 1-1h19a1 1 0 0 1 1 1v19a1 1 0 0 1-1 1z" fill="#7F8792" mask="url(#g)"/></g><rect width="4" height="52" rx="1"/></g><g transform="translate(0 163)"><text font-family="PingFangSC-Regular, PingFang SC" font-size="12" fill="#939BA6"><tspan x="21" y="48">模板</tspan></text><g fill="#7F8792"><path d="M23.5 6.5h8.333v21H23.5a1 1 0 0 1-1-1v-19a1 1 0 0 1 1-1zM34.167 6.5H42.5a1 1 0 0 1 1 1V16a1 1 0 0 1-1 1h-8.333V6.5zM34.167 19.333H42.5a1 1 0 0 1 1 1V26.5a1 1 0 0 1-1 1h-8.333v-8.167z"/></g><rect width="4" height="52" rx="1"/></g><g transform="translate(0 309)"><text font-family="PingFangSC-Regular, PingFang SC" font-size="12" fill="#939BA6"><tspan x="21" y="48">排版</tspan></text><g transform="translate(19 3)"><mask id="i" fill="#fff"><use xlink:href="#h"/></mask><path d="M23.5 24.5h-19a1 1 0 0 1-1-1v-19a1 1 0 0 1 1-1h19a1 1 0 0 1 1 1v19a1 1 0 0 1-1 1z" fill="#7F8792" mask="url(#i)"/><path fill="#FFF" mask="url(#i)" d="M7 8.167h14V10.5H7zM7 12.833h8.167v2.333H7zM7 17.5h14v2.333H7z"/></g><rect width="4" height="52" rx="1"/></g><g transform="translate(0 382)"><text font-family="PingFangSC-Regular, PingFang SC" font-size="12" fill="#939BA6"><tspan x="21" y="48">字体</tspan></text><g transform="translate(19 3)"><mask id="k" fill="#fff"><use xlink:href="#j"/></mask><path d="M23.5 24.5h-19a1 1 0 0 1-1-1v-19a1 1 0 0 1 1-1h19a1 1 0 0 1 1 1v19a1 1 0 0 1-1 1z" fill="#7F8792" mask="url(#k)"/><path d="M9.337 8.337h1.707l3.503 9.163h-1.604l-.834-2.297H8.272L7.437 17.5H5.833l3.504-9.163zm-.616 5.634h2.939l-1.438-4.017h-.051l-1.45 4.017zm9.612-3.286c.975 0 1.707.244 2.169.732.41.424.616 1.04.616 1.848V17.5h-1.36v-.873a2.592 2.592 0 0 1-.95.758c-.424.192-.924.295-1.502.295-.693 0-1.232-.18-1.63-.526a1.724 1.724 0 0 1-.616-1.36c0-.745.283-1.323.873-1.72.54-.386 1.296-.59 2.272-.617l1.45-.038v-.257c0-.872-.475-1.296-1.425-1.296-.41 0-.731.064-.975.218a1.152 1.152 0 0 0-.552.77l-1.45-.115c.141-.732.5-1.27 1.078-1.604.488-.308 1.155-.45 2.002-.45zm1.322 3.786l-1.348.039c-1.167.026-1.745.436-1.745 1.232 0 .23.09.423.295.577.206.154.462.244.783.244.565 0 1.04-.167 1.424-.487a1.62 1.62 0 0 0 .59-1.271v-.334z" fill="#FFF" fill-rule="nonzero" mask="url(#k)"/></g><rect width="4" height="52" rx="1"/></g><g transform="translate(0 455)"><text font-family="PingFangSC-Regular, PingFang SC" font-size="12" fill="#939BA6"><tspan x="21" y="48">配色</tspan></text><g transform="translate(19 3)"><mask id="m" fill="#fff"><use xlink:href="#l"/></mask><circle fill="#7F8792" opacity=".9" mask="url(#m)" cx="14" cy="9.917" r="6.417"/><circle fill="#7F8792" opacity=".4" mask="url(#m)" cx="9.917" cy="16.917" r="6.417"/><circle fill="#7F8792" opacity=".7" mask="url(#m)" cx="18.083" cy="16.917" r="6.417"/></g><rect width="4" height="52" rx="1"/></g></g></g><g transform="translate(-19 -93)"><mask id="o" fill="#fff"><use xlink:href="#n"/></mask><use fill="#FFF" xlink:href="#n"/><g mask="url(#o)"><g transform="translate(19 93)"><mask id="q" fill="#fff"><use xlink:href="#p"/></mask><path d="M9.533 16.228l-3.06 3.967A.5.5 0 0 0 6.87 21h14.28a.5.5 0 0 0 .401-.8l-4.245-5.674a.5.5 0 0 0-.795-.007l-3.658 4.717-2.54-3.024a.5.5 0 0 0-.78.016zM23.5 24.5h-19a1 1 0 0 1-1-1v-19a1 1 0 0 1 1-1h19a1 1 0 0 1 1 1v19a1 1 0 0 1-1 1z" fill="#7F8792" mask="url(#q)"/></g><g transform="translate(19 93)"><mask id="s" fill="#fff"><use xlink:href="#r"/></mask><path d="M9.533 16.228l-3.06 3.967A.5.5 0 0 0 6.87 21h14.28a.5.5 0 0 0 .401-.8l-4.245-5.674a.5.5 0 0 0-.795-.007l-3.658 4.717-2.54-3.024a.5.5 0 0 0-.78.016zM23.5 24.5h-19a1 1 0 0 1-1-1v-19a1 1 0 0 1 1-1h19a1 1 0 0 1 1 1v19a1 1 0 0 1-1 1z" fill="#7F8792" mask="url(#s)"/></g></g></g></g></svg>