<svg width="18" height="18" viewBox="0 0 18 18" xmlns="http://www.w3.org/2000/svg">
<path fill-rule="evenodd" clip-rule="evenodd" d="M5.62864 4.64704C4.80021 6.08192 5.29184 7.91669 6.72672 8.74512C8.16159 9.57355 9.99636 9.08192 10.8248 7.64704C11.6532 6.21217 11.1616 4.37739 9.72672 3.54897C8.29184 2.72054 6.45707 3.21216 5.62864 4.64704ZM4.3296 3.89704C3.08696 6.04936 3.8244 8.80152 5.97671 10.0442C8.12903 11.2868 10.8812 10.5494 12.1238 8.39704C13.3665 6.24473 12.629 3.49257 10.4767 2.24993C8.3244 1.00729 5.57224 1.74473 4.3296 3.89704Z" />
<path fill-rule="evenodd" clip-rule="evenodd" d="M8.3613 10.6457C8.04574 11.9114 8.58732 13.2836 9.7733 13.9683C11.2082 14.7968 13.0429 14.3051 13.8714 12.8703C14.6998 11.4354 14.2082 9.60061 12.7733 8.77218C12.5487 8.64252 12.3144 8.5452 12.0756 8.47877C12.0919 8.45178 12.108 8.42456 12.1239 8.39711C12.3673 7.97541 12.5348 7.53068 12.6305 7.07879C12.9355 7.17557 13.2348 7.30657 13.5233 7.47314C15.6756 8.71579 16.4131 11.4679 15.1704 13.6203C13.9278 15.7726 11.1756 16.51 9.0233 15.2674C7.29268 14.2682 6.47682 12.2931 6.86956 10.4386C7.35913 10.5939 7.86339 10.6611 8.3613 10.6457Z" />
<path fill-rule="evenodd" clip-rule="evenodd" d="M4.37033 8.46809C4.10965 8.03405 3.92485 7.5601 3.82183 7.06815C2.8067 7.40135 1.90585 8.09518 1.3296 9.09327C0.0869585 11.2456 0.824397 13.9977 2.97671 15.2404C4.70731 16.2395 6.82571 15.9586 8.23539 14.6912C7.85608 14.3449 7.54579 13.9418 7.31014 13.5029C6.37182 14.409 4.91268 14.6261 3.72671 13.9413C2.29184 13.1129 1.80021 11.2781 2.62864 9.84327C3.02791 9.1517 3.66096 8.67925 4.37033 8.46809Z" />
</svg>
