<?xml version="1.0" encoding="UTF-8"?>
<svg width="24px" height="24px" viewBox="0 0 24 24" version="1.1" xmlns="http://www.w3.org/2000/svg" xmlns:xlink="http://www.w3.org/1999/xlink">
    <g id="cutout" stroke="none" stroke-width="1" fill-rule="evenodd">
        <g transform="translate(4.000000, 3.000000)" fill-rule="nonzero">
            <path d="M9.25997216,4.06029857 C10.4873342,2.83293651 12.4772813,2.83293651 13.7046434,4.06029857 C14.9320054,5.28766063 14.9320054,7.2776077 13.7046434,8.50496976 L13.7046434,8.50496976 L5.4213925,16.7882206 C4.19403044,18.0155827 2.20408336,18.0155827 0.976721299,16.7882206 C-0.25064076,15.5608586 -0.25064076,13.5709115 0.976721299,12.3435494 L0.976721299,12.3435494 Z M16,10 L16,11.5 L17.5,11.5 L17.5,13 L16,13 L16,14.5 L14.5,14.5 L14.5,13 L13,13 L13,11.5 L14.5,11.5 L14.5,10 L16,10 Z M12.2904298,5.47451213 C11.8441163,5.02819865 11.1204992,5.02819865 10.6741857,5.47451213 L10.6741857,5.47451213 L7.13819975,9.009 L8.75419975,10.626 L12.2904298,7.0907562 C12.7048637,6.67632226 12.7344662,6.02278467 12.3792371,5.57419306 Z M4,2 L4,3.5 L5.5,3.5 L5.5,5 L4,5 L4,6.5 L2.5,6.5 L2.5,5 L1,5 L1,3.5 L2.5,3.5 L2.5,2 L4,2 Z M17,0 L17,1.5 L18.5,1.5 L18.5,3 L17,3 L17,4.5 L15.5,4.5 L15.5,3 L14,3 L14,1.5 L15.5,1.5 L15.5,0 L17,0 Z"></path>
        </g>
    </g>
</svg>