<svg width="24" height="24" viewBox="0 0 24 24" xmlns="http://www.w3.org/2000/svg">
<path d="M3.49681 15.0007L9.99998 3.94531L13.5978 10.0617C14.2037 9.75768 14.8683 9.55328 15.5701 9.46993L11.7238 2.93127C10.9505 1.61666 9.04941 1.61666 8.27611 2.93127L1.77294 13.9867C0.988666 15.3199 1.94998 17.0007 3.49681 17.0007L10.4939 17.0007C10.3581 16.4994 10.2857 15.9721 10.2857 15.4277C10.2857 15.2842 10.2907 15.1417 10.3007 15.0007L3.49681 15.0007Z" />
<path fill-rule="evenodd" clip-rule="evenodd" d="M12 15.5C12 17.9862 14.0138 20 16.5 20C18.9862 20 21 17.9862 21 15.5C21 13.0138 18.9862 11 16.5 11C14.0138 11 12 13.0138 12 15.5ZM10 15.5C10 19.0907 12.9093 22 16.5 22C20.0907 22 23 19.0907 23 15.5C23 11.9093 20.0907 9 16.5 9C12.9093 9 10 11.9093 10 15.5Z" />
</svg>
