<svg width="24" height="24" viewBox="0 0 24 24"  xmlns="http://www.w3.org/2000/svg">
<path fill-rule="evenodd" clip-rule="evenodd" d="M11.9998 1.39453L18.3057 9.32052C21.0328 12.7482 20.3981 17.6908 16.9059 20.3513C15.5011 21.4216 13.7746 22.0007 11.9998 22.0007C7.6022 22.0007 4 18.5066 4 14.151C4 12.3985 4.59753 10.6987 5.69398 9.32052L11.9998 1.39453ZM11.9998 4.60692L7.25907 10.5657C6.44167 11.5931 6 12.8549 6 14.151C6 17.3614 8.66567 20.0007 11.9998 20.0007C13.3405 20.0007 14.6405 19.563 15.6939 18.7604C18.3026 16.773 18.7633 13.1081 16.7406 10.5657L11.9998 4.60692Z" />
</svg>
