<svg width="20" height="20" viewBox="0 0 20 20" fill="none" xmlns="http://www.w3.org/2000/svg">
<path fill-rule="evenodd" clip-rule="evenodd" d="M15.8333 5.83333L12.5 2.5H3.33333C2.8731 2.5 2.5 2.8731 2.5 3.33333V16.6667C2.5 17.1269 2.8731 17.5 3.33333 17.5H5.83333V15.8333H4.16667V4.16667H11.6667V5.66667C11.6667 6.21895 12.1144 6.66667 12.6667 6.66667H14.1667V8.33333H15.8333V5.83333Z" fill="#636C78"/>
<path fill-rule="evenodd" clip-rule="evenodd" d="M10.4325 17.5V15.5383H11.2117C13.0084 15.5383 13.7142 14.9608 13.7142 13.3016C13.7142 11.7708 13.1184 11.1383 11.2117 11.1383H9.03918V17.5H10.4325ZM11.0284 14.42H10.4325V12.2383H11.0284C11.9634 12.2383 12.2934 12.5133 12.2934 13.3291C12.2934 14.1725 11.9725 14.42 11.0284 14.42ZM17.9375 15.9875C17.9375 17.1516 17.195 17.555 15.9209 17.555C15.3434 17.555 14.7934 17.5 14.3534 17.3991V16.29C14.83 16.4366 15.3984 16.5191 15.8475 16.5191C16.425 16.5191 16.6725 16.4183 16.6725 16.0241C16.6725 15.63 16.5167 15.5291 15.7192 15.3366C14.6559 15.0891 14.4084 14.7683 14.4084 13.9341C14.4084 13.0083 14.9492 12.4583 16.3884 12.4583C16.9384 12.4583 17.4792 12.5225 17.745 12.6233L17.69 13.6408C17.4242 13.5675 16.8742 13.4575 16.4342 13.4575C15.82 13.4575 15.655 13.5766 15.655 13.9158C15.655 14.2275 15.7925 14.2825 16.5717 14.475C17.6534 14.75 17.9375 15.08 17.9375 15.9875Z" fill="#636C78"/>
</svg>
