<svg width="22" height="20" viewBox="0 0 22 20" fill="none" xmlns="http://www.w3.org/2000/svg">
<path fill-rule="evenodd" clip-rule="evenodd" d="M15.8333 5.83333L12.5 2.5H3.33333C2.8731 2.5 2.5 2.8731 2.5 3.33333V16.6667C2.5 17.1269 2.8731 17.5 3.33333 17.5H5.83333V15.8333H4.16667V4.16667H11.6667V5.66667C11.6667 6.21895 12.1144 6.66667 12.6667 6.66667H14.1667V8.33333H15.8333V5.83333Z" fill="#636C78"/>
<path fill-rule="evenodd" clip-rule="evenodd" d="M9.40833 17.5V15.7167H10.1167C11.75 15.7167 12.3917 15.1917 12.3917 13.6833C12.3917 12.2917 11.85 11.7167 10.1167 11.7167H8.14166V17.5H9.40833ZM9.95 14.7H9.40833V12.7167H9.95C10.8 12.7167 11.1 12.9667 11.1 13.7083C11.1 14.475 10.8083 14.7 9.95 14.7ZM14.4644 15.7167V17.5H13.1977V11.7167H15.1727C16.9061 11.7167 17.4477 12.2917 17.4477 13.6833C17.4477 15.1917 16.8061 15.7167 15.1727 15.7167H14.4644ZM15.0061 14.7H14.4644V12.7167H15.0061C15.8561 12.7167 16.1561 12.9667 16.1561 13.7083C16.1561 14.475 15.8644 14.7 15.0061 14.7ZM20.4288 12.825V17.5H19.1705V12.825H17.6538V11.7167H21.9454V12.825H20.4288Z" fill="#636C78"/>
</svg>
