<svg width="20" height="20" viewBox="0 0 20 20" fill="none" xmlns="http://www.w3.org/2000/svg">
<mask id="mask0" mask-type="alpha" maskUnits="userSpaceOnUse" x="0" y="0" width="20" height="20">
<path fill-rule="evenodd" clip-rule="evenodd" d="M20 20H0V0H20V20Z" fill="white"/>
</mask>
<g mask="url(#mask0)">
<path fill-rule="evenodd" clip-rule="evenodd" d="M15.0713 10.5679L17.8458 8.62575C17.8857 8.59785 17.9203 8.56319 17.9482 8.52334C18.0802 8.33482 18.0343 8.07502 17.8458 7.94305L10.239 2.61833C10.0956 2.5179 9.90463 2.5179 9.76116 2.61833L2.15441 7.94305C2.11456 7.97095 2.0799 8.00561 2.05201 8.04546C1.92004 8.23398 1.96589 8.49378 2.15441 8.62575L4.92878 10.5678L6.31352 9.50262L4.57344 8.2844L10.0001 4.48607L15.4276 8.2844L13.6869 9.50289L15.0713 10.5679Z" fill="#636C78"/>
<path d="M10.8334 15H9.16671V8.33333C9.16671 7.8731 9.5398 7.5 10 7.5C10.4603 7.5 10.8334 7.8731 10.8334 8.33333V15Z" fill="#33383E"/>
<path fill-rule="evenodd" clip-rule="evenodd" d="M10 14.6548L7.67259 12.3274C7.34715 12.0019 6.81951 12.0019 6.49408 12.3274C6.16864 12.6528 6.16864 13.1804 6.49408 13.5059L9.26343 16.2752C9.67023 16.682 10.3298 16.682 10.7366 16.2752L13.5059 13.5059C13.8314 13.1804 13.8314 12.6528 13.5059 12.3274C13.1805 12.0019 12.6528 12.0019 12.3274 12.3274L10 14.6548Z" fill="#33383E"/>
</g>
</svg>
