<svg width="20" height="20" viewBox="0 0 20 20" fill="none" xmlns="http://www.w3.org/2000/svg">
<mask id="mask0" mask-type="alpha" maskUnits="userSpaceOnUse" x="0" y="0" width="20" height="20">
<path fill-rule="evenodd" clip-rule="evenodd" d="M0 0H20V20H0V0Z" fill="white"/>
</mask>
<g mask="url(#mask0)">
<path fill-rule="evenodd" clip-rule="evenodd" d="M4.92866 9.43213L2.1542 11.3743C2.11435 11.4021 2.07969 11.4368 2.0518 11.4767C1.91983 11.6652 1.96568 11.925 2.1542 12.0569L9.76095 17.3817C9.90442 17.4821 10.0954 17.4821 10.2388 17.3817L17.8456 12.0569C17.8854 12.0291 17.9201 11.9944 17.948 11.9545C18.08 11.766 18.0341 11.5062 17.8456 11.3743L15.0712 9.4322L13.6865 10.4974L15.4266 11.7156L9.9999 15.5139L4.5724 11.7156L6.31314 10.4971L4.92866 9.43213Z" fill="#636C78"/>
<path d="M9.16663 5H10.8333V11.6667C10.8333 12.1269 10.4602 12.5 9.99996 12.5C9.53972 12.5 9.16663 12.1269 9.16663 11.6667V5Z" fill="#33383E"/>
<path fill-rule="evenodd" clip-rule="evenodd" d="M10 5.34523L12.3274 7.67264C12.6528 7.99808 13.1805 7.99808 13.5059 7.67264C13.8314 7.3472 13.8314 6.81956 13.5059 6.49413L10.7366 3.72477C10.3298 3.31798 9.67023 3.31798 9.26343 3.72477L6.49408 6.49413C6.16864 6.81956 6.16864 7.3472 6.49408 7.67264C6.81951 7.99808 7.34715 7.99808 7.67259 7.67264L10 5.34523Z" fill="#33383E"/>
</g>
</svg>
