<svg width="24px" height="24px" viewBox="0 0 24 24" version="1.1" xmlns="http://www.w3.org/2000/svg">
    <path d="M2.19953174,15.3603278 L3.94337797,14.1396354 L12,19.779 L20.056622,14.1396354 L21.8004683,15.3603278 L12.2867312,22.0199437 C12.1145711,22.1404558 11.8854289,22.1404558 11.7132688,22.0199437 L2.19953174,15.3603278 Z M12.2867312,2.20071182 L21.4148343,8.59038404 C21.641059,8.74874129 21.6960764,9.06050652 21.5377191,9.28673117 C21.5042447,9.33455183 21.462655,9.3761415 21.4148343,9.40961596 L12.2867312,15.7992882 C12.1145711,15.9198002 11.8854289,15.9198002 11.7132688,15.7992882 L2.58516566,9.40961596 C2.35894101,9.25125871 2.30392362,8.93949348 2.46228087,8.71326883 C2.49575533,8.66544817 2.537345,8.6238585 2.58516566,8.59038404 L11.7132688,2.20071182 C11.8854289,2.08019977 12.1145711,2.08019977 12.2867312,2.20071182 Z M12,4.441 L5.487,9 L12,13.558 L18.512,9 L12,4.441 Z" id="Shape" stroke="none"></path>
</svg>