<?xml version="1.0" encoding="utf-8"?>
<!-- Generator: Adobe Illustrator 21.0.0, SVG Export Plug-In . SVG Version: 6.00 Build 0)  -->
<svg version="1.1" id="图层_1" xmlns="http://www.w3.org/2000/svg" xmlns:xlink="http://www.w3.org/1999/xlink" x="0px" y="0px"
	 viewBox="0 0 24 24" style="enable-background:new 0 0 24 24;" xml:space="preserve">
<path d="M11.3,3.5c0.5,0,1,0,1.4,0c0.1,0,0.2,0,0.4,0c0.7,0.1,1.4,0.2,2.1,0.4c1.7,0.5,3.2,1.4,4.4,2.8c0.8,1,1.3,2.1,1.5,3.3
	c0,0.1,0,0.2,0,0.3c0,0.3,0,0.6,0,0.8c0,0.1,0,0.3-0.1,0.4c-0.1,0.9-0.4,1.7-0.9,2.4c-0.6,1-1.4,1.8-2.3,2.5c-1.1,1-2.4,1.9-3.7,2.7
	c-0.8,0.5-1.6,1-2.5,1.4c-0.1,0-0.2,0-0.3,0c-0.1-0.1-0.2-0.2-0.2-0.3c0-0.2,0-0.3,0.1-0.5c0.1-0.4,0.1-0.7,0.1-1.1
	c0-0.2-0.1-0.4-0.3-0.5c-0.2-0.1-0.4-0.2-0.7-0.2c-0.7-0.1-1.3-0.3-2-0.5c-1.6-0.6-3-1.5-4.1-2.8c-0.7-0.9-1.2-1.9-1.3-3.1
	c0-0.2,0-0.4-0.1-0.6c0-0.1,0-0.3,0-0.4c0,0,0-0.1,0-0.1c0-0.7,0.2-1.3,0.4-1.9c0.6-1.4,1.5-2.4,2.7-3.3c1.5-1,3.1-1.5,4.8-1.7
	C11,3.5,11.2,3.5,11.3,3.5z M13.7,11.2C13.7,11.2,13.7,11.2,13.7,11.2c-0.1,0-0.1-0.1-0.1-0.1c-0.6-0.8-1.1-1.5-1.7-2.3
	c-0.1-0.1-0.1-0.1-0.2-0.2C11.4,8.5,11,8.7,11,9.1c0,0.5,0,1,0,1.5c0,0.6,0,1.3,0,1.9c0,0.1,0,0.1,0,0.2c0.1,0.2,0.3,0.4,0.5,0.4
	c0.2,0,0.4-0.2,0.4-0.5c0-0.7,0-1.4,0-2c0,0,0-0.1,0-0.1c0,0,0,0.1,0.1,0.1c0.3,0.5,0.7,0.9,1,1.4c0.2,0.3,0.5,0.7,0.7,1
	c0.1,0.2,0.3,0.2,0.5,0.2c0.2-0.1,0.3-0.2,0.3-0.5c0-1.2,0-2.4,0-3.6c0-0.2-0.2-0.4-0.4-0.5c-0.3,0-0.5,0.2-0.5,0.5c0,0.7,0,1.3,0,2
	C13.7,11.1,13.7,11.2,13.7,11.2z M16.3,10.4c0-0.3,0-0.6,0-0.8c0.4,0,0.9,0,1.3,0c0.3,0,0.5-0.2,0.5-0.5c0-0.3-0.2-0.5-0.5-0.5
	c-0.6,0-1.2,0-1.8,0c-0.3,0-0.5,0.2-0.5,0.5c0,1.2,0,2.3,0,3.5c0,0.3,0.2,0.5,0.5,0.5c0.6,0,1.2,0,1.8,0c0.3,0,0.5-0.2,0.5-0.5
	c0-0.3-0.2-0.5-0.5-0.5c-0.4,0-0.8,0-1.2,0c0,0-0.1,0-0.1,0c0-0.3,0-0.6,0-0.8c0.1,0,0.3,0,0.4,0c0.3,0,0.6,0,0.9,0
	c0.2,0,0.4-0.1,0.5-0.4c0.1-0.2,0-0.4-0.2-0.5c-0.1-0.1-0.2-0.1-0.3-0.1C17.1,10.4,16.7,10.4,16.3,10.4z M7.1,12.2
	c0-0.1,0-0.1,0-0.2c0-1,0-1.9,0-2.9c0-0.1,0-0.2,0-0.2C7,8.7,6.8,8.6,6.6,8.6c-0.2,0-0.4,0.2-0.4,0.5c0,1.2,0,2.3,0,3.5
	c0,0.3,0.2,0.5,0.5,0.5c0.5,0,1,0,1.5,0c0.1,0,0.2,0,0.3,0c0.2,0,0.4-0.2,0.4-0.5c0-0.2-0.2-0.4-0.4-0.5c-0.1,0-0.1,0-0.2,0
	C7.9,12.2,7.5,12.2,7.1,12.2z M10.3,10.9C10.3,10.9,10.3,10.9,10.3,10.9c0-0.6,0-1.2,0-1.7c0-0.3-0.2-0.5-0.5-0.5
	c-0.3,0-0.5,0.2-0.5,0.5c0,1.2,0,2.3,0,3.5c0,0.1,0,0.2,0.1,0.3c0.1,0.2,0.3,0.3,0.5,0.2c0.2-0.1,0.4-0.2,0.4-0.5
	C10.3,12,10.3,11.5,10.3,10.9z" />
</svg>
