<svg width="20" height="20" viewBox="0 0 20 20" xmlns="http://www.w3.org/2000/svg">
<mask id="mask0" mask-type="alpha" maskUnits="userSpaceOnUse" x="0" y="0" width="20" height="20">
<path fill-rule="evenodd" clip-rule="evenodd" d="M0 0H20V20H0V0Z" fill="white"/>
</mask>
<g mask="url(#mask0)">
<path fill-rule="evenodd" clip-rule="evenodd" d="M9.03852 11.8484L6.17414 15.2621C5.43455 16.1435 4.12048 16.2584 3.23907 15.5189C2.35767 14.7793 2.2427 13.4652 2.98229 12.5838L5.84666 9.17016L4.56992 8.09885L1.70555 11.5125C0.374289 13.099 0.581229 15.4643 2.16776 16.7956C3.75429 18.1269 6.11962 17.9199 7.45088 16.3334L10.3153 12.9198L9.03852 11.8484ZM10.1098 10.5717L11.3866 11.643L14.2509 8.22939C15.5822 6.64286 15.3753 4.27752 13.7887 2.94627C12.2022 1.61501 9.83687 1.82195 8.50561 3.40848L5.64123 6.82211L6.91797 7.89342L9.78235 4.47979C10.5219 3.59839 11.836 3.48342 12.7174 4.22301C13.5988 4.9626 13.7138 6.27667 12.9742 7.15808L10.1098 10.5717ZM10.492 8.17153L6.74114 12.6416L5.4644 11.5703L9.21527 7.10022L10.492 8.17153ZM15.833 10.8335L18.333 10.8335V9.16684L15.833 9.16684V10.8335ZM18.333 14.1668L13.7497 14.1668V12.5002H18.333V14.1668ZM18.333 17.5002L10.833 17.5002V15.8335H18.333V17.5002Z" />
</g>
</svg>
