<svg width="20" height="20" viewBox="0 0 20 20" xmlns="http://www.w3.org/2000/svg">
<mask id="mask0" mask-type="alpha" maskUnits="userSpaceOnUse" x="0" y="0" width="20" height="20">
<path fill-rule="evenodd" clip-rule="evenodd" d="M0 -6.10352e-05H20V19.9999H0V-6.10352e-05Z" fill="white"/>
</mask>
<g mask="url(#mask0)" />
<path d="M6.27051 6.85901L3.91349 4.50199L4.50275 3.91274L6.85977 6.26976L6.27051 6.85901Z" />
<path d="M5.18441 8.92141H1.85107V8.08808H5.18441L5.18441 8.92141Z" />
<path d="M8.92128 5.18458V1.85124L8.08795 1.85124V5.18458H8.92128Z" />
<path d="M13.1403 13.7288L15.4974 16.0858L16.0866 15.4966L13.7296 13.1396L13.1403 13.7288Z" />
<path d="M11.078 18.1482L11.078 14.8149H11.9113V18.1482H11.078Z" />
<path d="M18.1481 11.0781L14.8147 11.0781V11.9114H18.1481V11.0781Z" />
<path d="M4.108 11.1783L7.05428 8.23198L8.23279 9.41049L5.28651 12.3568C4.63564 13.0076 4.63564 14.0629 5.28651 14.7138C5.93738 15.3647 6.99266 15.3647 7.64353 14.7138L10.5898 11.7675L11.7683 12.946L8.82204 15.8923C7.5203 17.1941 5.40975 17.1941 4.108 15.8923C2.80625 14.5906 2.80625 12.48 4.108 11.1783Z" />
<path d="M14.7146 7.64273L11.7683 10.589L12.9468 11.7675L15.8931 8.82124C17.1949 7.51949 17.1949 5.40894 15.8931 4.10719C14.5914 2.80544 12.4808 2.80544 11.1791 4.10719L8.23279 7.05347L9.4113 8.23198L12.3576 5.2857C13.0085 4.63483 14.0637 4.63483 14.7146 5.2857C15.3655 5.93658 15.3655 6.99185 14.7146 7.64273Z" />
</svg>
