<svg width="20" height="20" viewBox="0 0 20 20" xmlns="http://www.w3.org/2000/svg">
<path fill-rule="evenodd" clip-rule="evenodd" d="M5.41663 10.8333C4.72627 10.8333 4.16663 10.2736 4.16663 9.58329C4.16663 8.89294 4.72627 8.33329 5.41663 8.33329C6.10698 8.33329 6.66663 8.89294 6.66663 9.58329C6.66663 10.2736 6.10698 10.8333 5.41663 10.8333ZM14.5833 10.8333C13.8929 10.8333 13.3333 10.2736 13.3333 9.58329C13.3333 8.89294 13.8929 8.33329 14.5833 8.33329C15.2736 8.33329 15.8333 8.89294 15.8333 9.58329C15.8333 10.2736 15.2736 10.8333 14.5833 10.8333ZM12.0833 7.49996C11.3929 7.49996 10.8333 6.94031 10.8333 6.24996C10.8333 5.5596 11.3929 4.99996 12.0833 4.99996C12.7736 4.99996 13.3333 5.5596 13.3333 6.24996C13.3333 6.94031 12.7736 7.49996 12.0833 7.49996ZM7.91663 7.49996C7.22627 7.49996 6.66663 6.94031 6.66663 6.24996C6.66663 5.5596 7.22627 4.99996 7.91663 4.99996C8.60698 4.99996 9.16663 5.5596 9.16663 6.24996C9.16663 6.94031 8.60698 7.49996 7.91663 7.49996ZM9.99996 18.4324C5.3976 18.4324 1.66663 14.6023 1.66663 9.99996C1.66663 5.39759 5.39759 1.66663 9.99996 1.66663C14.6023 1.66663 18.3333 5.39759 18.3333 9.99996C18.3333 12.4405 16.1206 15.6493 12.0833 14.4216C10.7313 14.0105 13.8921 18.4324 9.99996 18.4324ZM9.99996 16.7657C10.1529 16.7657 10.274 16.7562 10.3648 16.7414C10.3618 16.7015 10.3583 16.6466 10.3514 16.5762C10.335 16.409 10.3026 16.2214 10.2436 15.9397C10.2325 15.8869 10.2152 15.8056 10.1855 15.6658C10.161 15.5496 10.1429 15.4597 10.1267 15.3718C10.0749 15.0898 10.0486 14.862 10.0554 14.6175C10.0921 13.3047 11.2454 12.4248 12.5682 12.827C14.9482 13.5507 16.6666 12.0013 16.6666 9.99996C16.6666 6.31806 13.6819 3.33329 9.99996 3.33329C6.31806 3.33329 3.33329 6.31806 3.33329 9.99996C3.33329 13.7068 6.3428 16.7657 9.99996 16.7657Z"/>
</svg>
