<svg class="icon" viewBox="0 0 1024 1024" xmlns="http://www.w3.org/2000/svg" width="200" height="200"><defs><style/></defs><path d="M1004.216 116.48l-107.52-99.2A64 64 0 0 0 854.456 0a64 64 0 0 0-45.44 19.2L19.256 816a64 64 0 0 0 0 91.52l109.44 99.2a64 64 0 0 0 43.52 17.28 64 64 0 0 0 45.44-19.2l788.48-796.8a64 64 0 0 0-1.92-91.52zm-272 232.32l-57.6-58.24 181.12-182.4 59.52 55.68zM224.696 448l51.2-172.8 172.8-51.2-172.8-51.2L224.696 0l-51.2 172.8L.696 224l172.8 51.2 51.2 172.8zm576 128l-51.2 172.8-172.8 51.2 172.8 51.2 51.2 172.8 51.2-172.8 172.8-51.2-172.8-51.2-51.2-172.8z"/></svg>