<?xml version="1.0" encoding="UTF-8"?>
<svg width="28px" height="28px" viewBox="0 0 28 28" version="1.1" xmlns="http://www.w3.org/2000/svg" xmlns:xlink="http://www.w3.org/1999/xlink">
    <!-- Generator: Sketch 60.1 (88133) - https://sketch.com -->
    <title>Icon/Editor/组件</title>
    <desc>Created with Sketch.</desc>
    <g id="Icon/Editor/组件" stroke="none" stroke-width="1" fill-rule="evenodd">
        <g id="编组-2" transform="translate(15.646447, 17.096194) rotate(-315.000000) translate(-15.646447, -17.096194) translate(7.146447, 8.596194)"></g>
        <path d="M9,10 L11,10 L11,17.764 L12.6183133,20.998998 L15.3816867,20.998998 L17,17.762 L17,10 L19,10 L19,18 C19,18.1164338 18.9796684,18.2316684 18.9402128,18.3405882 L18.8944272,18.4472136 L14.8944272,26.4472136 C14.5452989,27.1454701 13.5829207,27.1822204 13.1692399,26.5574646 L13.1055728,26.4472136 L9.10557281,18.4472136 C9.05350202,18.343072 9.02015271,18.2309105 9.00673248,18.1158446 L9,18 L9,10 Z M17,3 C18.1045695,3 19,3.8954305 19,5 L19,8 L9,8 L9,5 C9,3.8954305 9.8954305,3 11,3 L17,3 Z" id="形状结合" transform="translate(14.000000, 15.000000) rotate(-315.000000) translate(-14.000000, -15.000000) "></path>
    </g>
</svg>