<svg width="20" height="20" viewBox="0 0 20 20" xmlns="http://www.w3.org/2000/svg">
<path fill-rule="evenodd" clip-rule="evenodd" d="M9.43531 14.8962L5.84911 12.0501H3.33318V7.87606L5.84911 7.8761L9.43531 5.02998V14.8962ZM3.24984 7.79276V12.1335H5.82006L9.51862 15.0687V15.0687L5.82004 12.1335H3.24982V7.79276H3.24984ZM9.83164 2.58768L5.26809 6.20939L2.44982 6.20943C2.01718 6.20943 1.6665 6.56019 1.6665 6.99277V12.9334C1.6665 13.3661 2.01718 13.7168 2.44982 13.7168H5.26809L9.83165 17.3385C10.345 17.7459 11.1019 17.3804 11.1019 16.725V3.20127C11.1019 2.54589 10.345 2.18018 9.83164 2.58768ZM5.29714 6.29272L2.44982 6.29276C2.22857 6.29276 2.03131 6.39541 1.90304 6.55568C2.03131 6.39543 2.22856 6.29279 2.4498 6.29279L5.29712 6.29275L5.29714 6.29272ZM9.88345 2.65295L9.88343 2.65298C10.3422 2.28884 11.0186 2.61562 11.0186 3.2013V16.725C11.0186 16.7979 11.0081 16.8668 10.9888 16.9309C11.0081 16.8668 11.0186 16.7979 11.0186 16.725V3.20127C11.0186 2.61559 10.3422 2.28882 9.88345 2.65295Z"/>
<path d="M18.3746 9.99997C18.3746 7.85251 17.3274 5.82087 15.5725 4.56579C15.291 4.36521 14.901 4.43005 14.7002 4.71052C14.4994 4.99138 14.5641 5.382 14.8449 5.58278C16.2725 6.60329 17.1246 8.25505 17.1246 9.99997C17.1246 11.7449 16.2727 13.3967 14.8449 14.4172C14.5641 14.6179 14.4994 15.0086 14.7002 15.2894C14.8223 15.4597 15.0145 15.5508 15.2092 15.5508C15.335 15.5508 15.4619 15.5129 15.5723 15.4342C17.3272 14.1791 18.3746 12.1478 18.3746 9.99997Z"/>
<path d="M13.9437 6.95578C13.6794 6.73449 13.2857 6.76847 13.063 7.03215C12.8412 7.2964 12.8752 7.69074 13.1394 7.91281C13.7675 8.44074 14.1275 9.20148 14.1275 9.99992C14.1275 10.7984 13.7673 11.5587 13.1394 12.0866C12.8752 12.3089 12.841 12.703 13.063 12.9673C13.1867 13.1144 13.364 13.1902 13.5421 13.1902C13.6837 13.1902 13.8265 13.1419 13.9437 13.0437C14.855 12.2777 15.3775 11.1687 15.3775 9.99992C15.3773 8.83137 14.8548 7.72219 13.9437 6.95578V6.95578Z"/>
</svg>
