<svg width="20" height="20" xmlns="http://www.w3.org/2000/svg"><g fill="none" fill-rule="evenodd"><path d="M-89-205h1440v900H-89z" fill="#EBEDF0"/><path d="M-24-148h284v843H-24z" fill="#FFF"/><path fill="#F8FAFC" d="M-12-20h260v60H-12z"/><path d="M3.214 17.143a.357.357 0 0 1-.357-.357V3.214c0-.197.16-.357.357-.357h5c.198 0 .357.16.357.357v3.928H12.5c.197 0 .357.16.357.358v3.928h3.929c.197 0 .357.16.357.358v5c0 .197-.16.357-.357.357H3.214zm3.928-4.287l-2.856.001v2.857h2.857v-2.858zm1.43 0v2.858h2.857v-2.858H8.57zm4.284.001v2.857h2.858v-2.857h-2.858zm-1.428-1.429V8.571H8.572v2.857h2.857zM7.142 8.571H4.286v2.857h2.856V8.571zm0-4.285H4.287v2.856h2.856V4.286z" fill-rule="nonzero" fill="#33383E"/><path d="M3.214 17.143a.357.357 0 0 1-.357-.357V3.214c0-.197.16-.357.357-.357h5c.198 0 .357.16.357.357v3.928H12.5c.197 0 .357.16.357.358v3.928h3.929c.197 0 .357.16.357.358v5c0 .197-.16.357-.357.357H3.214zm3.928-4.287l-2.856.001v2.857h2.857v-2.858zm1.43 0v2.858h2.857v-2.858H8.57zm4.284.001v2.857h2.858v-2.857h-2.858zm-1.428-1.429V8.571H8.572v2.857h2.857zM7.142 8.571H4.286v2.857h2.856V8.571zm0-4.285H4.287v2.856h2.856V4.286z" fill="#33383E" fill-rule="nonzero"/></g></svg>