<svg xmlns="http://www.w3.org/2000/svg" viewBox="0 0 28 28"><path d="M22.9 5.4v-.2c-.1-1.1-1.1-1.9-2.2-1.7l-12 1.7c-1 .1-1.8 1-1.8 2V18c-.5-.2-1-.3-1.5-.3-1.9 0-3.5 1.6-3.5 3.5s1.6 3.5 3.5 3.5 3.5-1.6 3.5-3.5v-8.7l12-1.7v4.9c-.5-.2-1-.4-1.5-.4-1.9 0-3.5 1.6-3.5 3.5s1.6 3.5 3.5 3.5 3.4-1.5 3.5-3.4V5.4zM5.4 22.6c-.8 0-1.5-.7-1.5-1.5s.7-1.5 1.5-1.5 1.5.7 1.5 1.5v.1c0 .7-.7 1.4-1.5 1.4zm3.5-12.3V7.1l12-1.7v3.2l-12 1.7zm10.5 9.9c-.8 0-1.5-.7-1.5-1.5s.7-1.5 1.5-1.5 1.5.7 1.5 1.5-.7 1.5-1.5 1.5z"/></svg>