<svg class="prefix__icon" viewBox="0 0 2048 1024" width="400" height="200"><defs><style/></defs><path d="M1877.333 0A170.667 170.667 0 0 1 2048 170.667v682.666A170.667 170.667 0 0 1 1877.333 1024H170.667A170.667 170.667 0 0 1 0 853.333V170.667A170.667 170.667 0 0 1 170.667 0h1706.666zM375.808 286.976H291.84V768h96.341V467.03h5.974L616.192 768h83.285V286.976h-96.341v299.69h-5.973l-221.355-299.69zm704 0H761.173V768h318.635v-86.016H861.867V565.077h205.653v-79.701H861.867v-112.47h217.941v-85.93zm151.381 0H1126.4L1253.803 768h95.061l89.941-318.293h5.376L1535.147 768h94.378l127.659-481.024h-104.021l-74.326 339.03h-5.29l-89.344-339.03h-84.992l-87.723 339.03h-5.29l-75.094-339.03z"/></svg>