<svg width="14" height="14" xmlns="http://www.w3.org/2000/svg"><path d="M2.058.748c.16-.131.31-.257.469-.388 1.916.547 3.834 1.085 5.75 1.632.212 1.771 1.02 3.487 2.391 5.138l-1.161.964-.032.025-.039.023-.031.024-.032.025-.031.025-.032.024-.031.025-.032.025-.031.025-.031.024-.032.025-.031.025-.032.024-.031.025-.032.025-.031.024-.032.025-.031.025-.032.024-.031.025-.032.025-.031.025-.032.024-.031.025-.031.025-.032.024-.575.476-.031.025-.031.024-.032.025-.031.025-.032.024-.031.025-.032.025-.031.024-.032.025-.031.025-.032.025-.031.024-.032.025-.031.025-.032.024-.031.025-.031.025-.032.024-.031.025-.032.025-.031.025-.032.024-.031.025-.002.008-1.246 1.032c-1.371-1.65-2.907-2.75-4.618-3.29-.18-1.987-.362-3.966-.552-5.946l.469-.388L4.07 4.368a1.446 1.446 0 1 0 2.291-.082A1.44 1.44 0 0 0 4.643 3.9L2.058.748zm3.93 11.174l1.347 1.62 5.999-4.986-1.35-1.612-5.996 4.978z"/></svg>