<?xml version="1.0" encoding="utf-8"?>
<!-- Generator: Adobe Illustrator 21.0.0, SVG Export Plug-In . SVG Version: 6.00 Build 0)  -->
<svg version="1.1" id="图层_1" xmlns="http://www.w3.org/2000/svg" xmlns:xlink="http://www.w3.org/1999/xlink" x="0px" y="0px"
	 viewBox="0 0 24 24" style="enable-background:new 0 0 24 24;" xml:space="preserve">
<path d="M15.7,3.8H8.3c-0.9,0-1.6,0.8-1.6,1.6v13c0,0.9,0.8,1.6,1.6,1.6h7.4c0.9,0,1.6-0.8,1.6-1.6v-13C17.3,4.6,16.6,3.8,15.7,3.8z
	 M11.8,18.8c-0.5,0-0.9-0.4-0.9-0.9s0.4-0.9,0.9-0.9s0.9,0.4,0.9,0.9C12.7,18.5,12.3,18.8,11.8,18.8L11.8,18.8z M16,16.2H8v-10h8
	V16.2L16,16.2z"/>
</svg>
