<svg width="24" height="24" viewBox="0 0 24 24" xmlns="http://www.w3.org/2000/svg">
<path fill-rule="evenodd" clip-rule="evenodd" d="M8.57143 11.1429C9.5182 11.1429 10.2857 10.3753 10.2857 9.42857C10.2857 8.4818 9.5182 7.71429 8.57143 7.71429C7.62465 7.71429 6.85714 8.4818 6.85714 9.42857C6.85714 10.3753 7.62465 11.1429 8.57143 11.1429Z" />
<path fill-rule="evenodd" clip-rule="evenodd" d="M14.0235 11.9647C14.6562 11.2416 15.7137 11.0706 16.5421 11.5575L21.0781 14.2236L20.0647 15.9478L15.5287 13.2817L9.324 20.3728L7.81885 19.0558L14.0235 11.9647Z" />
<path fill-rule="evenodd" clip-rule="evenodd" d="M20 5H4V19H20V5ZM4 3C2.89543 3 2 3.89543 2 5V19C2 20.1046 2.89543 21 4 21H20C21.1046 21 22 20.1046 22 19V5C22 3.89543 21.1046 3 20 3H4Z" />
</svg>
