<svg width="24" height="24" viewBox="0 0 24 24" fill="none" xmlns="http://www.w3.org/2000/svg">
<path fill-rule="evenodd" clip-rule="evenodd" d="M5 8.5H19V4.5C19 3.39543 18.1046 2.5 17 2.5H5C3.89543 2.5 3 3.39543 3 4.5V16.5C3 17.6046 3.89543 18.5 5 18.5H8V16.5H5V8.5ZM5 4.5H17V6.5H5V4.5Z" fill="black"/>
<path d="M20.1062 9.9463C20.7012 9.35124 21.6659 9.35123 22.2609 9.9463C22.8558 10.5413 22.8558 11.5059 22.2609 12.1009L21.5102 12.8515L19.3556 10.697L20.1062 9.9463Z" fill="black"/>
<path d="M10.3536 19.6988L18.4869 11.5657L20.6412 13.7206L12.5083 21.8535L10 22.1737L10.3536 19.6988Z" fill="black"/>
</svg>
