<svg width="28" height="28" xmlns="http://www.w3.org/2000/svg"><path d="M11.18 8.529l-1.855 2.277-.668.839c-.144.183-.27.345-.38.488l-.08.107C7.026 13.783 6.5 15.26 6.5 16.867 6.5 20.788 9.84 24 14 24v2c-5.247 0-9.5-4.089-9.5-9.133 0-1.92.59-3.72 1.869-5.517l.232-.317C7.561 9.765 10.028 6.754 14 2l2.885 3.473c1.955 2.37 3.323 4.065 4.118 5.088l.364.472.232.317c1.279 1.797 1.869 3.597 1.869 5.517 0 4.867-3.96 8.845-8.952 9.118l-.273.011-.242.003v-2c4.143-.016 7.467-3.22 7.467-7.132 0-1.506-.464-2.898-1.485-4.338l-.293-.396-.379-.488-.668-.839-1.855-2.277L14 5.159l-2.82 3.37z"/></svg>