<?xml version="1.0" encoding="utf-8"?>
<!-- Generator: Adobe Illustrator 21.0.0, SVG Export Plug-In . SVG Version: 6.00 Build 0)  -->
<svg version="1.1" id="图层_1" xmlns="http://www.w3.org/2000/svg" xmlns:xlink="http://www.w3.org/1999/xlink" x="0px" y="0px"
	 viewBox="0 0 24 24" style="enable-background:new 0 0 24 24;" xml:space="preserve">
<path d="M12.2,4.1C9.4,4,7.1,6.2,7,9.1v1.6c0,0-2,5-2,5.6c0,1,0.3,1,0.6,0.7L7,15.6V16c0.2,1,0.6,1.9,1.3,2.6
	c-0.6,0.3-1.6,0.7-1.6,1.3h10.7c0-0.7-1-1-1.7-1.3c0.8-0.6,1.2-1.6,1.3-2.6v-0.4c0,0,0.3,0.4,1.3,1.3c0.4,0.4,0.7,0.4,0.7-0.6
	c0-0.6-1.9-5.3-2-5.6l0,0V9C16.9,6.3,14.8,4.2,12.2,4.1z"/>
</svg>
