<svg width="16" height="16" xmlns="http://www.w3.org/2000/svg"><path d="M7.686 11.947c.384 0 .716.118.978.355.244.237.384.541.384.913s-.14.693-.402.93a1.371 1.371 0 01-.96.355c-.385 0-.7-.135-.961-.372-.262-.237-.384-.541-.384-.913s.122-.676.384-.913.576-.355.96-.355zM8 1.5c1.135 0 2.061.287 2.76.896.699.592 1.048 1.404 1.048 2.435 0 .845-.227 1.539-.646 2.08-.158.169-.664.625-1.503 1.335a2.637 2.637 0 00-.698.846 2.327 2.327 0 00-.262 1.099v.237H6.69v-.237c0-.643.105-1.2.35-1.657.226-.457.908-1.167 2.043-2.148l.21-.236c.314-.372.471-.778.471-1.2 0-.559-.174-.998-.489-1.32-.332-.32-.803-.473-1.397-.473-.769 0-1.31.22-1.642.693-.297.39-.437.947-.437 1.657H3.808c0-1.251.367-2.232 1.135-2.942C5.694 1.855 6.707 1.5 8 1.5z" fill-rule="nonzero"/></svg>