<svg width="20" height="20" viewBox="0 0 20 20" xmlns="http://www.w3.org/2000/svg">
<path fill-rule="evenodd" clip-rule="evenodd" d="M7.08333 7.91667C7.08333 6.3 8.38333 5 10 5C11.6167 5 12.9167 6.3 12.9167 7.91667C12.9167 9.53333 11.6167 10.8333 10 10.8333C8.38333 10.8333 7.08333 9.53333 7.08333 7.91667ZM8.75 7.91667C8.75 8.60833 9.30833 9.16667 10 9.16667C10.6917 9.16667 11.25 8.60833 11.25 7.91667C11.25 7.225 10.6917 6.66667 10 6.66667C9.30833 6.66667 8.75 7.225 8.75 7.91667Z" />
<path d="M15.0527 15.8333C14.044 14.0897 12.1589 13.75 9.99971 13.75C7.84056 13.75 5.95539 14.0897 4.94678 15.8333H3.08797C4.2259 13.14 6.89209 12.0833 9.99971 12.0833C13.1073 12.0833 15.7735 13.14 16.9115 15.8333H15.0527Z" />
<path fill-rule="evenodd" clip-rule="evenodd" d="M15.8333 4.16667H4.16667V15.8333H15.8333V4.16667ZM4.16667 2.5C3.24619 2.5 2.5 3.24619 2.5 4.16667V15.8333C2.5 16.7538 3.24619 17.5 4.16667 17.5H15.8333C16.7538 17.5 17.5 16.7538 17.5 15.8333V4.16667C17.5 3.24619 16.7538 2.5 15.8333 2.5H4.16667Z" />
</svg>
