<svg class="icon" viewBox="0 0 1024 1024" xmlns="http://www.w3.org/2000/svg" width="200" height="200"><defs><style/></defs><path d="M241.751 241.102c-49.237 49.238-82.544 107.164-99.922 173.779-16.895 65.167-16.895 130.334 0 195.5a375.979 375.979 0 0 0 99.922 173.78 375.979 375.979 0 0 0 173.779 99.922 383.36 383.36 0 0 0 195.5 0 375.979 375.979 0 0 0 173.78-99.923 379.35 379.35 0 0 0 83.992-125.99 390.912 390.912 0 0 0 28.24-144.09l-86.89-1.449a301.184 301.184 0 0 1-20.998 112.232 292.267 292.267 0 0 1-65.167 98.475c-38.618 38.617-83.51 64.684-134.679 78.2a298.07 298.07 0 0 1-152.78.724c-51.65-13.033-96.785-38.859-135.402-77.476-38.618-38.617-64.443-83.752-77.477-135.402a298.07 298.07 0 0 1 .724-152.78 293.845 293.845 0 0 1 78.2-134.68c38.618-38.617 83.511-64.683 134.68-78.2a300.544 300.544 0 0 1 152.055 0 293.845 293.845 0 0 1 134.679 78.2l-90.51 90.51h243.29l-1.448-7.24V150.593l-90.51 90.51c-49.237-49.238-107.163-82.545-173.778-99.923-65.167-16.895-130.334-16.895-195.501 0a375.979 375.979 0 0 0-173.779 99.922z"/></svg>