<?xml version="1.0" encoding="UTF-8"?>
<svg width="24px" height="24px" viewBox="0 0 24 24" version="1.1" xmlns="http://www.w3.org/2000/svg" xmlns:xlink="http://www.w3.org/1999/xlink">
    <!-- Generator: Sketch 60.1 (88133) - https://sketch.com -->
    <title>Icon/翻转</title>
    <desc>Created with Sketch.</desc>
    <g id="Icon/翻转" stroke="none" stroke-width="1" fill="none" fill-rule="evenodd">
        <g id="rotate_left" transform="translate(2.428571, 1.000000)" fill="#606C79" fill-rule="nonzero">
            <path d="M2.59651711,13.0527984 L0.573433602,13.0527984 C0.760242255,14.7470831 1.42543013,16.3532006 2.49125261,17.683434 L3.91984229,16.2538418 C3.21612678,15.3151319 2.76031561,14.2142203 2.59451206,13.0527984 L2.59651711,13.0527984 Z M3.91883977,7.84370925 L2.48924756,6.41612209 C1.42394915,7.74551442 0.758791192,9.35051658 0.571428571,11.0437501 L2.59250703,11.0437501 C2.75876941,9.88258534 3.21492082,8.78202955 3.91883977,7.84370925 L3.91883977,7.84370925 Z M8.53945019,18.996734 C7.37802823,18.8309304 6.27711669,18.3751193 5.33840678,17.6714038 L3.90981709,19.100996 C5.23988474,20.1662833 6.84562047,20.8311094 8.53945019,21.0178124 L8.53945019,18.9977365 L8.53945019,18.996734 Z M10.5444883,18.996734 L10.5444883,21.0178124 C15.3057962,20.4890148 18.8237815,16.3314213 18.5572359,11.5482599 C18.2906903,6.76509853 14.3325504,3.02411834 9.54196925,3.02760762 L9.54196925,0 L5.28828083,4.25268592 L9.54196925,8.50637437 L9.54196925,5.03264577 C13.2248537,5.02972521 16.283427,7.87432485 16.5471523,11.5477559 C16.8108777,15.2211869 14.1900201,18.473528 10.5444883,18.996734 Z" id="形状"></path>
        </g>
    </g>
</svg>
