<svg xmlns="http://www.w3.org/2000/svg" viewBox="0 0 62 62"><path d="M30.35 62a30.39 30.39 0 0 0 26.09-15.14 4.21 4.21 0 0 0-1.44-5.7 4 4 0 0 0-5.58 1.44 22.25 22.25 0 0 1-19.1 11.09A22.48 22.48 0 0 1 8.14 31 22.48 22.48 0 0 1 30.35 8.31 22 22 0 0 1 49 18.68a4 4 0 0 0 5.63 1.23 4.2 4.2 0 0 0 1.2-5.75A30.09 30.09 0 0 0 30.35 0C13.62 0 0 13.91 0 31s13.62 31 30.35 31z"/><path d="M62 4.26v20a2.1 2.1 0 0 1-2.09 2.11H40.08a2.11 2.11 0 0 1-1.48-3.59l19.84-20a2.08 2.08 0 0 1 3 0A2.11 2.11 0 0 1 62 4.26z" class="cls-1"/></svg>