<svg xmlns="http://www.w3.org/2000/svg" viewBox="0 0 62 62"><path d="M31.65 62A30.39 30.39 0 0 1 5.56 46.86 4.21 4.21 0 0 1 7 41.16a4 4 0 0 1 5.58 1.44 22.25 22.25 0 0 0 19.1 11.09A22.48 22.48 0 0 0 53.86 31 22.48 22.48 0 0 0 31.65 8.31 22 22 0 0 0 13 18.68a4 4 0 0 1-5.63 1.23 4.2 4.2 0 0 1-1.2-5.75A30.09 30.09 0 0 1 31.65 0C48.38 0 62 13.91 62 31S48.38 62 31.65 62z"/><path d="M0 4.26v20a2.1 2.1 0 0 0 2.09 2.11h19.83a2.11 2.11 0 0 0 1.48-3.59l-19.84-20a2.08 2.08 0 0 0-2.95 0A2.11 2.11 0 0 0 0 4.26z" class="cls-1"/></svg>