<svg width="20" height="20" viewBox="0 0 20 20" xmlns="http://www.w3.org/2000/svg">
<path fill-rule="evenodd" clip-rule="evenodd" d="M9 0.666656C4.4 0.666656 0.666664 4.39999 0.666664 8.99999C0.666664 13.6 4.4 17.3333 9 17.3333C13.6 17.3333 17.3333 13.6 17.3333 8.99999C17.3333 4.39999 13.6 0.666656 9 0.666656ZM3.7544 13.1092C2.8646 11.976 2.33333 10.5487 2.33333 8.99999C2.33333 5.32499 5.325 2.33332 9 2.33332C10.5907 2.33332 12.0534 2.89383 13.2009 3.82765L3.7544 13.1092ZM4.93827 14.2825C6.06377 15.1501 7.47289 15.6667 9 15.6667C12.675 15.6667 15.6667 12.675 15.6667 8.99999C15.6667 7.51489 15.1781 6.14139 14.3534 5.03181L4.93827 14.2825Z"/>
</svg>
