<svg width="22" height="23" xmlns="http://www.w3.org/2000/svg">
    <path fill-rule="evenodd" clip-rule="evenodd"
        d="M16.752 8.526C16.41 5.623 13.965 3.372 11 3.372S5.59 5.623 5.249 8.525c-2.394.551-4.18 2.715-4.18 5.3 0 3.002 2.409 5.436 5.38 5.436h9.102l.193-.003c2.882-.103 5.186-2.496 5.186-5.433 0-2.585-1.786-4.749-4.178-5.299zm-9.67.148a3.973 3.973 0 017.862.18l.132 1.112 1.093.249.165.042a3.577 3.577 0 01-.836 7.016l-.157.002h-8.71l-.17-.004a3.575 3.575 0 01-.63-7.057l1.093-.249.132-1.112.026-.18z"
         />
    <path fill-rule="evenodd" clip-rule="evenodd"
        d="M8.858 11.813l1.404 1.404 2.81-2.808 1.404 1.404-4.214 4.214-4.213-4.214 1.405 1.404 1.404-1.404z"
         /></svg>