<svg width="24" height="24">
    <path
        d="M15 9V5.016H5.016V9H15zm-3 9.984c.528 0 1.024-.136 1.488-.408.464-.272.832-.64 1.104-1.104.272-.464.408-.96.408-1.488s-.136-1.024-.408-1.488a3.043 3.043 0 0 0-1.104-1.104A2.894 2.894 0 0 0 12 12.984c-.528 0-1.024.136-1.488.408-.464.272-.832.64-1.104 1.104-.272.464-.408.96-.408 1.488s.136 1.024.408 1.488c.272.464.64.832 1.104 1.104.464.272.96.408 1.488.408zM17.016 3L21 6.984v12c0 .544-.2 1.016-.6 1.416-.4.4-.872.6-1.416.6H5.016c-.56 0-1.036-.2-1.428-.6A1.956 1.956 0 0 1 3 18.984V5.016C3 4.472 3.196 4 3.588 3.6c.392-.4.868-.6 1.428-.6h12z" />
    </svg>