<svg xmlns="http://www.w3.org/2000/svg" xmlns:xlink="http://www.w3.org/1999/xlink" width="18px" height="19px" viewBox="0 0 18 19" version="1.1">
    <path d="M7.83975904,0.9 C10.4671805,0.899823196 12.8694066,2.3834836 14.0456787,4.73289364 C15.2219508,7.08230369 14.9705437,9.89455067 13.3961928,11.9980627 L17.0890699,15.6900145 L15.6900145,17.0890699 L12.0073157,13.3897157 C9.59239173,15.2025856 6.28237119,15.2457906 3.82095205,13.4965705 C1.35953291,11.7473505 0.31174633,8.60724762 1.22955969,5.73044841 C2.14737305,2.85364921 4.82009767,0.900537396 7.83975904,0.9 Z M7.86751807,2.76540723 C6.94499276,2.76540723 6.09464097,2.99118073 5.31646265,3.44365302 C4.54726063,3.88741181 3.90665945,4.52354888 3.45753254,5.28962892 C2.99803768,6.06075539 2.75865963,6.94306192 2.76540723,7.84068434 C2.76540723,8.76413494 2.99673254,9.61448675 3.45753254,10.3926651 C3.90904336,11.1605969 4.54923148,11.8004666 5.31738796,12.2515952 C6.09464097,12.7133205 6.94591807,12.9437205 7.86844338,12.9437205 C8.79096869,12.9437205 9.64132048,12.7123952 10.4194988,12.2515952 C11.1856955,11.802212 11.8218433,11.1612811 12.2654747,10.3917398 C12.717947,9.61448675 12.9437205,8.76320965 12.9437205,7.84068434 C12.9437205,6.91815904 12.717947,6.06780724 12.2654747,5.28962892 C11.823829,4.52218653 11.1869412,3.88529876 10.4194988,3.44365302 C9.6455133,2.99251381 8.76428294,2.75822224 7.86844338,2.76540723 L7.86751807,2.76540723 Z" fill-rule="nonzero"/>
</svg>