<svg width="20" height="20" viewBox="0 0 20 20" fill="none" xmlns="http://www.w3.org/2000/svg">
<path d="M4.87875 13.2275L11.8327 6.27353L13.954 8.39485L7.00007 15.3488C6.7044 15.6444 6.34895 15.8499 6.02951 15.9097L4.4384 16.2078C4.14021 16.2636 3.96389 16.0873 4.01975 15.7891L4.31781 14.198C4.37764 13.8786 4.58308 13.5231 4.87875 13.2275Z" stroke="#606770" stroke-width="1.5"/>
<path fill-rule="evenodd" clip-rule="evenodd" d="M15.079 7.91217L15.459 10.2566C15.4848 10.4153 15.4327 10.5766 15.319 10.6902L14.9694 11.0398C14.7742 11.2351 14.4576 11.2351 14.2623 11.0398L9.07687 5.85435C8.8816 5.65909 8.8816 5.3425 9.07687 5.14724L9.43015 4.79396C9.54172 4.68239 9.69939 4.63003 9.85554 4.6527L12.1175 4.98108L14.5453 2.55331C15.3589 1.73972 16.678 1.73972 17.4916 2.55331C18.3052 3.3669 18.3052 4.68599 17.4916 5.49959L15.079 7.91217Z" fill="#606770"/>
</svg>
