<svg width="20" height="20" viewBox="0 0 20 20"  xmlns="http://www.w3.org/2000/svg">
<path d="M6.05714 5.36293C6.05714 6.07215 5.3965 6.64719 4.58149 6.64719C3.7669 6.64719 3.10613 6.07215 3.10613 5.36293C3.10613 4.65398 3.7669 4.07895 4.58163 4.07895C5.3965 4.07895 6.05714 4.65384 6.05714 5.36307V5.36293ZM2.43432 8.58131L3.33973 7.21617C3.33973 7.21617 4.61384 8.17494 4.99966 8.50015C5.38519 8.82537 6.07281 9.37789 6.05598 10.2718C6.039 11.1657 5.77086 11.9461 5.55278 12.4826C5.33498 13.0188 3.90983 15.847 3.90983 15.847L1.73001 14.5304C1.73001 14.5304 3.82625 12.6507 4.63067 11.5073C4.88228 11.1496 5.18394 10.207 4.32887 9.71928C3.47366 9.2316 2.43432 8.58131 2.43432 8.58131Z" />
<path d="M5.23428 7.7687C5.23428 7.7687 6.42467 7.02107 7.59852 3.90002C7.9337 4.01382 9.62714 4.45269 9.62714 4.45269L9.07374 5.44423C9.07374 5.44423 11.6057 4.6966 13.7854 4.6966C13.7854 4.6966 14.9759 4.64779 15.8982 4.94037C16.8203 5.23295 17.7593 5.83457 17.9941 6.80965C18.2287 7.78473 18.4802 11.0359 18.0108 13.9777C18.0108 13.9777 17.9101 14.6607 17.2563 15.262C16.6025 15.8633 15.8143 16.1559 14.4226 16.1559C13.031 16.1559 12.2932 15.8958 12.2932 15.8958L12.5783 14.7579C12.5783 14.7579 13.4335 15.0668 14.104 15.0668C14.7748 15.0668 15.3447 14.7906 15.6466 14.4492C15.6466 14.4492 15.915 14.0592 15.9317 13.734C15.9484 13.409 15.9653 7.16736 15.8982 6.95594C15.8311 6.74467 15.7473 5.94809 14.7076 5.75313C13.6681 5.55817 12.8466 5.688 12.595 5.73695C12.3437 5.78562 10.7675 6.15951 9.97944 6.46826C10.2812 6.56574 10.8682 6.71203 10.8682 6.71203C10.8682 6.71203 10.5999 7.24852 10.1137 7.7687C10.7843 7.75252 15.2442 7.7687 15.2442 7.7687V8.74392H12.377V10.0442H15.2108V11.0196H12.377V13.0838C12.377 13.0838 12.8466 13.0838 13.5339 12.5636C13.4837 12.2061 13.5004 12.1571 13.3328 11.6371C13.7688 11.5396 14.6407 11.247 14.6407 11.247L15.7306 13.8641L14.104 14.4816L13.8022 13.4251C13.8022 13.4251 13.3161 13.9616 12.1256 14.303C10.468 14.7783 9.40949 14.758 9.12437 14.7418C9.12437 14.7418 8.31966 14.7742 7.83343 14.5629C7.34692 14.3518 6.6429 13.8641 6.6429 12.4662C6.6429 11.9949 6.76029 11.6047 6.76029 11.6047L8.80574 11.6209C8.80574 11.6209 8.70533 12.32 8.70533 12.4987C8.70533 12.6774 8.55414 13.4414 10.0296 13.4251C10.0296 12.4012 10.013 11.0033 10.013 11.0033L7.09561 10.9871V10.0117H9.99627V8.77627H9.25845C9.25845 8.77627 8.45373 9.50801 8.00102 9.94688L7.16264 9.2316C7.16264 9.2316 8.13031 8.25638 8.78905 6.84215C8.40353 6.98844 7.73274 7.28102 7.73274 7.28102C7.73274 7.28102 7.2632 7.86618 6.67642 8.46752C6.25723 8.24006 5.23428 7.7687 5.23428 7.7687Z" />
</svg>
