<svg width="24" height="24" viewBox="0 0 24 24" xmlns="http://www.w3.org/2000/svg">
<path fill-rule="evenodd" clip-rule="evenodd" d="M10.9492 8.90753C10.9492 7.93291 10.1591 7.14282 9.18447 7.14282C8.20985 7.14282 7.41977 7.93291 7.41977 8.90753C7.41977 9.88215 8.20985 10.6722 9.18447 10.6722C10.1591 10.6722 10.9492 9.88215 10.9492 8.90753ZM12.9492 8.90753C12.9492 6.82834 11.2637 5.14282 9.18447 5.14282C7.10528 5.14282 5.41977 6.82834 5.41977 8.90753C5.41977 10.9867 7.10528 12.6722 9.18447 12.6722C11.2637 12.6722 12.9492 10.9867 12.9492 8.90753ZM9.18458 16.5546C10.7171 16.5546 12.1665 16.7742 13.475 17.1645C13.9766 17.3142 14.6939 17.6091 15.655 18.0922L15.6549 19.1428H2.71408L2.71388 18.0923C3.67502 17.6092 4.39238 17.3142 4.89395 17.1646C6.20248 16.7742 7.65198 16.5546 9.18458 16.5546ZM0.714456 21.1428H17.6547L17.655 18.0199C17.6551 17.3099 17.2557 16.6602 16.622 16.3399C15.5813 15.8137 14.7229 15.4497 14.0468 15.248C12.5491 14.8012 10.9068 14.5546 9.18458 14.5546C7.46223 14.5546 5.81994 14.8012 4.32216 15.2481C3.64603 15.4498 2.78758 15.8138 1.7468 16.3401C1.11318 16.6604 0.713746 17.3101 0.713867 18.0202L0.714456 21.1428ZM19.5374 18.02L19.5371 21.1428H23.3017L23.302 18.0722C23.3021 17.3392 22.9022 16.6634 22.246 16.337C21.4743 15.953 20.4371 15.4698 19.6938 15.248C19.056 15.0577 18.3919 14.9037 17.7066 14.7896C18.8367 15.4659 19.5375 16.69 19.5374 18.02ZM14.8316 12.6722C14.4641 12.6722 14.109 12.6196 13.7733 12.5214C14.4389 11.4179 14.8309 10.1355 14.8309 8.90753C14.8309 7.56252 14.3607 6.32733 13.5756 5.3574C13.9684 5.21844 14.3912 5.14282 14.8316 5.14282C16.9108 5.14282 18.5963 6.82834 18.5963 8.90753C18.5963 10.9867 16.9108 12.6722 14.8316 12.6722Z"/>
</svg>
