<svg width="18" height="18" viewBox="0 0 18 18" xmlns="http://www.w3.org/2000/svg">
<path d="M6.375 13.125V9.75H9.375H9.9375C10.8675 9.75 11.625 10.5068 11.625 11.4375C11.625 12.3682 10.8675 13.125 9.9375 13.125H6.375ZM6.375 4.875H9.375C10.2023 4.875 10.875 5.54775 10.875 6.375C10.875 7.20225 10.2023 7.875 9.375 7.875H6.375V4.875ZM12.75 6.375C12.75 4.51125 11.2387 3 9.375 3H4.5V7.875V9.75V15H9.9375C11.9047 15 13.5 13.4055 13.5 11.4375C13.5 10.2248 12.891 9.15675 11.9662 8.514C12.4485 7.92975 12.75 7.191 12.75 6.375Z"/>
</svg>
