<svg width="16" height="16" viewBox="0 0 16 16" fill="none" xmlns="http://www.w3.org/2000/svg">
<path fill-rule="evenodd" clip-rule="evenodd" d="M13.216 4.4126C9.85938 3.11811 6.14091 3.11811 2.78431 4.4126L3.78203 12.3944C6.52315 11.5027 9.47715 11.5027 12.2183 12.3944L13.216 4.4126ZM2.12124 3.24057C1.65714 3.42621 1.37672 3.90158 1.43872 4.39756L2.53256 13.1483C2.60104 13.6961 3.16336 14.0361 3.68031 13.8423C6.46551 12.7978 9.53479 12.7978 12.32 13.8423C12.8369 14.0361 13.3993 13.6961 13.4677 13.1483L14.5616 4.39756C14.6236 3.90158 14.3432 3.42621 13.8791 3.24057C10.1051 1.73101 5.89515 1.73101 2.12124 3.24057Z" fill="#212832"/>
<path fill-rule="evenodd" clip-rule="evenodd" d="M5.33382 12.5801L5.00049 3.58011L6.33291 3.53076L6.66624 12.5308L5.33382 12.5801Z" fill="#212832"/>
<path fill-rule="evenodd" clip-rule="evenodd" d="M9.33382 3.19842L9.00049 12.5318L10.333 12.5793L10.6663 3.24601L9.33382 3.19842Z" fill="#212832"/>
<path fill-rule="evenodd" clip-rule="evenodd" d="M13.3333 7.71871C9.85442 6.6784 6.1455 6.6784 2.66663 7.71871V9.11522C6.13274 7.99067 9.86718 7.99067 13.3333 9.11522V7.71871Z" fill="#212832"/>
</svg>
