<svg width="20" height="20" viewBox="0 0 20 20" xmlns="http://www.w3.org/2000/svg">
<path fill-rule="evenodd" clip-rule="evenodd" d="M3.33398 17.0837H16.6673V15.417H3.33398V17.0837Z"/>
<path d="M16.2493 12.939C16.2493 13.5243 15.7802 14.0007 15.2077 14.0007C14.6351 14.0007 14.166 13.5243 14.166 12.939C14.166 12.2338 15.2077 11.084 15.2077 11.084C15.2077 11.084 16.2493 12.2338 16.2493 12.939Z"/>
<path fill-rule="evenodd" clip-rule="evenodd" d="M15.5351 8.98708L8.46405 1.91602L7.28553 3.09453L8.46405 4.27304L3.75 8.98708L9.0533 14.2904C9.37874 14.6158 9.90637 14.6158 10.2318 14.2904L15.5351 8.98708ZM9.64256 5.45155L13.1781 8.98708H6.10702L9.64256 5.45155Z"/>
</svg>
