<svg width="18" height="18" viewBox="0 0 18 18" xmlns="http://www.w3.org/2000/svg">
<path d="M5.98822 3.78089H15.5216V5.51422H5.98822V3.78089Z" />
<path d="M5.98822 8.11422H15.5216V9.84756H5.98822V8.11422Z" />
<path d="M15.5216 12.4476H5.98822V14.1809H15.5216V12.4476Z" />
<path d="M2.58057 3.09985H3.74943V6.09985H2.58057V3.09985Z" />
<path d="M3.11363 8.20034H4.21292L3.11344 9.62012H2.01416L3.11363 8.20034Z" />
<path d="M4.21278 7.37109L4.21292 8.20034H2.01422L2.01422 7.37109H4.21278Z" />
<path d="M4.21283 9.61875V10.448H2.01427L2.01427 9.61875H4.21283Z" />
<path d="M3.37083 11.9563H4.20099V14.4468H3.37083V11.9563Z" />
<path d="M4.20099 11.5413V12.3714H2L2 11.5413H4.20099Z" />
<path d="M4.20099 12.7865V13.6167H2L2 12.7865H4.20099Z" />
<path d="M4.20099 14.0318V14.8619H2L2 14.0318H4.20099Z" />
</svg>
