<svg width="18" height="18" viewBox="0 0 18 18" xmlns="http://www.w3.org/2000/svg">
<path fill-rule="evenodd" clip-rule="evenodd" d="M14.216 5.4126C10.8594 4.11811 7.14091 4.11811 3.78431 5.4126L4.78203 13.3944C7.52315 12.5027 10.4771 12.5027 13.2183 13.3944L14.216 5.4126ZM3.12124 4.24057C2.65714 4.42621 2.37672 4.90158 2.43872 5.39756L3.53256 14.1483C3.60104 14.6961 4.16336 15.0361 4.68031 14.8423C7.46551 13.7978 10.5348 13.7978 13.32 14.8423C13.8369 15.0361 14.3993 14.6961 14.4677 14.1483L15.5616 5.39756C15.6236 4.90158 15.3432 4.42621 14.8791 4.24057C11.1051 2.73101 6.89515 2.73101 3.12124 4.24057Z"/>
<path fill-rule="evenodd" clip-rule="evenodd" d="M6.33382 13.5801L6.00049 4.58011L7.33291 4.53076L7.66624 13.5308L6.33382 13.5801Z" />
<path fill-rule="evenodd" clip-rule="evenodd" d="M10.3338 4.19842L10.0005 13.5318L11.333 13.5793L11.6663 4.24601L10.3338 4.19842Z" />
<path fill-rule="evenodd" clip-rule="evenodd" d="M14.3333 8.7187C10.8544 7.6784 7.1455 7.6784 3.66663 8.71872V10.1152C7.13274 8.99068 10.8672 8.99067 14.3333 10.1152V8.7187Z" />
</svg>
