<svg width="16" height="16" viewBox="0 0 16 16" xmlns="http://www.w3.org/2000/svg">
<path d="M7.99998 14.6667C4.31808 14.6667 1.33331 11.6819 1.33331 8.00004C1.33331 4.31814 4.31808 1.33337 7.99998 1.33337C11.6819 1.33337 14.6666 4.31814 14.6666 8.00004C14.6666 11.6819 11.6819 14.6667 7.99998 14.6667ZM7.99998 13.3334C10.9455 13.3334 13.3333 10.9456 13.3333 8.00004C13.3333 5.05452 10.9455 2.66671 7.99998 2.66671C5.05446 2.66671 2.66665 5.05452 2.66665 8.00004C2.66665 10.9456 5.05446 13.3334 7.99998 13.3334ZM7.99998 6.00004C8.36817 6.00004 8.66665 5.70156 8.66665 5.33337C8.66665 4.96518 8.36817 4.66671 7.99998 4.66671C7.63179 4.66671 7.33331 4.96518 7.33331 5.33337C7.33331 5.70156 7.63179 6.00004 7.99998 6.00004ZM8.66665 6.66671V10.6667H9.33331V11.3334H6.66665V10.6667H7.33331V7.33337H6.66665V6.66671H8.66665Z" />
</svg>
