<svg width="24" height="24" viewBox="0 0 24 24" fill="none" xmlns="http://www.w3.org/2000/svg">
<path fill-rule="evenodd" clip-rule="evenodd" d="M15.0001 9V9.00009H9.00006V7.00009C9.00006 5.34324 10.3432 4.00009 12.0001 4.00009C13.6569 4.00009 15 5.34319 15.0001 7H17.0001C17 4.23862 14.7615 2.00009 12.0001 2.00009C9.23864 2.00009 7.00006 4.23867 7.00006 7.00009V9.00009H5.00006C4.44778 9.00009 4.00006 9.44781 4.00006 10.0001V20.0001C4.00006 20.5524 4.44778 21.0001 5.00006 21.0001H19.0001C19.5523 21.0001 20.0001 20.5524 20.0001 20.0001V10.0001C20.0001 9.44781 19.5523 9.00009 19.0001 9.00009H17.0001V9H15.0001ZM7.05062 11.0001H6.00006V19.0001H18.0001V11.0001H16.9495H7.05062Z" fill="#33383E"/>
</svg>
