<svg width="17" height="15" xmlns="http://www.w3.org/2000/svg"><path d="M2.985 11.015C1.9 10.135.905 8.964 0 7.5 2.266 3.833 5.099 2 8.5 2c1.047 0 2.04.174 2.979.521L14 0l1.354 1.354-13 13L1 13l1.985-1.985zm7.148-7.148A3.797 3.797 0 0 0 8.5 3.5c-2.152 0-3.896 1.79-3.896 4 0 .561.112 1.096.316 1.58l1.122-1.122a2.5 2.5 0 0 1 2.916-2.916l1.175-1.175zm-5.03 8.444l1.385-1.385A3.803 3.803 0 0 0 8.5 11.5c2.152 0 3.896-1.79 3.896-4 0-.718-.184-1.392-.507-1.975l1.796-1.796C14.9 4.632 16.005 5.889 17 7.5c-2.266 3.667-5.099 5.5-8.5 5.5a8.464 8.464 0 0 1-3.397-.689zm2.483-2.483l3.242-3.242a2.5 2.5 0 0 1-3.241 3.241z"/></svg>