<svg width="24" height="24" xmlns="http://www.w3.org/2000/svg"><path d="M5.333 12.929H3.43v-2h1.904v2zm12.352 9H6.31a.474.474 0 0 1-.423-.271.521.521 0 0 1 .035-.52l5.688-8.36a.47.47 0 0 1 .387-.209.47.47 0 0 1 .388.21l5.686 8.36a.516.516 0 0 1-.11.697.46.46 0 0 1-.276.093zm.279-19.907a.52.52 0 0 1 .11.698l-5.686 8.36a.47.47 0 0 1-.388.21.47.47 0 0 1-.388-.21L5.926 2.72a.521.521 0 0 1-.037-.52.474.474 0 0 1 .423-.271h11.376a.46.46 0 0 1 .276.093zM9.143 12.929H7.238v-2h1.905v2zm5.768-9H9.09L12 8.208l2.91-4.28zm1.85 9h-1.904v-2h1.905v2zm1.906 0v-2h1.904v2h-1.904z" fill="#636C78" fill-rule="nonzero"/></svg>
