
<svg width="20" height="20" viewBox="0 0 20 20" fill="none" xmlns="http://www.w3.org/2000/svg">
<rect x="2.47363" y="3.64046" width="1.66667" height="19.5833" transform="rotate(-45 2.47363 3.64046)" fill="#33383E"/>
<path fill-rule="evenodd" clip-rule="evenodd" d="M7.39969 6.20941L5.78331 6.20943C5.35067 6.20943 5 6.56019 5 6.99277V12.9334C5 13.3661 5.35068 13.7168 5.78331 13.7168H8.60159L13.1651 17.3385C13.6785 17.7459 14.4354 17.3804 14.4354 16.725V13.2451L14.3521 13.1618V16.725C14.3521 16.771 14.3479 16.8154 14.34 16.858C14.3479 16.8154 14.3521 16.771 14.3521 16.725V13.1618L12.7688 11.5785V14.8962L9.18261 12.0501H6.66667V7.87606L9.06638 7.8761L7.48305 6.29276L5.78329 6.29279C5.59144 6.29279 5.41762 6.36997 5.29118 6.49498C5.41762 6.36996 5.59145 6.29276 5.78331 6.29276L7.48302 6.29274L7.39969 6.20941ZM12.7688 9.2215V5.02998L10.4319 6.88461L9.2456 5.69829L13.1651 2.58768C13.6785 2.18018 14.4354 2.54589 14.4354 3.20127V10.8881L14.3521 10.8048V3.20127C14.3521 2.61559 13.6757 2.28882 13.2169 2.65295L13.2169 2.65298C13.6757 2.28884 14.3521 2.61562 14.3521 3.2013V10.8047L12.7688 9.2215ZM6.58334 12.1335V7.79276H6.58332V12.1335H9.15354L12.8521 15.0687V15.0687L9.15356 12.1335H6.58334Z" fill="#33383E"/>
</svg>
