<?xml version="1.0" encoding="utf-8"?>
<!-- Generator: Adobe Illustrator 21.0.0, SVG Export Plug-In . SVG Version: 6.00 Build 0)  -->
<svg version="1.1" id="图层_1" xmlns="http://www.w3.org/2000/svg" xmlns:xlink="http://www.w3.org/1999/xlink" x="0px" y="0px"
	 viewBox="0 0 24 24" style="enable-background:new 0 0 24 24;" xml:space="preserve">
<path d="M15.2,9.1c0.2,0,0.4,0,0.6,0c-0.5-2.6-3.3-4.5-6.4-4.5c-3.5,0-6.3,2.4-6.3,5.4c0,1.7,0.9,3.2,2.5,4.3L5,16.3l2.2-1.1
	c0.8,0.2,1.4,0.3,2.2,0.3c0.2,0,0.4,0,0.6,0c-0.1-0.4-0.2-0.9-0.2-1.3C9.8,11.4,12.2,9.1,15.2,9.1z M11.8,7.4c0.5,0,0.8,0.3,0.8,0.8
	c0,0.5-0.3,0.8-0.8,0.8c-0.5,0-0.9-0.3-0.9-0.8C10.8,7.7,11.3,7.4,11.8,7.4z M7.3,9c-0.5,0-1-0.3-1-0.8c0-0.5,0.5-0.8,1-0.8
	c0.5,0,0.8,0.3,0.8,0.8C8.1,8.7,7.8,9,7.3,9z M20.9,14.1c0-2.5-2.5-4.6-5.4-4.6c-3,0-5.4,2.1-5.4,4.6c0,2.5,2.4,4.6,5.4,4.6
	c0.6,0,1.3-0.2,1.9-0.3l1.7,1l-0.5-1.6C20,16.8,20.9,15.5,20.9,14.1z M13.8,13.3c-0.3,0-0.6-0.3-0.6-0.6c0-0.3,0.3-0.6,0.6-0.6
	c0.5,0,0.8,0.3,0.8,0.6C14.6,13,14.3,13.3,13.8,13.3z M17.3,13.3c-0.3,0-0.6-0.3-0.6-0.6c0-0.3,0.3-0.6,0.6-0.6
	c0.5,0,0.8,0.3,0.8,0.6C18.1,13,17.8,13.3,17.3,13.3z"/>
</svg>
