<svg width="20" height="20" viewBox="0 0 20 20" xmlns="http://www.w3.org/2000/svg">
<path d="M14.5833 6.79168C14.5833 10.0824 11.5053 12.75 7.70831 12.75C6.90477 12.75 6.13343 12.6305 5.41665 12.411C5.36273 12.3945 2.50008 13.3983 2.20831 13.2083C1.82445 12.9585 2.28728 10.4583 2.20831 10.3673C1.34494 9.37133 0.833313 8.13329 0.833313 6.79168C0.833313 3.50098 3.91136 0.833344 7.70831 0.833344C11.5053 0.833344 14.5833 3.50098 14.5833 6.79168Z" fill="white"/>
<path fill-rule="evenodd" clip-rule="evenodd" d="M7.70831 10.9167C10.7478 10.9167 12.75 8.83234 12.75 6.79168C12.75 4.75102 10.7478 2.66668 7.70831 2.66668C4.66879 2.66668 2.66665 4.75102 2.66665 6.79168C2.66665 7.65022 2.99051 8.4707 3.59358 9.16636C3.78808 9.39072 3.88321 9.61029 3.92682 9.72582C3.97492 9.85325 3.99992 9.96193 4.01329 10.0302C4.03956 10.1642 4.04619 10.2752 4.04862 10.3298C4.05379 10.4458 4.04895 10.5499 4.0457 10.6079C4.04014 10.7071 4.03003 10.8181 4.01966 10.9213C4.14144 10.8831 4.25687 10.8465 4.36248 10.8131L4.38022 10.8075C4.51656 10.7643 4.64594 10.7234 4.74282 10.694C4.78879 10.68 4.84706 10.6627 4.90263 10.6478C4.92678 10.6414 4.97929 10.6276 5.04203 10.615C5.07048 10.6093 5.13612 10.5966 5.21946 10.5877C5.26086 10.5834 5.33522 10.5768 5.42817 10.5775C5.49559 10.578 5.70272 10.5812 5.95361 10.658C6.49631 10.8243 7.08668 10.9167 7.70831 10.9167ZM3.89226 12.6383C3.89224 12.6383 3.89211 12.6373 3.89189 12.6353L3.89226 12.6383ZM7.70831 12.75C11.5053 12.75 14.5833 10.0824 14.5833 6.79168C14.5833 3.50098 11.5053 0.833344 7.70831 0.833344C3.91136 0.833344 0.833313 3.50098 0.833313 6.79168C0.833313 8.13329 1.34494 9.37133 2.20831 10.3673C2.23338 10.3962 2.20386 10.6678 2.16416 11.0331C2.07878 11.8187 1.94629 13.0378 2.20831 13.2083C2.42526 13.3496 4.06354 12.8308 4.91172 12.5622C5.20427 12.4696 5.40282 12.4067 5.41665 12.411C6.13343 12.6305 6.90477 12.75 7.70831 12.75Z"/>
<path d="M7.25002 11.6194C7.25002 14.5388 9.91766 16.9055 13.2084 16.9055C13.9048 16.9055 14.5733 16.7995 15.1945 16.6047C15.2412 16.5901 17.7222 17.4806 17.975 17.3121C18.3077 17.0904 17.9066 14.8724 17.975 14.7916C18.7233 13.908 19.1667 12.8097 19.1667 11.6194C19.1667 8.7 16.4991 6.33334 13.2084 6.33334C9.91766 6.33334 7.25002 8.7 7.25002 11.6194Z" fill="white"/>
<path fill-rule="evenodd" clip-rule="evenodd" d="M13.2084 15.0722C10.7177 15.0722 9.08335 13.3262 9.08335 11.6194C9.08335 9.91267 10.7177 8.16668 13.2084 8.16668C15.699 8.16668 17.3334 9.91267 17.3334 11.6194C17.3334 12.3392 17.0684 13.0253 16.576 13.6068C16.3856 13.8316 16.2936 14.0499 16.252 14.1626C16.2059 14.2878 16.182 14.3942 16.1693 14.4606C16.1443 14.5911 16.1381 14.6988 16.1358 14.7511C16.132 14.839 16.134 14.9192 16.1365 14.9752C16.034 14.942 15.9366 14.9105 15.8609 14.887C15.8205 14.8745 15.7663 14.8579 15.7133 14.8434C15.6906 14.8372 15.6385 14.8232 15.5755 14.8103C15.5471 14.8044 15.4804 14.7912 15.3955 14.782C15.3534 14.7774 15.2774 14.7705 15.1824 14.7712C15.1132 14.7718 14.9016 14.7752 14.6459 14.8554C14.2019 14.9946 13.7184 15.0722 13.2084 15.0722ZM16.2719 16.7905C16.272 16.7906 16.2722 16.7888 16.2725 16.7851C16.2721 16.7886 16.2719 16.7905 16.2719 16.7905ZM13.2084 16.9055C9.91766 16.9055 7.25002 14.5388 7.25002 11.6194C7.25002 8.7 9.91766 6.33334 13.2084 6.33334C16.4991 6.33334 19.1667 8.7 19.1667 11.6194C19.1667 12.8097 18.7233 13.908 17.975 14.7916C17.9533 14.8172 17.9789 15.0582 18.0133 15.3823C18.0873 16.0793 18.2021 17.1608 17.975 17.3121C17.787 17.4374 16.3672 16.9772 15.6321 16.7389C15.3785 16.6567 15.2064 16.6009 15.1945 16.6047C14.5733 16.7995 13.9048 16.9055 13.2084 16.9055Z" />
<rect x="5" y="4.5" width="1.83333" height="1.83333" rx="0.916667" />
<rect x="8.20831" y="4.5" width="1.83333" height="1.83333" rx="0.916666" />
<rect x="11" y="10" width="1.83" height="1.83" rx="0.915" />
<rect x="13.75" y="10" width="1.83" height="1.83" rx="0.915" />
</svg>
