<?xml version="1.0" encoding="utf-8"?>
<!-- Generator: Adobe Illustrator 21.0.0, SVG Export Plug-In . SVG Version: 6.00 Build 0)  -->
<svg version="1.1" id="图层_1" xmlns="http://www.w3.org/2000/svg" xmlns:xlink="http://www.w3.org/1999/xlink" x="0px" y="0px"
	 viewBox="0 0 24 24" style="enable-background:new 0 0 24 24;" xml:space="preserve">
<path d="M16.5,11.8c-0.7-0.1-0.4-0.5-0.4-0.5s0.7-1.2-0.1-2c-1-1-3.6,0.1-3.6,0.1c-1,0.3-0.7-0.1-0.6-0.9c0-0.9-0.3-2.4-2.9-1.5
	c-2.6,0.9-4.8,4-4.8,4c-1.5,2.1-1.3,3.6-1.3,3.6c0.4,3.5,4.1,4.5,7,4.7c3.1,0.2,7.2-1,8.5-3.7C19.5,13,17.2,11.9,16.5,11.8z
	 M10,18.4c-3,0.1-5.5-1.4-5.5-3.4c0-2,2.5-3.6,5.5-3.8c3-0.1,5.5,1.1,5.5,3.1C15.5,16.3,13,18.2,10,18.4z M9.4,12.5
	c-3.1,0.4-2.7,3.2-2.7,3.2s0,0.9,0.8,1.4c1.8,1,3.6,0.4,4.6-0.8C13,15.1,12.4,12.2,9.4,12.5z M8.6,16.5c-0.6,0.1-1-0.3-1-0.7
	c0-0.5,0.4-1,1-1c0.7-0.1,1.1,0.3,1.1,0.8C9.6,16,9.2,16.4,8.6,16.5z M10.4,15c-0.2,0.1-0.4,0.1-0.5,0c-0.1-0.2-0.1-0.4,0.1-0.6
	c0.2-0.2,0.5-0.1,0.6,0C10.7,14.6,10.6,14.8,10.4,15z M18,10.6c0.2,0,0.5-0.2,0.5-0.4c0,0,0,0,0-0.1c0.4-3.3-2.8-2.8-2.8-2.8
	c-0.3,0-0.5,0.2-0.5,0.5c0,0.3,0.2,0.5,0.5,0.5c2.2-0.5,1.8,1.7,1.8,1.7C17.5,10.4,17.7,10.6,18,10.6z M17.6,4.8
	c-1.1-0.3-2.2,0-2.5,0c0,0,0,0-0.1,0c0,0,0,0,0,0c-0.3,0.1-0.5,0.4-0.5,0.7c0,0.4,0.3,0.7,0.7,0.7c0,0,0.4-0.1,0.7-0.2
	C16.1,6,18.4,6,19.5,7.9c0.6,1.4,0.3,2.3,0.2,2.4c0,0-0.1,0.4-0.1,0.7c0,0.4,0.3,0.7,0.7,0.7c0.3,0,0.6,0,0.7-0.6h0
	C22.2,7.1,19.5,5.2,17.6,4.8z"/>
</svg>
