<?xml version="1.0" encoding="utf-8"?>
<!-- Generator: Adobe Illustrator 21.0.0, SVG Export Plug-In . SVG Version: 6.00 Build 0)  -->
<svg version="1.1" id="图层_1" xmlns="http://www.w3.org/2000/svg" xmlns:xlink="http://www.w3.org/1999/xlink" x="0px" y="0px"
	 viewBox="0 0 24 24" style="enable-background:new 0 0 24 24;" xml:space="preserve">
<g>
	<g>
		<path d="M11.3,16.4c1.2,0,2.3,0,3.4,0c0.2,0,0.6-0.3,0.7-0.5c0.1-0.6,0-1.2,0-1.8h-4.1V16.4z M12,3.6c-4.6,0-8.3,3.7-8.3,8.4
			s3.7,8.4,8.3,8.4s8.3-3.7,8.3-8.4S16.6,3.6,12,3.6z M12.9,4.4c0.7,0,1.3,0.5,1.3,1.2c0,0.7-0.6,1.2-1.2,1.2
			c-0.7,0-1.2-0.6-1.2-1.3C11.7,4.9,12.2,4.4,12.9,4.4z M17.8,11.3h-3.9v1.6h3.4c0,1.3,0,2.5,0,3.6c0,0.6-0.5,0.9-1.1,1
			c-2.2,0-4.4,0-6.6,0v-4.6H12V9h1.9v1.1h4V11.3z M9.1,8.6c0,1.3,0,2.6,0,3.9c0,1-0.2,2-0.4,3c-0.3,1.2-1.1,2-2.3,2.5
			c0-0.6,0-1.1,0.2-1.7c0.3-0.7,0.5-1.5,0.5-2.3c0.1-2,0-4.1,0-6.1c0-0.2,0-0.4,0-0.6h10.7v1.3H9.1z"/>
	</g>
</g>
</svg>
