<svg width="20" height="18" xmlns="http://www.w3.org/2000/svg"><g fill-rule="evenodd"><path d="M.43 7.708L9.635.518a.65.65 0 1 1 .8 1.024l-9.203 7.19a.65.65 0 1 1-.8-1.024z"/><path d="M10.441.517l9.203 7.19a.65.65 0 0 1-.8 1.024L9.64 1.542a.65.65 0 1 1 .8-1.024zM4.513 6.04v10.856a.65.65 0 1 1-1.3 0V6.04a.65.65 0 1 1 1.3 0z"/><path d="M17.136 6.04v10.856a.65.65 0 1 1-1.3 0V6.04a.65.65 0 1 1 1.3 0z"/><path d="M3.863 16.246h12.623a.65.65 0 1 1 0 1.3H3.863a.65.65 0 1 1 0-1.3zm3.524-5.428h5.576a.65.65 0 1 1 0 1.3H7.387a.65.65 0 1 1 0-1.3z"/><path d="M8.037 11.468v5.267a.65.65 0 1 1-1.3 0v-5.267a.65.65 0 1 1 1.3 0zm5.576 0v5.267a.65.65 0 1 1-1.3 0v-5.267a.65.65 0 1 1 1.3 0z"/></g></svg>