<svg xmlns="http://www.w3.org/2000/svg" width="16" height="16"><path fill-rule="evenodd" clip-rule="evenodd" d="M0 0v3h3V0H0zm0 6v3h3V6H0zm0 9h3v-3H0v3z"/><path d="M12 0h3v3h-3zm0 6h3v3h-3zm0 6h3v3h-3z" opacity=".3" fill-rule="evenodd" clip-rule="evenodd"/><path d="M9 3h3v3H9zm0 6h3v3H9z" opacity=".4" fill-rule="evenodd" clip-rule="evenodd"/><path d="M6 0h3v3H6zm0 6h3v3H6zm0 6h3v3H6z" opacity=".6" fill-rule="evenodd" clip-rule="evenodd"/><path d="M3 3h3v3H3zm0 6h3v3H3z" opacity=".8" fill-rule="evenodd" clip-rule="evenodd"/></svg>