<svg width="20" height="20"><g fill="none" fill-rule="evenodd"><g fill="#000"><path d="M11.524 4.94l3.535 3.536-8.839 8.84H2.685V13.78l8.839-8.84zm0 2.358L4.352 14.47v1.178H5.53l7.172-7.172-1.178-1.178zm2.946-4.125l2.357 2.357a.833.833 0 010 1.179l-1.179 1.178-3.535-3.535 1.178-1.179a.833.833 0 011.179 0z"/><path d="M11.524 4.94l3.535 3.536-8.839 8.84H2.685V13.78l8.839-8.84zm0 2.358L4.352 14.47v1.178H5.53l7.172-7.172-1.178-1.178zm2.946-4.125l2.357 2.357a.833.833 0 010 1.179l-1.179 1.178-3.535-3.535 1.178-1.179a.833.833 0 011.179 0z"/></g></g></svg>