<svg width="40" height="40" xmlns="http://www.w3.org/2000/svg"><path d="M16.683 4.305l2.856.766-6.05 5.624L11.81 3l2.84.76C16.13 1.367 17.96 0 20 0c3.819 0 6.877 4.845 8.236 11.764C35.156 13.124 40 16.18 40 20c0 3.787-4.722 6.846-11.763 8.231C26.878 35.153 23.82 40 20 40c-3.82 0-6.877-4.846-8.237-11.766C4.79 26.867 0 23.802 0 20c0-5.207 9.008-9 20-9 2.128 0 4.182.142 6.11.41C24.872 5.79 22.497 2 20 2c-1.11 0-2.263.788-3.317 2.305zM17 26.84V24l6.999 4.389L17 32v-3.162l-.883-.002a42.797 42.797 0 0 1-2.228-.248C15.127 34.21 17.502 38 20 38c3.63 0 7-8.005 7-18 0-2.297-.178-4.49-.496-6.504A41.86 41.86 0 0 0 20 13c-2.299 0-4.492.178-6.507.497A41.996 41.996 0 0 0 13 20c0 2.301.179 4.497.498 6.514.869.136 1.772.246 2.704.326H17zm11.59-12.95c.268 1.928.41 3.982.41 6.11a44.7 44.7 0 0 1-.41 6.114C34.354 24.843 38 22.396 38 20c0-2.497-3.79-4.872-9.41-6.11zM11.41 26.12A44.696 44.696 0 0 1 11 20c0-2.101.14-4.157.413-6.111C5.79 15.127 2 17.502 2 20c0 2.453 3.752 4.872 9.41 6.121z" fill="#FFF"/></svg>