<svg width="14" height="14" xmlns="http://www.w3.org/2000/svg"><path d="M6.74 4.85L5.638 3.75 8.403.985a2.734 2.734 0 0 1 3.866 0l.69.69a2.734 2.734 0 0 1 0 3.867l-2.764 2.764a2.734 2.734 0 0 1-3.865 0L7.43 7.204c.46.46 1.204.46 1.663 0l2.764-2.764c.46-.46.46-1.204 0-1.663l-.69-.691a1.176 1.176 0 0 0-1.664 0L6.74 4.85zm.28 4.428l1.102 1.101-2.764 2.765a2.734 2.734 0 0 1-3.866 0L.8 12.453a2.734 2.734 0 0 1 0-3.866l2.764-2.765a2.734 2.734 0 0 1 3.866 0L6.33 6.924a1.176 1.176 0 0 0-1.663 0L1.902 9.688c-.46.46-.46 1.204 0 1.663l.691.691c.46.46 1.204.46 1.663 0l2.765-2.764zM.92 2.546l2.658 1.24-.413.885-2.658-1.24.413-.885zM11.454 13.08l-.886.413-1.239-2.658.886-.413 1.239 2.658zM3.939 0l1.24 2.657-.887.413L3.053.413 3.94 0zM14 10.06l-.413.887-2.657-1.24.413-.885L14 10.06z"/></svg>