<svg xmlns="http://www.w3.org/2000/svg" style="width:100%;height:100%" viewBox="0 0 298.62 63.4"><g class="cls-1" opacity=".3"><path class="cls-2" d="M43.43 32.7a.66.66 0 0 1-.44-.16l-2.24-1.82a.74.74 0 0 1-.26-.5.72.72 0 0 1 .19-.52 13.67 13.67 0 0 0 2.4-3.83 21.18 21.18 0 0 0 1.29-4.23 25.61 25.61 0 0 0 .51-4.31.7.7 0 0 1 .7-.68h2.77a.67.67 0 0 1 .5.21.73.73 0 0 1 .2.51 29.82 29.82 0 0 1-.43 4.22 14.12 14.12 0 0 0 5.85 4.86V14.89h-8.88a.7.7 0 0 1-.7-.7v-2.88H42a.71.71 0 0 1-.7-.7V4.17a.71.71 0 0 1 .7-.7h11.81l-.71-1.79a.7.7 0 0 1 .65-1h3.54a.72.72 0 0 1 .66.45l.9 2.3H72.2a.7.7 0 0 1 .7.7v6.47a.7.7 0 0 1-.7.7h-3v2.89a.71.71 0 0 1-.7.7h-9.67v3.18h9.67a.7.7 0 0 1 .7.7v2.95a.7.7 0 0 1-.7.7h-9.67v5.39a90.4 90.4 0 0 0 12 .53h1.37a.7.7 0 0 1 .7.7v3a.7.7 0 0 1-.7.7h-1.51c-4.81 0-10.21-.06-13.42-.75a20.51 20.51 0 0 1-10-5.16c-.11.3-.23.59-.35.88A18.42 18.42 0 0 1 44 32.45a.72.72 0 0 1-.57.25zm25.12-22.17V7.82H45.61v2.71zm66.89 22.17a.7.7 0 0 1-.7-.7V15.79h-8.06a.7.7 0 0 1-.7-.7v-3a.7.7 0 0 1 .7-.7h8.06V1.4a.7.7 0 0 1 .7-.7h3.2a.7.7 0 0 1 .7.7v10h8.06a.7.7 0 0 1 .7.7v3a.7.7 0 0 1-.7.7h-8.06V32a.7.7 0 0 1-.7.7zm-104.89 0a.7.7 0 0 1-.7-.7V19.26h-.7v9.33a.7.7 0 0 1-.7.7H17.6a.7.7 0 0 1-.7-.7v-.2a.45.45 0 0 1 0-.11v-9h-.68V32a.71.71 0 0 1-.7.7h-3a.7.7 0 0 1-.7-.7V15.61a.7.7 0 0 1 .7-.7h4.34V9.5a.7.7 0 0 1 .7-.7h10.89a.7.7 0 0 1 .7.7v5.41h4.35a.7.7 0 0 1 .7.7V32a.7.7 0 0 1-.7.7zM25 24.94v-5.68h-3.91v5.68zm0-10v-1.78h-3.91v1.75zM6.73 32.7A.7.7 0 0 1 6 32v-7.31l-1.16 3.77a.7.7 0 0 1-.67.49H1.4a.7.7 0 0 1-.56-.29.69.69 0 0 1-.11-.66l4.42-14.08H2.49a.7.7 0 0 1-.7-.7V10.5a.7.7 0 0 1 .7-.7H6V6.89l-3.42.56H2.5a.71.71 0 0 1-.5-.16.7.7 0 0 1-.24-.53V4a.71.71 0 0 1 .58-.69l10.1-1.63h.11a.66.66 0 0 1 .45.17.69.69 0 0 1 .25.53v1.1h6.23l-.71-1.79a.68.68 0 0 1 .07-.69.71.71 0 0 1 .58-.31H23a.69.69 0 0 1 .65.45l.91 2.3h9a.7.7 0 0 1 .7.7v3a.7.7 0 0 1-.7.7H12.55a.7.7 0 0 1-.7-.7v-1.2l-1.46.24V9.8h2.16a.7.7 0 0 1 .7.7v2.72a.7.7 0 0 1-.7.7h-2.16V32a.71.71 0 0 1-.7.7zm84-.07a.7.7 0 0 1-.7-.7v-3.07a.71.71 0 0 1 .51-.67 26.54 26.54 0 0 0 6.06-2.59 24.39 24.39 0 0 1-2.75-3.19 19.93 19.93 0 0 1-3.35-7.21.72.72 0 0 1 .15-.58.7.7 0 0 1 .54-.26H109a.74.74 0 0 1 .54.26.71.71 0 0 1 .14.58 19.9 19.9 0 0 1-3.3 7.21 23.82 23.82 0 0 1-2.65 3.14 27.48 27.48 0 0 0 6.27 2.64.7.7 0 0 1 .51.67v3.07a.72.72 0 0 1-.27.56.74.74 0 0 1-.43.14h-.18a31.09 31.09 0 0 1-9.43-4.15 30.15 30.15 0 0 1-9.25 4.15zm5.79-14c.24.41.51.8.79 1.19a19.13 19.13 0 0 0 2.87 3.18 19.48 19.48 0 0 0 2.82-3.16q.42-.59.78-1.2zm22.58 13.45a.78.78 0 0 1-.36-.1.71.71 0 0 1-.34-.6V15.79h-3.1a.7.7 0 0 1-.7-.7v-3a.7.7 0 0 1 .7-.7h6.77a.7.7 0 0 1 .7.7v13.2l3.57-1.87a.72.72 0 0 1 .32-.08.82.82 0 0 1 .37.1.7.7 0 0 1 .33.6v3.36a.7.7 0 0 1-.37.62L119.43 32a.8.8 0 0 1-.33.08zm-36.65 0a.75.75 0 0 1-.36-.1.71.71 0 0 1-.34-.6V15.77h-4a.7.7 0 0 1-.7-.71v-3a.7.7 0 0 1 .7-.7h7.71a.7.7 0 0 1 .7.7v13.27l3.58-1.87a.72.72 0 0 1 .32-.08.75.75 0 0 1 .36.1.71.71 0 0 1 .34.6v3.36a.71.71 0 0 1-.38.62L82.77 32a.72.72 0 0 1-.32.08zm20.73-18.54a.7.7 0 0 1-.7-.7V5.76h-5.64a29 29 0 0 1-2.09 7.36.69.69 0 0 1-.64.42h-3.35a.68.68 0 0 1-.59-.33.69.69 0 0 1 0-.68A24.26 24.26 0 0 0 92.79 2.3a.71.71 0 0 1 .7-.69h12.65a.7.7 0 0 1 .7.7v6.92h3a.7.7 0 0 1 .7.7v2.91a.7.7 0 0 1-.7.7zM121 9.92a.69.69 0 0 1-.65-.44L117.6 2.6a.68.68 0 0 1 .07-.65.7.7 0 0 1 .58-.31h3.62a.72.72 0 0 1 .66.44L125.26 9a.72.72 0 0 1-.07.65.7.7 0 0 1-.58.3zm-36.65 0a.7.7 0 0 1-.65-.44l-2.76-6.91a.7.7 0 0 1 .65-1h3.63a.69.69 0 0 1 .65.45l2.73 6.92a.69.69 0 0 1-.07.65.71.71 0 0 1-.53.31z" fill="#fff"/><path class="cls-3" d="M138.64 1.4v10.73h8.76v3h-8.76V32h-3.2V15.09h-8.76v-3h8.76V1.4h3.2m-81.35 0l1.08 2.75H72.2v6.45h-3V7.12H44.91v3.49H42V4.17h12.84l-1.09-2.75h3.54M23 1.42l1 2.75h9.5v3H12.55v-2l-2.86.47v4.86h2.86v2.72H9.69V32h-3V20.15l-2.56 8.1H1.4l4.7-15H2.5V10.5h4.23V6.07l-4.23.69V4l10.05-1.63v1.8h8l-1.13-2.75H23m83.18.89v7.62h3.66v2.91h-6.62V5.06h-7a29.15 29.15 0 0 1-2.12 7.78h-3.34a24.72 24.72 0 0 0 2.73-10.53h12.65m-20.92 0L88 9.2h-3.66l-2.75-6.89h3.63m36.65 0l2.74 6.88H121l-2.74-6.88h3.62M28.45 9.5v6.11h5.05V32h-2.95V18.56h-2.1v10.07H17.6V18.56h-2.09V32h-3V15.61h5V9.5h10.94m-8.06 6.11h5.26v-3.15h-5.26v3.15m0 10h5.26v-7.05h-5.26v7.07m48.11-14.4v3H58.13v4.58H68.5v2.95H58.13v6.67c2.94.62 8.65.65 12.72.65h1.35v3h-1.51c-4.4 0-10 0-13.27-.73A19.58 19.58 0 0 1 47 25.5a20 20 0 0 1-.71 1.89A17.52 17.52 0 0 1 43.43 32l-2.24-1.83a14.22 14.22 0 0 0 2.53-4 21.73 21.73 0 0 0 1.34-4.37 26.43 26.43 0 0 0 .52-4.43h2.77a29.86 29.86 0 0 1-.46 4.38 14.74 14.74 0 0 0 7.28 5.78V14.19h-9.58v-3H68.5m16.91.87v14.43L90 24.08v3.36l-7.56 3.94V15.06H77.7v-3h7.71m36.65 0v14.43l4.6-2.41v3.36l-7.56 3.94V15.09h-3.8v-3h6.76M109 15.06a19.59 19.59 0 0 1-3.2 6.94 23.86 23.86 0 0 1-3.22 3.67 27.27 27.27 0 0 0 7.22 3.19v3.07a30.21 30.21 0 0 1-9.62-4.32 29.2 29.2 0 0 1-9.42 4.32v-3.07a26.46 26.46 0 0 0 7-3.15A23.33 23.33 0 0 1 94.45 22a19.4 19.4 0 0 1-3.26-6.94H109m-4.08 2.88h-9.57a19.27 19.27 0 0 0 1.42 2.3 20.72 20.72 0 0 0 3.41 3.67 20 20 0 0 0 3.34-3.67 18.78 18.78 0 0 0 1.39-2.3M138.64 0h-3.2A1.4 1.4 0 0 0 134 1.4v9.33h-7.36a1.4 1.4 0 0 0-1.4 1.4v3a1.4 1.4 0 0 0 1.4 1.4H134V32a1.4 1.4 0 0 0 1.4 1.4h3.2A1.4 1.4 0 0 0 140 32V16.49h7.36a1.4 1.4 0 0 0 1.4-1.4v-3a1.4 1.4 0 0 0-1.4-1.4H140V1.4a1.4 1.4 0 0 0-1.4-1.4zM57.29 0h-3.54a1.4 1.4 0 0 0-1.3 1.92l.33.83H42a1.4 1.4 0 0 0-1.4 1.4v6.44A1.4 1.4 0 0 0 42 12h2.24v2.18a1.4 1.4 0 0 0 1.4 1.4h8.18v9.72a13.14 13.14 0 0 1-4.41-3.87 31.74 31.74 0 0 0 .39-4.05 1.42 1.42 0 0 0-.4-1 1.38 1.38 0 0 0-1-.42h-2.82a1.41 1.41 0 0 0-1.4 1.35 25.67 25.67 0 0 1-.49 4.2 21.93 21.93 0 0 1-1.25 4.1 13.15 13.15 0 0 1-2.28 3.63 1.41 1.41 0 0 0 .15 2l2.23 1.82a1.43 1.43 0 0 0 .89.32 1.41 1.41 0 0 0 1.06-.49 18.86 18.86 0 0 0 3-4.93 21.44 21.44 0 0 0 9.62 4.66c3.27.7 8.72.76 13.56.76h1.53A1.4 1.4 0 0 0 73.6 32v-3a1.37 1.37 0 0 0-.41-1 1.41 1.41 0 0 0-1-.41h-1.34a101.76 101.76 0 0 1-11.32-.43v-4.04h9a1.4 1.4 0 0 0 1.4-1.4v-2.95a1.4 1.4 0 0 0-1.4-1.4h-9v-1.78h9a1.4 1.4 0 0 0 1.4-1.4V12h2.3a1.39 1.39 0 0 0 1.4-1.4V4.17a1.4 1.4 0 0 0-1.4-1.4h-12.9L58.6.91A1.41 1.41 0 0 0 57.29 0zm-11 8.5h21.56v1.33H46.31V8.52zM23 0h-3.58a1.4 1.4 0 0 0-1.3 1.92l.33.83H14v-.4a1.42 1.42 0 0 0-.49-1.07 1.45 1.45 0 0 0-.96-.28h-.22L2.27 2.63A1.41 1.41 0 0 0 1.1 4v2.76a1.42 1.42 0 0 0 .49 1.07 1.45 1.45 0 0 0 .91.33.82.82 0 0 0 .22 0l2.61-.42V9.1H2.5a1.4 1.4 0 0 0-1.4 1.4v2.72a1.39 1.39 0 0 0 1.4 1.4h1.7L.06 27.83a1.43 1.43 0 0 0 .21 1.25 1.4 1.4 0 0 0 1.13.57h2.77A1.37 1.37 0 0 0 5.33 29v3a1.4 1.4 0 0 0 1.4 1.4h3a1.4 1.4 0 0 0 1.4-1.4V14.62h.47a1.42 1.42 0 0 0-.41 1V32a1.4 1.4 0 0 0 1.4 1.4h3a1.4 1.4 0 0 0 1.4-1.4v-2.19a1.45 1.45 0 0 0 .69.18h10.78a1.45 1.45 0 0 0 .69-.18V32a1.4 1.4 0 0 0 1.4 1.4h2.95a1.4 1.4 0 0 0 1.4-1.4V15.61a1.4 1.4 0 0 0-1.4-1.4h-3.65V9.5a1.4 1.4 0 0 0-.4-1h4.05a1.39 1.39 0 0 0 1.4-1.4V4.17a1.4 1.4 0 0 0-1.4-1.4H25L24.27.91A1.41 1.41 0 0 0 23 0zM11.09 6.78h.06v.35a1.4 1.4 0 0 0 1.4 1.4h4a1.4 1.4 0 0 0-.4 1v4.71h-2.61a1.36 1.36 0 0 0 .41-1V10.5a1.4 1.4 0 0 0-1.4-1.4h-1.46V6.78zm10.7 7.07h2.46v.36h-2.46v-.36zm0 6.11h2.46v4.27h-2.46V20zm84.35-19H93.49a1.4 1.4 0 0 0-1.4 1.37 23.33 23.33 0 0 1-2.58 9.93 1.42 1.42 0 0 0 .06 1.37 1.4 1.4 0 0 0 .6.53l-.06.07a1.39 1.39 0 0 0-.29 1.16 20.62 20.62 0 0 0 3.49 7.48 24.62 24.62 0 0 0 2.18 2.62 25.05 25.05 0 0 1-4.08 1.75v-3.16a1.39 1.39 0 0 0-.68-1.19 1.34 1.34 0 0 0-.72-.21 1.49 1.49 0 0 0-.65.16l-2.55 1.34V12.1a1.4 1.4 0 0 0-1.4-1.4H77.7a1.4 1.4 0 0 0-1.4 1.4v3a1.4 1.4 0 0 0 1.4 1.4h3.35v14.88a1.41 1.41 0 0 0 1.4 1.4 1.52 1.52 0 0 0 .65-.16l6.26-3.27v2.58a1.4 1.4 0 0 0 1.4 1.4 1.18 1.18 0 0 0 .37 0 30.78 30.78 0 0 0 9.06-4 32.06 32.06 0 0 0 9.26 4 1.34 1.34 0 0 0 .35 0 1.42 1.42 0 0 0 .86-.29 1.39 1.39 0 0 0 .54-1.11v-3.07a1.39 1.39 0 0 0-1-1.34 27.43 27.43 0 0 1-5.34-2.14 23.23 23.23 0 0 0 2.09-2.57 20.9 20.9 0 0 0 3.42-7.47 1.42 1.42 0 0 0-.26-1.13 1.39 1.39 0 0 0 1.1-1.37V9.93a1.4 1.4 0 0 0-1.4-1.4h-2.26V2.31a1.4 1.4 0 0 0-1.4-1.4zm-8.7 5.55h4.34v6.38a1.48 1.48 0 0 0 .26.83h-6.79a1.43 1.43 0 0 0 .15-.27 30.14 30.14 0 0 0 2-6.94zm.4 12.88h4.61l-.07.09a17.93 17.93 0 0 1-2.21 2.52 19.06 19.06 0 0 1-2.26-2.6l-.07-.08zM85.22.91h-3.63a1.4 1.4 0 0 0-1.3 1.92L83 9.72a1.39 1.39 0 0 0 1.3.88H88a1.4 1.4 0 0 0 1.3-1.92L86.52 1.8a1.4 1.4 0 0 0-1.3-.89zm36.65 0h-3.62A1.4 1.4 0 0 0 117 2.86l2.74 6.88a1.4 1.4 0 0 0 1.3.88h3.62a1.4 1.4 0 0 0 1.3-1.91l-2.73-6.89a1.42 1.42 0 0 0-1.31-.88zm.19 9.79h-6.76a1.4 1.4 0 0 0-1.4 1.4v3a1.4 1.4 0 0 0 1.4 1.4h2.4v14.88a1.39 1.39 0 0 0 .68 1.19 1.34 1.34 0 0 0 .72.21 1.49 1.49 0 0 0 .65-.16l7.56-3.94a1.4 1.4 0 0 0 .75-1.24v-3.36a1.38 1.38 0 0 0-.67-1.19 1.35 1.35 0 0 0-.73-.21 1.44 1.44 0 0 0-.64.16l-2.56 1.34v-12a1.4 1.4 0 0 0-1.4-1.4z" fill="#636363"/></g><g class="cls-1" opacity=".3"><path class="cls-4" d="M257.63 32.7a.7.7 0 0 1-.7-.7v-1.8a.7.7 0 0 1 .7-.7h4.18a.59.59 0 0 0 .41-.11 1.34 1.34 0 0 0 .24-.71v-6h-10.19a.7.7 0 0 1-.7-.7v-.33l-2.84.81v6.38a3.46 3.46 0 0 1-1 2.7 3.89 3.89 0 0 1-2.86 1 7.28 7.28 0 0 1-1.2-.1.7.7 0 0 1-.59-.8l.28-1.78a.72.72 0 0 1 .7-.59h.11a4.51 4.51 0 0 0 .7.06 1.13 1.13 0 0 0 .63-.11.42.42 0 0 0 0-.21v-5.6l-2.31.66H243a.7.7 0 0 1-.67-.51l-.49-1.73a.7.7 0 0 1 .48-.86l3.18-.9v-5.71h-2.92a.7.7 0 0 1-.7-.7v-1.8a.71.71 0 0 1 .7-.7h2.92V8.05a.7.7 0 0 1 .7-.7h1.8a.7.7 0 0 1 .7.7v3.11h2.54a.78.78 0 0 1 .3.07v-.67a.7.7 0 0 1 .7-.7h5.13V8a.7.7 0 0 1 .7-.7h1.78a.7.7 0 0 1 .7.7v1.86h6.17a.7.7 0 0 1 .7.7v1.79a.71.71 0 0 1-.7.71h-6.17v1.69h6.64a.7.7 0 0 1 .7.7v1.8a.7.7 0 0 1-.7.7h-1.58v1.58h1.58a.7.7 0 0 1 .7.7V22a.7.7 0 0 1-.7.7h-1.58v6a4.46 4.46 0 0 1-1.16 3 3.66 3.66 0 0 1-2.67 1.06zm-6.78-14.1a.78.78 0 0 1 .34.09.72.72 0 0 1 .34.43l.19.68a.66.66 0 0 1 .55-.27h10.19V18h-10.19a.7.7 0 0 1-.7-.7v-1.8a.7.7 0 0 1 .7-.7h5.13v-1.74h-5.13A.73.73 0 0 1 252 13v.67a.7.7 0 0 1-.7.7h-2.54v4.82l1.93-.55a.63.63 0 0 1 .16-.04zm-91.46 14a.7.7 0 0 1-.7-.7v-8.74a16.35 16.35 0 0 1-1.75 1.5.71.71 0 0 1-.42.14h-.1a.67.67 0 0 1-.46-.27l-1.06-1.45a.7.7 0 0 1 .14-1 19.12 19.12 0 0 0 5.68-7.67h-4.84a.7.7 0 0 1-.7-.7v-1.8a.7.7 0 0 1 .7-.7h2.25V8.42a.7.7 0 0 1 .7-.7h1.79a.7.7 0 0 1 .7.7v2.81h2.25a.71.71 0 0 1 .71.7v1.94a.78.78 0 0 1 0 .21v.13A22.39 22.39 0 0 1 162 18.9l3.23 3.1a.7.7 0 0 1 0 1L164 24.26a.68.68 0 0 1-.49.22.71.71 0 0 1-.48-.19l-1.15-1.1v8.71a.7.7 0 0 1-.7.7zm4.93 0a.81.81 0 0 1-.27-.05.69.69 0 0 1-.38-.39l-.67-1.67a.71.71 0 0 1 .38-.91 12.23 12.23 0 0 0 7.7-10.7v-5.6a.7.7 0 0 1 .7-.7h1.78a.7.7 0 0 1 .7.7v5.63a8.53 8.53 0 0 1-.07.92.7.7 0 0 1 .56.68v8.23a.47.47 0 0 0 0 .21h4V27a.7.7 0 0 1 .7-.7h1.78a.7.7 0 0 1 .71.7v1.84a3.58 3.58 0 0 1-.38 1.75 2.92 2.92 0 0 1-2.72 1.51h-4.1a3.1 3.1 0 0 1-2.29-.92 3.72 3.72 0 0 1-.95-2.49v-1.77a15.41 15.41 0 0 1-7 5.62.86.86 0 0 1-.18.05zm73.84 0a34.87 34.87 0 0 1-11.93-3.76 34.94 34.94 0 0 1-11.93 3.76h-.1a.71.71 0 0 1-.42-.14.72.72 0 0 1-.28-.46l-.25-1.78a.7.7 0 0 1 .6-.79 33.72 33.72 0 0 0 9.29-2.62 19.42 19.42 0 0 1-6.1-7.73h-1a.7.7 0 0 1-.7-.7v-1.82a.7.7 0 0 1 .7-.7h8.44v-2h-10.57a.7.7 0 0 1-.7-.7v-1.8a.7.7 0 0 1 .7-.7h10.58V8a.7.7 0 0 1 .7-.7H227a.7.7 0 0 1 .7.7v2.61h10.58a.7.7 0 0 1 .7.7v1.8a.7.7 0 0 1-.7.7h-10.61v2h8a.68.68 0 0 1 .57.3.67.67 0 0 1 .09.64l-.49 1.33a19.21 19.21 0 0 1-6.47 8.65 33.72 33.72 0 0 0 9.29 2.62.69.69 0 0 1 .59.79L239 32a.67.67 0 0 1-.27.46.71.71 0 0 1-.42.14zm-17.58-13.55a17.18 17.18 0 0 0 5.65 6 17.18 17.18 0 0 0 5.65-6zm-34.06 13.49a.66.66 0 0 1-.44-.17.63.63 0 0 1-.25-.47l-.17-1.79a.7.7 0 0 1 .63-.76c9.09-.85 9.56-7.12 9.57-7.38v-1.45a.7.7 0 0 1 .7-.7h1.79a.7.7 0 0 1 .7.7V22a8.41 8.41 0 0 1-.2 1.28h.85a.7.7 0 0 1 .7.7v4.94h6.53V27a.7.7 0 0 1 .7-.7h1.78a.7.7 0 0 1 .7.7v1.91a3.22 3.22 0 0 1-1 2.46 3.16 3.16 0 0 1-2.11.8h-6.6a3.09 3.09 0 0 1-2.37-1 3.37 3.37 0 0 1-.84-2.37V27c-1.64 2.43-4.74 5-10.63 5.53zm65.84-4.92a.7.7 0 0 1-.7-.7v-1.8a.7.7 0 0 1 .7-.7h7.7a.7.7 0 0 1 .7.7v1.8a.71.71 0 0 1-.7.7zm-48.55-2.33a.7.7 0 0 1-.7-.7V19h-11.49v5.6a.7.7 0 0 1-.7.7h-1.78a.7.7 0 0 1-.7-.7v-8.1a.7.7 0 0 1 .7-.7h16.45a.7.7 0 0 1 .7.7v8.09a.7.7 0 0 1-.7.7zm-26.19-1.81a.7.7 0 0 1-.7-.7V11.27h-8.23v11.51a.7.7 0 0 1-.7.7h-1.78a.7.7 0 0 1-.7-.7v-14a.7.7 0 0 1 .7-.7h13.19a.7.7 0 0 1 .7.7v14a.7.7 0 0 1-.7.7zm7.81-5.87a.7.7 0 0 1-.7-.7v-5.39a.7.7 0 0 1 .7-.7h3.87V8.17a.7.7 0 0 1 .7-.7h1.79a.7.7 0 0 1 .7.7v2.65h3.32V8.17a.7.7 0 0 1 .7-.7h1.79a.7.7 0 0 1 .7.7v2.65h3.24V8.17a.7.7 0 0 1 .7-.7h1.78a.7.7 0 0 1 .7.7v2.65h3.88a.7.7 0 0 1 .7.7v5.24a.7.7 0 0 1-.7.7h-1.79a.7.7 0 0 1-.7-.7V14h-18.89v2.89a.71.71 0 0 1-.7.7z" fill="#fff" fill-rule="evenodd"/><path class="cls-3" d="M259.88 8v2.56h6.87v1.79h-6.87v3.1h7.34v1.8h-2.28v3h2.28V22h-2.28v6.66a3.75 3.75 0 0 1-1 2.47 3 3 0 0 1-2.17.85h-4.18V30.2h4.18a1.23 1.23 0 0 0 .91-.32 2 2 0 0 0 .44-1.2V22h-10.85v-1.77h10.89v-3h-10.89v-1.8h5.83v-3.1h-5.83v-1.77h5.83V8h1.78M227 8v3.31h11.28v1.8H227v3.43h8.65l-.49 1.33a18.76 18.76 0 0 1-7.16 9 32.9 32.9 0 0 0 10.54 3.19l-.25 1.78a33.66 33.66 0 0 1-12-3.87 33.73 33.73 0 0 1-12 3.87l-.26-1.78a33.05 33.05 0 0 0 10.55-3.19 18.89 18.89 0 0 1-7-8.55h-1.45v-1.76h9.14v-3.43h-11.36v-1.8h11.28V8H227m6 10.33h-13.56a17.59 17.59 0 0 0 6.79 7.56 17.56 17.56 0 0 0 6.77-7.54m15-10.3v3.81h3.23v1.8H248v6.45l2.82-.8.48 1.73-3.3.96v6.9a2.83 2.83 0 0 1-.77 2.21 3.26 3.26 0 0 1-2.37.83 7.06 7.06 0 0 1-1.09-.09l.28-1.78a4.75 4.75 0 0 0 .81.07 1.58 1.58 0 0 0 1.11-.31 1 1 0 0 0 .25-.77v-6.58l-3.2.91-.48-1.73 3.68-1.05v-6.95h-3.62v-1.8h3.62V8.05H248m-43.31.12v3.35h4.58v5.24h-1.79v-3.44h-20.26v3.59h-1.79v-5.39H190V8.17h1.79v3.35h4.72V8.17h1.79v3.35h4.64V8.17h1.78m-44.1.25v3.51h2.95V14a22.83 22.83 0 0 1-2.41 5l3.61 3.47-1.23 1.3-2.33-2.24V31.9h-1.79V21.38a17 17 0 0 1-2.87 2.72l-1.06-1.44a20.17 20.17 0 0 0 6.28-8.93h-5.86v-1.8h3V8.42h1.79m18.78.36v14h-1.78V10.57H168v12.21h-1.79v-14h13.19m-5.85 4.5v5.63a10.88 10.88 0 0 1-.18 1.6h.63v8.23c0 .41.13.88.75.88h4.1c.43 0 .5-.13.53-.18a1.43 1.43 0 0 0 .08-.57V27h1.78v1.84a3 3 0 0 1-.29 1.43 2.2 2.2 0 0 1-2.1 1.13h-4.1a2.43 2.43 0 0 1-1.79-.71 3 3 0 0 1-.75-2V24.2a14.42 14.42 0 0 1-7.93 7.69l-.68-1.66a12.93 12.93 0 0 0 8.13-11.33v-5.62h1.78m32 3.22v8.09h-1.78v-6.3h-12.81v6.3h-1.78V16.5h16.45m-7.25 4V22a8.07 8.07 0 0 1-.42 2h1.78v4.91a.89.89 0 0 0 .17.57.78.78 0 0 0 .56.16H207a.65.65 0 0 0 .42-.14.93.93 0 0 0 .17-.62V27h1.78v1.91a2.53 2.53 0 0 1-.75 1.95 2.41 2.41 0 0 1-1.63.61h-6.6a2.42 2.42 0 0 1-1.86-.74 2.61 2.61 0 0 1-.65-1.85V24c-.87 2.66-3.5 7.11-11.4 7.85l-.16-1.79c9.76-.91 10.2-8 10.2-8v-1.54h1.78m61.72 4.6v1.8h-7.7v-1.8h7.7m-.14-18.52h-1.78a1.4 1.4 0 0 0-1.4 1.4v1.16h-4.43a1.4 1.4 0 0 0-1.4 1.3h-1.44V8.05a1.4 1.4 0 0 0-1.4-1.4h-1.79a1.4 1.4 0 0 0-1.4 1.4v2.41h-2.22a1.4 1.4 0 0 0-1.4 1.4v1.8a1.4 1.4 0 0 0 1.4 1.4h2.22v4.5l-2.67.76a1.39 1.39 0 0 0-1 1.72l.48 1.73a1.37 1.37 0 0 0 .67.84 1.36 1.36 0 0 0 .68.18 1.2 1.2 0 0 0 .38-.05l1.42-.4v4.38a3.74 3.74 0 0 1-.54 0h-.22a1.37 1.37 0 0 0-.83.27 1.42 1.42 0 0 0-.56.91l-.28 1.78a1.4 1.4 0 0 0 1.16 1.6 8.81 8.81 0 0 0 1.32.11 4.59 4.59 0 0 0 3.35-1.24 4.18 4.18 0 0 0 1.19-3.25V23l1.56-.44a1.4 1.4 0 0 0 1.28.83h9.49v5.26a.74.74 0 0 1 0 .12h-4.11a1.4 1.4 0 0 0-1.4 1.4V32a1.4 1.4 0 0 0 1.4 1.4h4.18a4.33 4.33 0 0 0 3.21-1.27 5.1 5.1 0 0 0 1.36-3.46v-5.25h.88a1.4 1.4 0 0 0 1.4-1.4v-1.79a1.4 1.4 0 0 0-1.4-1.4h-.88v-.18h.88a1.4 1.4 0 0 0 1.4-1.4v-1.8a1.4 1.4 0 0 0-1.4-1.4h-5.94v-.3h5.47a1.4 1.4 0 0 0 1.4-1.4v-1.79a1.4 1.4 0 0 0-1.4-1.4h-5.47V8a1.39 1.39 0 0 0-1.4-1.4zm-7.22 7.15h4v.3h-4.09a.94.94 0 0 0 0-.3zm-3.23 1.31h1.49a1.74 1.74 0 0 0 0 .39v1.8a1.39 1.39 0 0 0 .17.67h-.19a1.2 1.2 0 0 0-.38.05l-1 .29v-3.2zm2.74 3.77l-.09-.19h9.68v.18h-9.59zM227 6.62h-1.78a1.4 1.4 0 0 0-1.4 1.4v1.91h-9.88a1.4 1.4 0 0 0-1.4 1.4v1.8a1.4 1.4 0 0 0 1.4 1.4h9.88v.63h-7.74a1.4 1.4 0 0 0-1.4 1.4v1.79a1.4 1.4 0 0 0 1.4 1.4h.53a20 20 0 0 0 5.23 6.85 34.09 34.09 0 0 1-8.07 2.1 1.4 1.4 0 0 0-1.18 1.59l.25 1.77a1.39 1.39 0 0 0 .55.93 1.41 1.41 0 0 0 .84.28h.2a36.06 36.06 0 0 0 11.83-3.65 36 36 0 0 0 11.83 3.65h.2a1.41 1.41 0 0 0 .84-.28 1.43 1.43 0 0 0 .55-.93l.25-1.77a1.41 1.41 0 0 0-1.19-1.59 34.13 34.13 0 0 1-8.06-2.1 19.72 19.72 0 0 0 5.8-8.24l.48-1.32a1.39 1.39 0 0 0-1.31-1.88h-7.25v-.63h9.88a1.4 1.4 0 0 0 1.4-1.4v-1.8a1.4 1.4 0 0 0-1.4-1.4h-9.88V8a1.4 1.4 0 0 0-1.4-1.4zm-5.15 13.13h8.82a16.63 16.63 0 0 1-4.41 4.47 16.63 16.63 0 0 1-4.41-4.47zm-17.1-13h-1.78a1.4 1.4 0 0 0-1.4 1.4v1.95h-1.87V8.17a1.4 1.4 0 0 0-1.4-1.4h-1.79a1.4 1.4 0 0 0-1.4 1.4v1.95h-1.92V8.17a1.4 1.4 0 0 0-1.4-1.4H190a1.4 1.4 0 0 0-1.4 1.4v1.95h-3.17a1.4 1.4 0 0 0-1.4 1.4v5.39a1.4 1.4 0 0 0 1.4 1.4h1.79a1.55 1.55 0 0 0 .52-.1v6.38a1.4 1.4 0 0 0 1.4 1.4h1.78a1.4 1.4 0 0 0 1.4-1.4v-4.9h3.11a1.42 1.42 0 0 0-.27.83V22c0 .49-.71 5.94-8.93 6.7a1.4 1.4 0 0 0-1.23 1.47l.17 1.79a1.38 1.38 0 0 0 .5.95 1.4 1.4 0 0 0 .89.33h.13c4.89-.46 7.95-2.24 9.87-4.24a4 4 0 0 0 1 2.65 3.89 3.89 0 0 0 2.89 1.18H207a3.73 3.73 0 0 0 3.78-4V27a1.4 1.4 0 0 0-1.4-1.4h-1.78a1.4 1.4 0 0 0-1.4 1.4v1.27h-5.1V24a1.4 1.4 0 0 0-1.4-1.4 4.65 4.65 0 0 0 .05-.58v-1.5a1.41 1.41 0 0 0-.26-.83h2.93v4.9a1.4 1.4 0 0 0 1.4 1.4h1.78a1.4 1.4 0 0 0 1.4-1.4v-6.53a1.3 1.3 0 0 0 .52.1h1.79a1.4 1.4 0 0 0 1.4-1.4v-5.24a1.4 1.4 0 0 0-1.4-1.4h-3.18V8.17a1.39 1.39 0 0 0-1.4-1.4zm-16.1 8h17.49v.48a1.27 1.27 0 0 0-.52-.1h-16.48a1.27 1.27 0 0 0-.52.1v-.48zm-28-7.7h-1.79a1.4 1.4 0 0 0-1.4 1.4v2.11h-1.55a1.4 1.4 0 0 0-1.4 1.4v1.8a1.4 1.4 0 0 0 1.4 1.4h3.75a17.6 17.6 0 0 1-5 6.41 1.41 1.41 0 0 0-.29 1.95l1.07 1.44a1.42 1.42 0 0 0 .92.56h.2a1.35 1.35 0 0 0 .84-.28c.22-.16.43-.32.63-.49v7.15a1.4 1.4 0 0 0 1.4 1.4h1.79a1.4 1.4 0 0 0 1.4-1.4v-.57l.44 1.09a1.38 1.38 0 0 0 .76.76 1.41 1.41 0 0 0 .54.11 1.23 1.23 0 0 0 .53-.11 16.23 16.23 0 0 0 6-4.22 4.33 4.33 0 0 0 1.11 2.73 3.84 3.84 0 0 0 2.79 1.13h4.1a3.61 3.61 0 0 0 3.34-1.88 4.4 4.4 0 0 0 .45-2.08V27a1.39 1.39 0 0 0-1.4-1.4h-1.78a1.4 1.4 0 0 0-1.4 1.4v1.2h-2.66v-7.69a1.41 1.41 0 0 0-.51-1.08v-6.15a1.39 1.39 0 0 0-.9-1.31h2.17v10.81a1.39 1.39 0 0 0 1.4 1.4h1.78a1.4 1.4 0 0 0 1.4-1.4v-14a1.4 1.4 0 0 0-1.4-1.4h-13.17a1.4 1.4 0 0 0-1.4 1.4v2.5a1.39 1.39 0 0 0-1.24-.75H162V8.42a1.4 1.4 0 0 0-1.4-1.4zm8.78 5h1.87a1.41 1.41 0 0 0-.9 1.31v5.54a11.12 11.12 0 0 1-1 4V12zm-6.5 6.81a23.48 23.48 0 0 0 1.91-4.18v6l-1.91-1.83zm3.31 5.4H168a1.43 1.43 0 0 0 1-.39 11.5 11.5 0 0 1-5.86 5.15 1.29 1.29 0 0 0-.53.38v-4.57a1.38 1.38 0 0 0 .93.35 1.41 1.41 0 0 0 1-.43l.81-.87a1.39 1.39 0 0 0 .87.3zm93.85-.46h-7.7a1.4 1.4 0 0 0-1.4 1.4V27a1.4 1.4 0 0 0 1.4 1.4h7.7a1.4 1.4 0 0 0 1.4-1.4v-1.8a1.4 1.4 0 0 0-1.4-1.4z" fill="#636363"/></g></svg>